%TF.GenerationSoftware,KiCad,Pcbnew,(5.99.0-12650-g5c402a64ab)*%
%TF.CreationDate,2021-10-24T00:02:36+01:00*%
%TF.ProjectId,Pintry-X2,50696e74-7279-42d5-9832-2e6b69636164,rev?*%
%TF.SameCoordinates,Original*%
%TF.FileFunction,Legend,Top*%
%TF.FilePolarity,Positive*%
%FSLAX46Y46*%
G04 Gerber Fmt 4.6, Leading zero omitted, Abs format (unit mm)*
G04 Created by KiCad (PCBNEW (5.99.0-12650-g5c402a64ab)) date 2021-10-24 00:02:36*
%MOMM*%
%LPD*%
G01*
G04 APERTURE LIST*
G04 Aperture macros list*
%AMRoundRect*
0 Rectangle with rounded corners*
0 $1 Rounding radius*
0 $2 $3 $4 $5 $6 $7 $8 $9 X,Y pos of 4 corners*
0 Add a 4 corners polygon primitive as box body*
4,1,4,$2,$3,$4,$5,$6,$7,$8,$9,$2,$3,0*
0 Add four circle primitives for the rounded corners*
1,1,$1+$1,$2,$3*
1,1,$1+$1,$4,$5*
1,1,$1+$1,$6,$7*
1,1,$1+$1,$8,$9*
0 Add four rect primitives between the rounded corners*
20,1,$1+$1,$2,$3,$4,$5,0*
20,1,$1+$1,$4,$5,$6,$7,0*
20,1,$1+$1,$6,$7,$8,$9,0*
20,1,$1+$1,$8,$9,$2,$3,0*%
%AMFreePoly0*
4,1,32,0.444127,1.326197,0.447663,1.324733,0.474733,1.297663,0.476197,1.294127,0.480000,1.275000,0.480000,-0.425000,0.476197,-0.444127,0.474733,-0.447663,0.447663,-0.474733,0.444127,-0.476197,0.425000,-0.480000,-0.575000,-0.480000,-0.594127,-0.476197,-0.597663,-0.474733,-0.624733,-0.447663,-0.626197,-0.444127,-0.630000,-0.425000,-0.630000,0.520000,-1.875000,0.520000,-1.894127,0.523803,
-1.897663,0.525267,-1.924733,0.552337,-1.926197,0.555873,-1.930000,0.575000,-1.930000,1.275000,-1.926197,1.294127,-1.924733,1.297663,-1.897663,1.324733,-1.894127,1.326197,-1.875000,1.330000,0.425000,1.330000,0.444127,1.326197,0.444127,1.326197,$1*%
%AMFreePoly1*
4,1,29,1.135355,0.510355,1.150000,0.475000,1.150000,0.175000,1.135355,0.139645,1.100000,0.125000,0.800000,0.125000,0.800000,-0.125000,1.100000,-0.125000,1.135355,-0.139645,1.150000,-0.175000,1.150000,-0.475000,1.135355,-0.510355,1.100000,-0.525000,-1.100000,-0.525000,-1.135355,-0.510355,-1.150000,-0.475000,-1.150000,-0.175000,-1.135355,-0.139645,-1.100000,-0.125000,-0.800000,-0.125000,
-0.800000,0.125000,-1.100000,0.125000,-1.135355,0.139645,-1.150000,0.175000,-1.150000,0.475000,-1.135355,0.510355,-1.100000,0.525000,1.100000,0.525000,1.135355,0.510355,1.135355,0.510355,$1*%
G04 Aperture macros list end*
%ADD10C,0.150000*%
%ADD11C,0.200000*%
%ADD12C,0.120000*%
%ADD13C,0.300000*%
%ADD14C,0.500000*%
%ADD15C,0.127000*%
%ADD16C,0.010000*%
%ADD17RoundRect,0.300000X-1.125000X-1.125000X1.125000X-1.125000X1.125000X1.125000X-1.125000X1.125000X0*%
%ADD18C,2.850000*%
%ADD19RoundRect,0.050000X0.125000X-0.180000X0.125000X0.180000X-0.125000X0.180000X-0.125000X-0.180000X0*%
%ADD20C,1.100000*%
%ADD21RoundRect,0.050000X-0.150000X-0.275000X0.150000X-0.275000X0.150000X0.275000X-0.150000X0.275000X0*%
%ADD22RoundRect,0.050000X-0.200000X-0.275000X0.200000X-0.275000X0.200000X0.275000X-0.200000X0.275000X0*%
%ADD23RoundRect,0.185000X0.185000X-0.135000X0.185000X0.135000X-0.185000X0.135000X-0.185000X-0.135000X0*%
%ADD24RoundRect,0.200000X0.512500X0.150000X-0.512500X0.150000X-0.512500X-0.150000X0.512500X-0.150000X0*%
%ADD25RoundRect,0.185000X-0.135000X-0.185000X0.135000X-0.185000X0.135000X0.185000X-0.135000X0.185000X0*%
%ADD26RoundRect,0.190000X0.170000X-0.140000X0.170000X0.140000X-0.170000X0.140000X-0.170000X-0.140000X0*%
%ADD27RoundRect,0.300000X1.500000X0.550000X-1.500000X0.550000X-1.500000X-0.550000X1.500000X-0.550000X0*%
%ADD28RoundRect,0.190000X-0.140000X-0.170000X0.140000X-0.170000X0.140000X0.170000X-0.140000X0.170000X0*%
%ADD29FreePoly0,270.000000*%
%ADD30RoundRect,0.185000X-0.185000X0.135000X-0.185000X-0.135000X0.185000X-0.135000X0.185000X0.135000X0*%
%ADD31RoundRect,0.300000X-1.500000X-0.550000X1.500000X-0.550000X1.500000X0.550000X-1.500000X0.550000X0*%
%ADD32RoundRect,0.300000X0.550000X-1.500000X0.550000X1.500000X-0.550000X1.500000X-0.550000X-1.500000X0*%
%ADD33RoundRect,0.190000X-0.170000X0.140000X-0.170000X-0.140000X0.170000X-0.140000X0.170000X0.140000X0*%
%ADD34RoundRect,0.300000X-0.475000X0.250000X-0.475000X-0.250000X0.475000X-0.250000X0.475000X0.250000X0*%
%ADD35C,7.000000*%
%ADD36RoundRect,0.050000X0.200000X-0.825000X0.200000X0.825000X-0.200000X0.825000X-0.200000X-0.825000X0*%
%ADD37RoundRect,0.050000X-0.912500X-0.350000X0.912500X-0.350000X0.912500X0.350000X-0.912500X0.350000X0*%
%ADD38O,1.450000X1.800000*%
%ADD39RoundRect,0.050000X0.715000X-1.250000X0.715000X1.250000X-0.715000X1.250000X-0.715000X-1.250000X0*%
%ADD40RoundRect,0.050000X-0.675000X-1.000000X0.675000X-1.000000X0.675000X1.000000X-0.675000X1.000000X0*%
%ADD41O,1.200000X1.600000*%
%ADD42RoundRect,0.050000X-1.000000X-0.750000X1.000000X-0.750000X1.000000X0.750000X-1.000000X0.750000X0*%
%ADD43RoundRect,0.050000X-0.125000X0.180000X-0.125000X-0.180000X0.125000X-0.180000X0.125000X0.180000X0*%
%ADD44C,2.200000*%
%ADD45C,1.850000*%
%ADD46FreePoly1,270.000000*%
%ADD47RoundRect,0.050000X-0.150000X0.175000X-0.150000X-0.175000X0.150000X-0.175000X0.150000X0.175000X0*%
%ADD48RoundRect,0.050000X-0.117500X0.435000X-0.117500X-0.435000X0.117500X-0.435000X0.117500X0.435000X0*%
%ADD49RoundRect,0.050000X0.350000X-0.225000X0.350000X0.225000X-0.350000X0.225000X-0.350000X-0.225000X0*%
%ADD50RoundRect,0.050000X0.180000X0.125000X-0.180000X0.125000X-0.180000X-0.125000X0.180000X-0.125000X0*%
%ADD51RoundRect,0.050000X0.600000X-0.700000X0.600000X0.700000X-0.600000X0.700000X-0.600000X-0.700000X0*%
%ADD52RoundRect,0.112500X0.337500X0.062500X-0.337500X0.062500X-0.337500X-0.062500X0.337500X-0.062500X0*%
%ADD53RoundRect,0.112500X0.062500X0.337500X-0.062500X0.337500X-0.062500X-0.337500X0.062500X-0.337500X0*%
%ADD54RoundRect,0.050000X2.012500X2.012500X-2.012500X2.012500X-2.012500X-2.012500X2.012500X-2.012500X0*%
%ADD55RoundRect,0.050000X2.000000X-0.750000X2.000000X0.750000X-2.000000X0.750000X-2.000000X-0.750000X0*%
%ADD56RoundRect,0.050000X-0.450000X-0.300000X0.450000X-0.300000X0.450000X0.300000X-0.450000X0.300000X0*%
%ADD57RoundRect,0.050000X0.225000X-0.300000X0.225000X0.300000X-0.225000X0.300000X-0.225000X-0.300000X0*%
%ADD58RoundRect,0.050000X-1.700000X1.075000X-1.700000X-1.075000X1.700000X-1.075000X1.700000X1.075000X0*%
%ADD59RoundRect,0.190000X0.140000X0.170000X-0.140000X0.170000X-0.140000X-0.170000X0.140000X-0.170000X0*%
%ADD60RoundRect,0.268750X-0.256250X0.218750X-0.256250X-0.218750X0.256250X-0.218750X0.256250X0.218750X0*%
%ADD61C,2.000000*%
%ADD62RoundRect,0.050000X0.850000X0.850000X-0.850000X0.850000X-0.850000X-0.850000X0.850000X-0.850000X0*%
%ADD63O,1.800000X1.800000*%
%ADD64C,6.100000*%
%ADD65RoundRect,0.050000X-0.350000X0.100000X-0.350000X-0.100000X0.350000X-0.100000X0.350000X0.100000X0*%
%ADD66RoundRect,0.200000X0.150000X-0.650000X0.150000X0.650000X-0.150000X0.650000X-0.150000X-0.650000X0*%
%ADD67C,3.350000*%
%ADD68RoundRect,0.050000X-0.800000X-0.800000X0.800000X-0.800000X0.800000X0.800000X-0.800000X0.800000X0*%
%ADD69C,1.700000*%
%ADD70C,2.100000*%
%ADD71C,2.800000*%
%ADD72RoundRect,0.185000X0.135000X0.185000X-0.135000X0.185000X-0.135000X-0.185000X0.135000X-0.185000X0*%
%ADD73RoundRect,0.050000X-0.225000X-0.350000X0.225000X-0.350000X0.225000X0.350000X-0.225000X0.350000X0*%
%ADD74RoundRect,0.268750X-0.218750X-0.256250X0.218750X-0.256250X0.218750X0.256250X-0.218750X0.256250X0*%
%ADD75RoundRect,0.050000X-0.180000X-0.125000X0.180000X-0.125000X0.180000X0.125000X-0.180000X0.125000X0*%
%ADD76RoundRect,0.050000X0.300000X0.225000X-0.300000X0.225000X-0.300000X-0.225000X0.300000X-0.225000X0*%
%ADD77O,4.600000X2.100000*%
%ADD78O,4.100000X2.100000*%
%ADD79O,1.900000X3.600000*%
%ADD80RoundRect,0.050000X0.450000X0.300000X-0.450000X0.300000X-0.450000X-0.300000X0.450000X-0.300000X0*%
%ADD81RoundRect,0.300000X-0.550000X1.500000X-0.550000X-1.500000X0.550000X-1.500000X0.550000X1.500000X0*%
%ADD82RoundRect,0.050000X-0.350000X0.225000X-0.350000X-0.225000X0.350000X-0.225000X0.350000X0.225000X0*%
%ADD83RoundRect,0.050000X0.200000X-0.325000X0.200000X0.325000X-0.200000X0.325000X-0.200000X-0.325000X0*%
%ADD84RoundRect,0.300000X-0.845000X0.620000X-0.845000X-0.620000X0.845000X-0.620000X0.845000X0.620000X0*%
%ADD85O,2.290000X1.840000*%
%ADD86RoundRect,0.050000X-0.850000X-0.850000X0.850000X-0.850000X0.850000X0.850000X-0.850000X0.850000X0*%
%ADD87RoundRect,0.050000X0.700000X0.150000X-0.700000X0.150000X-0.700000X-0.150000X0.700000X-0.150000X0*%
%ADD88RoundRect,0.050000X-0.350000X-0.875000X0.350000X-0.875000X0.350000X0.875000X-0.350000X0.875000X0*%
%ADD89RoundRect,0.050000X-0.725000X-0.500000X0.725000X-0.500000X0.725000X0.500000X-0.725000X0.500000X0*%
%ADD90RoundRect,0.050000X-0.500000X-0.775000X0.500000X-0.775000X0.500000X0.775000X-0.500000X0.775000X0*%
%ADD91RoundRect,0.050000X-0.750000X-0.750000X0.750000X-0.750000X0.750000X0.750000X-0.750000X0.750000X0*%
%ADD92RoundRect,0.050000X-0.400000X-0.700000X0.400000X-0.700000X0.400000X0.700000X-0.400000X0.700000X0*%
%ADD93RoundRect,0.050000X-0.650000X-0.750000X0.650000X-0.750000X0.650000X0.750000X-0.650000X0.750000X0*%
%ADD94RoundRect,0.050000X-0.400000X-0.750000X0.400000X-0.750000X0.400000X0.750000X-0.400000X0.750000X0*%
%ADD95RoundRect,0.268750X0.256250X-0.218750X0.256250X0.218750X-0.256250X0.218750X-0.256250X-0.218750X0*%
%ADD96RoundRect,0.050000X0.800000X-0.800000X0.800000X0.800000X-0.800000X0.800000X-0.800000X-0.800000X0*%
%ADD97C,2.250000*%
%ADD98RoundRect,0.025000X0.700000X0.175000X-0.700000X0.175000X-0.700000X-0.175000X0.700000X-0.175000X0*%
%ADD99RoundRect,0.025000X0.175000X0.300000X-0.175000X0.300000X-0.175000X-0.300000X0.175000X-0.300000X0*%
%ADD100RoundRect,0.025000X0.300000X0.175000X-0.300000X0.175000X-0.300000X-0.175000X0.300000X-0.175000X0*%
%ADD101RoundRect,0.200000X-0.512500X-0.150000X0.512500X-0.150000X0.512500X0.150000X-0.512500X0.150000X0*%
%ADD102FreePoly1,90.000000*%
%ADD103RoundRect,0.050000X0.150000X-0.175000X0.150000X0.175000X-0.150000X0.175000X-0.150000X-0.175000X0*%
%ADD104RoundRect,0.050000X0.117500X-0.435000X0.117500X0.435000X-0.117500X0.435000X-0.117500X-0.435000X0*%
%ADD105RoundRect,0.300000X0.845000X-0.620000X0.845000X0.620000X-0.845000X0.620000X-0.845000X-0.620000X0*%
G04 APERTURE END LIST*
D10*
X143200000Y-186900000D02*
X143550000Y-187300000D01*
X143200000Y-185150000D02*
X143200000Y-186850000D01*
X145278571Y-123247380D02*
X144945238Y-122771190D01*
X144707142Y-123247380D02*
X144707142Y-122247380D01*
X145088095Y-122247380D01*
X145183333Y-122295000D01*
X145230952Y-122342619D01*
X145278571Y-122437857D01*
X145278571Y-122580714D01*
X145230952Y-122675952D01*
X145183333Y-122723571D01*
X145088095Y-122771190D01*
X144707142Y-122771190D01*
X146088095Y-123199761D02*
X145992857Y-123247380D01*
X145802380Y-123247380D01*
X145707142Y-123199761D01*
X145659523Y-123104523D01*
X145659523Y-122723571D01*
X145707142Y-122628333D01*
X145802380Y-122580714D01*
X145992857Y-122580714D01*
X146088095Y-122628333D01*
X146135714Y-122723571D01*
X146135714Y-122818809D01*
X145659523Y-122914047D01*
X146469047Y-122580714D02*
X146707142Y-123247380D01*
X146945238Y-122580714D01*
X148611904Y-123247380D02*
X148040476Y-123247380D01*
X148326190Y-123247380D02*
X148326190Y-122247380D01*
X148230952Y-122390238D01*
X148135714Y-122485476D01*
X148040476Y-122533095D01*
X149040476Y-123152142D02*
X149088095Y-123199761D01*
X149040476Y-123247380D01*
X148992857Y-123199761D01*
X149040476Y-123152142D01*
X149040476Y-123247380D01*
X149707142Y-122247380D02*
X149802380Y-122247380D01*
X149897619Y-122295000D01*
X149945238Y-122342619D01*
X149992857Y-122437857D01*
X150040476Y-122628333D01*
X150040476Y-122866428D01*
X149992857Y-123056904D01*
X149945238Y-123152142D01*
X149897619Y-123199761D01*
X149802380Y-123247380D01*
X149707142Y-123247380D01*
X149611904Y-123199761D01*
X149564285Y-123152142D01*
X149516666Y-123056904D01*
X149469047Y-122866428D01*
X149469047Y-122628333D01*
X149516666Y-122437857D01*
X149564285Y-122342619D01*
X149611904Y-122295000D01*
X149707142Y-122247380D01*
D11*
X70859523Y-163561904D02*
X70859523Y-162761904D01*
X71164285Y-162761904D01*
X71240476Y-162800000D01*
X71278571Y-162838095D01*
X71316666Y-162914285D01*
X71316666Y-163028571D01*
X71278571Y-163104761D01*
X71240476Y-163142857D01*
X71164285Y-163180952D01*
X70859523Y-163180952D01*
X71583333Y-162761904D02*
X72116666Y-162761904D01*
X71773809Y-163561904D01*
X78509523Y-161161904D02*
X78509523Y-160361904D01*
X78814285Y-160361904D01*
X78890476Y-160400000D01*
X78928571Y-160438095D01*
X78966666Y-160514285D01*
X78966666Y-160628571D01*
X78928571Y-160704761D01*
X78890476Y-160742857D01*
X78814285Y-160780952D01*
X78509523Y-160780952D01*
X79347619Y-161161904D02*
X79500000Y-161161904D01*
X79576190Y-161123809D01*
X79614285Y-161085714D01*
X79690476Y-160971428D01*
X79728571Y-160819047D01*
X79728571Y-160514285D01*
X79690476Y-160438095D01*
X79652380Y-160400000D01*
X79576190Y-160361904D01*
X79423809Y-160361904D01*
X79347619Y-160400000D01*
X79309523Y-160438095D01*
X79271428Y-160514285D01*
X79271428Y-160704761D01*
X79309523Y-160780952D01*
X79347619Y-160819047D01*
X79423809Y-160857142D01*
X79576190Y-160857142D01*
X79652380Y-160819047D01*
X79690476Y-160780952D01*
X79728571Y-160704761D01*
D12*
X146280952Y-207223809D02*
X146395238Y-207261904D01*
X146585714Y-207261904D01*
X146661904Y-207223809D01*
X146700000Y-207185714D01*
X146738095Y-207109523D01*
X146738095Y-207033333D01*
X146700000Y-206957142D01*
X146661904Y-206919047D01*
X146585714Y-206880952D01*
X146433333Y-206842857D01*
X146357142Y-206804761D01*
X146319047Y-206766666D01*
X146280952Y-206690476D01*
X146280952Y-206614285D01*
X146319047Y-206538095D01*
X146357142Y-206500000D01*
X146433333Y-206461904D01*
X146623809Y-206461904D01*
X146738095Y-206500000D01*
X147042857Y-207033333D02*
X147423809Y-207033333D01*
X146966666Y-207261904D02*
X147233333Y-206461904D01*
X147500000Y-207261904D01*
X147652380Y-206461904D02*
X148109523Y-206461904D01*
X147880952Y-207261904D02*
X147880952Y-206461904D01*
X148338095Y-207033333D02*
X148719047Y-207033333D01*
X148261904Y-207261904D02*
X148528571Y-206461904D01*
X148795238Y-207261904D01*
D11*
X70890476Y-176810000D02*
X70814285Y-176771904D01*
X70700000Y-176771904D01*
X70585714Y-176810000D01*
X70509523Y-176886190D01*
X70471428Y-176962380D01*
X70433333Y-177114761D01*
X70433333Y-177229047D01*
X70471428Y-177381428D01*
X70509523Y-177457619D01*
X70585714Y-177533809D01*
X70700000Y-177571904D01*
X70776190Y-177571904D01*
X70890476Y-177533809D01*
X70928571Y-177495714D01*
X70928571Y-177229047D01*
X70776190Y-177229047D01*
X71271428Y-177571904D02*
X71271428Y-176771904D01*
X71728571Y-177571904D01*
X71728571Y-176771904D01*
X72109523Y-177571904D02*
X72109523Y-176771904D01*
X72300000Y-176771904D01*
X72414285Y-176810000D01*
X72490476Y-176886190D01*
X72528571Y-176962380D01*
X72566666Y-177114761D01*
X72566666Y-177229047D01*
X72528571Y-177381428D01*
X72490476Y-177457619D01*
X72414285Y-177533809D01*
X72300000Y-177571904D01*
X72109523Y-177571904D01*
X71416666Y-172461904D02*
X71150000Y-172080952D01*
X70959523Y-172461904D02*
X70959523Y-171661904D01*
X71264285Y-171661904D01*
X71340476Y-171700000D01*
X71378571Y-171738095D01*
X71416666Y-171814285D01*
X71416666Y-171928571D01*
X71378571Y-172004761D01*
X71340476Y-172042857D01*
X71264285Y-172080952D01*
X70959523Y-172080952D01*
X71683333Y-171661904D02*
X72216666Y-172461904D01*
X72216666Y-171661904D02*
X71683333Y-172461904D01*
X70940476Y-174061904D02*
X71397619Y-174061904D01*
X71169047Y-174861904D02*
X71169047Y-174061904D01*
X71588095Y-174061904D02*
X72121428Y-174861904D01*
X72121428Y-174061904D02*
X71588095Y-174861904D01*
X78528571Y-163511904D02*
X78528571Y-162711904D01*
X78833333Y-162711904D01*
X78909523Y-162750000D01*
X78947619Y-162788095D01*
X78985714Y-162864285D01*
X78985714Y-162978571D01*
X78947619Y-163054761D01*
X78909523Y-163092857D01*
X78833333Y-163130952D01*
X78528571Y-163130952D01*
X79747619Y-163511904D02*
X79290476Y-163511904D01*
X79519047Y-163511904D02*
X79519047Y-162711904D01*
X79442857Y-162826190D01*
X79366666Y-162902380D01*
X79290476Y-162940476D01*
X80242857Y-162711904D02*
X80319047Y-162711904D01*
X80395238Y-162750000D01*
X80433333Y-162788095D01*
X80471428Y-162864285D01*
X80509523Y-163016666D01*
X80509523Y-163207142D01*
X80471428Y-163359523D01*
X80433333Y-163435714D01*
X80395238Y-163473809D01*
X80319047Y-163511904D01*
X80242857Y-163511904D01*
X80166666Y-163473809D01*
X80128571Y-163435714D01*
X80090476Y-163359523D01*
X80052380Y-163207142D01*
X80052380Y-163016666D01*
X80090476Y-162864285D01*
X80128571Y-162788095D01*
X80166666Y-162750000D01*
X80242857Y-162711904D01*
X78478571Y-158611904D02*
X78478571Y-157811904D01*
X78783333Y-157811904D01*
X78859523Y-157850000D01*
X78897619Y-157888095D01*
X78935714Y-157964285D01*
X78935714Y-158078571D01*
X78897619Y-158154761D01*
X78859523Y-158192857D01*
X78783333Y-158230952D01*
X78478571Y-158230952D01*
X79697619Y-158611904D02*
X79240476Y-158611904D01*
X79469047Y-158611904D02*
X79469047Y-157811904D01*
X79392857Y-157926190D01*
X79316666Y-158002380D01*
X79240476Y-158040476D01*
X80459523Y-158611904D02*
X80002380Y-158611904D01*
X80230952Y-158611904D02*
X80230952Y-157811904D01*
X80154761Y-157926190D01*
X80078571Y-158002380D01*
X80002380Y-158040476D01*
D10*
X78966666Y-111552380D02*
X78966666Y-110552380D01*
X79347619Y-110552380D01*
X79442857Y-110600000D01*
X79490476Y-110647619D01*
X79538095Y-110742857D01*
X79538095Y-110885714D01*
X79490476Y-110980952D01*
X79442857Y-111028571D01*
X79347619Y-111076190D01*
X78966666Y-111076190D01*
X79871428Y-110552380D02*
X80109523Y-111552380D01*
X80300000Y-110838095D01*
X80490476Y-111552380D01*
X80728571Y-110552380D01*
X81680952Y-111552380D02*
X81347619Y-111076190D01*
X81109523Y-111552380D02*
X81109523Y-110552380D01*
X81490476Y-110552380D01*
X81585714Y-110600000D01*
X81633333Y-110647619D01*
X81680952Y-110742857D01*
X81680952Y-110885714D01*
X81633333Y-110980952D01*
X81585714Y-111028571D01*
X81490476Y-111076190D01*
X81109523Y-111076190D01*
D11*
X70528571Y-166073809D02*
X70642857Y-166111904D01*
X70833333Y-166111904D01*
X70909523Y-166073809D01*
X70947619Y-166035714D01*
X70985714Y-165959523D01*
X70985714Y-165883333D01*
X70947619Y-165807142D01*
X70909523Y-165769047D01*
X70833333Y-165730952D01*
X70680952Y-165692857D01*
X70604761Y-165654761D01*
X70566666Y-165616666D01*
X70528571Y-165540476D01*
X70528571Y-165464285D01*
X70566666Y-165388095D01*
X70604761Y-165350000D01*
X70680952Y-165311904D01*
X70871428Y-165311904D01*
X70985714Y-165350000D01*
X71328571Y-166111904D02*
X71328571Y-165311904D01*
X71519047Y-165311904D01*
X71633333Y-165350000D01*
X71709523Y-165426190D01*
X71747619Y-165502380D01*
X71785714Y-165654761D01*
X71785714Y-165769047D01*
X71747619Y-165921428D01*
X71709523Y-165997619D01*
X71633333Y-166073809D01*
X71519047Y-166111904D01*
X71328571Y-166111904D01*
X72090476Y-165883333D02*
X72471428Y-165883333D01*
X72014285Y-166111904D02*
X72280952Y-165311904D01*
X72547619Y-166111904D01*
X70509523Y-168261904D02*
X71004761Y-168261904D01*
X70738095Y-168566666D01*
X70852380Y-168566666D01*
X70928571Y-168604761D01*
X70966666Y-168642857D01*
X71004761Y-168719047D01*
X71004761Y-168909523D01*
X70966666Y-168985714D01*
X70928571Y-169023809D01*
X70852380Y-169061904D01*
X70623809Y-169061904D01*
X70547619Y-169023809D01*
X70509523Y-168985714D01*
X71233333Y-168261904D02*
X71500000Y-169061904D01*
X71766666Y-168261904D01*
X71957142Y-168261904D02*
X72452380Y-168261904D01*
X72185714Y-168566666D01*
X72300000Y-168566666D01*
X72376190Y-168604761D01*
X72414285Y-168642857D01*
X72452380Y-168719047D01*
X72452380Y-168909523D01*
X72414285Y-168985714D01*
X72376190Y-169023809D01*
X72300000Y-169061904D01*
X72071428Y-169061904D01*
X71995238Y-169023809D01*
X71957142Y-168985714D01*
X70940476Y-157750000D02*
X70864285Y-157711904D01*
X70750000Y-157711904D01*
X70635714Y-157750000D01*
X70559523Y-157826190D01*
X70521428Y-157902380D01*
X70483333Y-158054761D01*
X70483333Y-158169047D01*
X70521428Y-158321428D01*
X70559523Y-158397619D01*
X70635714Y-158473809D01*
X70750000Y-158511904D01*
X70826190Y-158511904D01*
X70940476Y-158473809D01*
X70978571Y-158435714D01*
X70978571Y-158169047D01*
X70826190Y-158169047D01*
X71321428Y-158511904D02*
X71321428Y-157711904D01*
X71778571Y-158511904D01*
X71778571Y-157711904D01*
X72159523Y-158511904D02*
X72159523Y-157711904D01*
X72350000Y-157711904D01*
X72464285Y-157750000D01*
X72540476Y-157826190D01*
X72578571Y-157902380D01*
X72616666Y-158054761D01*
X72616666Y-158169047D01*
X72578571Y-158321428D01*
X72540476Y-158397619D01*
X72464285Y-158473809D01*
X72350000Y-158511904D01*
X72159523Y-158511904D01*
D10*
X92680952Y-111166666D02*
X93157142Y-111166666D01*
X92585714Y-111452380D02*
X92919047Y-110452380D01*
X93252380Y-111452380D01*
X94157142Y-111357142D02*
X94109523Y-111404761D01*
X93966666Y-111452380D01*
X93871428Y-111452380D01*
X93728571Y-111404761D01*
X93633333Y-111309523D01*
X93585714Y-111214285D01*
X93538095Y-111023809D01*
X93538095Y-110880952D01*
X93585714Y-110690476D01*
X93633333Y-110595238D01*
X93728571Y-110500000D01*
X93871428Y-110452380D01*
X93966666Y-110452380D01*
X94109523Y-110500000D01*
X94157142Y-110547619D01*
X94442857Y-110452380D02*
X95014285Y-110452380D01*
X94728571Y-111452380D02*
X94728571Y-110452380D01*
D13*
X164071428Y-198021071D02*
X163214285Y-198021071D01*
X163642857Y-198021071D02*
X163642857Y-196521071D01*
X163500000Y-196735357D01*
X163357142Y-196878214D01*
X163214285Y-196949642D01*
X164642857Y-196663928D02*
X164714285Y-196592500D01*
X164857142Y-196521071D01*
X165214285Y-196521071D01*
X165357142Y-196592500D01*
X165428571Y-196663928D01*
X165500000Y-196806785D01*
X165500000Y-196949642D01*
X165428571Y-197163928D01*
X164571428Y-198021071D01*
X165500000Y-198021071D01*
X165928571Y-196521071D02*
X166428571Y-198021071D01*
X166928571Y-196521071D01*
X161857142Y-198936071D02*
X161571428Y-198936071D01*
X161428571Y-199007500D01*
X161357142Y-199078928D01*
X161214285Y-199293214D01*
X161142857Y-199578928D01*
X161142857Y-200150357D01*
X161214285Y-200293214D01*
X161285714Y-200364642D01*
X161428571Y-200436071D01*
X161714285Y-200436071D01*
X161857142Y-200364642D01*
X161928571Y-200293214D01*
X162000000Y-200150357D01*
X162000000Y-199793214D01*
X161928571Y-199650357D01*
X161857142Y-199578928D01*
X161714285Y-199507500D01*
X161428571Y-199507500D01*
X161285714Y-199578928D01*
X161214285Y-199650357D01*
X161142857Y-199793214D01*
X162571428Y-200007500D02*
X163285714Y-200007500D01*
X162428571Y-200436071D02*
X162928571Y-198936071D01*
X163428571Y-200436071D01*
X165071428Y-200436071D02*
X165071428Y-198936071D01*
X165571428Y-200007500D01*
X166071428Y-198936071D01*
X166071428Y-200436071D01*
X166714285Y-200007500D02*
X167428571Y-200007500D01*
X166571428Y-200436071D02*
X167071428Y-198936071D01*
X167571428Y-200436071D01*
X167928571Y-198936071D02*
X168928571Y-200436071D01*
X168928571Y-198936071D02*
X167928571Y-200436071D01*
D11*
X78547619Y-166123809D02*
X78661904Y-166161904D01*
X78852380Y-166161904D01*
X78928571Y-166123809D01*
X78966666Y-166085714D01*
X79004761Y-166009523D01*
X79004761Y-165933333D01*
X78966666Y-165857142D01*
X78928571Y-165819047D01*
X78852380Y-165780952D01*
X78700000Y-165742857D01*
X78623809Y-165704761D01*
X78585714Y-165666666D01*
X78547619Y-165590476D01*
X78547619Y-165514285D01*
X78585714Y-165438095D01*
X78623809Y-165400000D01*
X78700000Y-165361904D01*
X78890476Y-165361904D01*
X79004761Y-165400000D01*
X79804761Y-166085714D02*
X79766666Y-166123809D01*
X79652380Y-166161904D01*
X79576190Y-166161904D01*
X79461904Y-166123809D01*
X79385714Y-166047619D01*
X79347619Y-165971428D01*
X79309523Y-165819047D01*
X79309523Y-165704761D01*
X79347619Y-165552380D01*
X79385714Y-165476190D01*
X79461904Y-165400000D01*
X79576190Y-165361904D01*
X79652380Y-165361904D01*
X79766666Y-165400000D01*
X79804761Y-165438095D01*
X80528571Y-166161904D02*
X80147619Y-166161904D01*
X80147619Y-165361904D01*
D14*
X133552380Y-119659523D02*
X133552380Y-115659523D01*
X135076190Y-115659523D01*
X135457142Y-115850000D01*
X135647619Y-116040476D01*
X135838095Y-116421428D01*
X135838095Y-116992857D01*
X135647619Y-117373809D01*
X135457142Y-117564285D01*
X135076190Y-117754761D01*
X133552380Y-117754761D01*
X137552380Y-119659523D02*
X137552380Y-116992857D01*
X137552380Y-115659523D02*
X137361904Y-115850000D01*
X137552380Y-116040476D01*
X137742857Y-115850000D01*
X137552380Y-115659523D01*
X137552380Y-116040476D01*
X139457142Y-116992857D02*
X139457142Y-119659523D01*
X139457142Y-117373809D02*
X139647619Y-117183333D01*
X140028571Y-116992857D01*
X140600000Y-116992857D01*
X140980952Y-117183333D01*
X141171428Y-117564285D01*
X141171428Y-119659523D01*
X142504761Y-116992857D02*
X144028571Y-116992857D01*
X143076190Y-115659523D02*
X143076190Y-119088095D01*
X143266666Y-119469047D01*
X143647619Y-119659523D01*
X144028571Y-119659523D01*
X145361904Y-119659523D02*
X145361904Y-116992857D01*
X145361904Y-117754761D02*
X145552380Y-117373809D01*
X145742857Y-117183333D01*
X146123809Y-116992857D01*
X146504761Y-116992857D01*
X147457142Y-116992857D02*
X148409523Y-119659523D01*
X149361904Y-116992857D02*
X148409523Y-119659523D01*
X148028571Y-120611904D01*
X147838095Y-120802380D01*
X147457142Y-120992857D01*
X153552380Y-115659523D02*
X156219047Y-119659523D01*
X156219047Y-115659523D02*
X153552380Y-119659523D01*
X157552380Y-116040476D02*
X157742857Y-115850000D01*
X158123809Y-115659523D01*
X159076190Y-115659523D01*
X159457142Y-115850000D01*
X159647619Y-116040476D01*
X159838095Y-116421428D01*
X159838095Y-116802380D01*
X159647619Y-117373809D01*
X157361904Y-119659523D01*
X159838095Y-119659523D01*
D10*
X110804761Y-131561904D02*
X110804761Y-132133333D01*
X110766666Y-132247619D01*
X110690476Y-132323809D01*
X110576190Y-132361904D01*
X110500000Y-132361904D01*
X111566666Y-132361904D02*
X111185714Y-132361904D01*
X111185714Y-131561904D01*
X112290476Y-132285714D02*
X112252380Y-132323809D01*
X112138095Y-132361904D01*
X112061904Y-132361904D01*
X111947619Y-132323809D01*
X111871428Y-132247619D01*
X111833333Y-132171428D01*
X111795238Y-132019047D01*
X111795238Y-131904761D01*
X111833333Y-131752380D01*
X111871428Y-131676190D01*
X111947619Y-131600000D01*
X112061904Y-131561904D01*
X112138095Y-131561904D01*
X112252380Y-131600000D01*
X112290476Y-131638095D01*
X112861904Y-131561904D02*
X112861904Y-132133333D01*
X112823809Y-132247619D01*
X112747619Y-132323809D01*
X112633333Y-132361904D01*
X112557142Y-132361904D01*
X113623809Y-132361904D02*
X113242857Y-132361904D01*
X113242857Y-131561904D01*
X114347619Y-132285714D02*
X114309523Y-132323809D01*
X114195238Y-132361904D01*
X114119047Y-132361904D01*
X114004761Y-132323809D01*
X113928571Y-132247619D01*
X113890476Y-132171428D01*
X113852380Y-132019047D01*
X113852380Y-131904761D01*
X113890476Y-131752380D01*
X113928571Y-131676190D01*
X114004761Y-131600000D01*
X114119047Y-131561904D01*
X114195238Y-131561904D01*
X114309523Y-131600000D01*
X114347619Y-131638095D01*
X114919047Y-131561904D02*
X114919047Y-132133333D01*
X114880952Y-132247619D01*
X114804761Y-132323809D01*
X114690476Y-132361904D01*
X114614285Y-132361904D01*
X115680952Y-132361904D02*
X115300000Y-132361904D01*
X115300000Y-131561904D01*
X116404761Y-132285714D02*
X116366666Y-132323809D01*
X116252380Y-132361904D01*
X116176190Y-132361904D01*
X116061904Y-132323809D01*
X115985714Y-132247619D01*
X115947619Y-132171428D01*
X115909523Y-132019047D01*
X115909523Y-131904761D01*
X115947619Y-131752380D01*
X115985714Y-131676190D01*
X116061904Y-131600000D01*
X116176190Y-131561904D01*
X116252380Y-131561904D01*
X116366666Y-131600000D01*
X116404761Y-131638095D01*
X116976190Y-131561904D02*
X116976190Y-132133333D01*
X116938095Y-132247619D01*
X116861904Y-132323809D01*
X116747619Y-132361904D01*
X116671428Y-132361904D01*
X117738095Y-132361904D02*
X117357142Y-132361904D01*
X117357142Y-131561904D01*
X118461904Y-132285714D02*
X118423809Y-132323809D01*
X118309523Y-132361904D01*
X118233333Y-132361904D01*
X118119047Y-132323809D01*
X118042857Y-132247619D01*
X118004761Y-132171428D01*
X117966666Y-132019047D01*
X117966666Y-131904761D01*
X118004761Y-131752380D01*
X118042857Y-131676190D01*
X118119047Y-131600000D01*
X118233333Y-131561904D01*
X118309523Y-131561904D01*
X118423809Y-131600000D01*
X118461904Y-131638095D01*
D12*
X141464285Y-124078571D02*
X141616666Y-124611904D01*
X141769047Y-124230952D01*
X141921428Y-124611904D01*
X142073809Y-124078571D01*
X142302380Y-124078571D02*
X142454761Y-124611904D01*
X142607142Y-124230952D01*
X142759523Y-124611904D01*
X142911904Y-124078571D01*
X143140476Y-124078571D02*
X143292857Y-124611904D01*
X143445238Y-124230952D01*
X143597619Y-124611904D01*
X143750000Y-124078571D01*
X144054761Y-124535714D02*
X144092857Y-124573809D01*
X144054761Y-124611904D01*
X144016666Y-124573809D01*
X144054761Y-124535714D01*
X144054761Y-124611904D01*
X144778571Y-124573809D02*
X144702380Y-124611904D01*
X144550000Y-124611904D01*
X144473809Y-124573809D01*
X144435714Y-124535714D01*
X144397619Y-124459523D01*
X144397619Y-124230952D01*
X144435714Y-124154761D01*
X144473809Y-124116666D01*
X144550000Y-124078571D01*
X144702380Y-124078571D01*
X144778571Y-124116666D01*
X145426190Y-124573809D02*
X145350000Y-124611904D01*
X145197619Y-124611904D01*
X145121428Y-124573809D01*
X145083333Y-124497619D01*
X145083333Y-124192857D01*
X145121428Y-124116666D01*
X145197619Y-124078571D01*
X145350000Y-124078571D01*
X145426190Y-124116666D01*
X145464285Y-124192857D01*
X145464285Y-124269047D01*
X145083333Y-124345238D01*
X145730952Y-124078571D02*
X146150000Y-124078571D01*
X145730952Y-124611904D01*
X146150000Y-124611904D01*
X146797619Y-124611904D02*
X146797619Y-124192857D01*
X146759523Y-124116666D01*
X146683333Y-124078571D01*
X146530952Y-124078571D01*
X146454761Y-124116666D01*
X146797619Y-124573809D02*
X146721428Y-124611904D01*
X146530952Y-124611904D01*
X146454761Y-124573809D01*
X146416666Y-124497619D01*
X146416666Y-124421428D01*
X146454761Y-124345238D01*
X146530952Y-124307142D01*
X146721428Y-124307142D01*
X146797619Y-124269047D01*
X147178571Y-124611904D02*
X147178571Y-124078571D01*
X147178571Y-124230952D02*
X147216666Y-124154761D01*
X147254761Y-124116666D01*
X147330952Y-124078571D01*
X147407142Y-124078571D01*
X148016666Y-124573809D02*
X147940476Y-124611904D01*
X147788095Y-124611904D01*
X147711904Y-124573809D01*
X147673809Y-124535714D01*
X147635714Y-124459523D01*
X147635714Y-124230952D01*
X147673809Y-124154761D01*
X147711904Y-124116666D01*
X147788095Y-124078571D01*
X147940476Y-124078571D01*
X148016666Y-124116666D01*
X148359523Y-124611904D02*
X148359523Y-123811904D01*
X148702380Y-124611904D02*
X148702380Y-124192857D01*
X148664285Y-124116666D01*
X148588095Y-124078571D01*
X148473809Y-124078571D01*
X148397619Y-124116666D01*
X148359523Y-124154761D01*
X149083333Y-124611904D02*
X149083333Y-124078571D01*
X149083333Y-123811904D02*
X149045238Y-123850000D01*
X149083333Y-123888095D01*
X149121428Y-123850000D01*
X149083333Y-123811904D01*
X149083333Y-123888095D01*
X149464285Y-124611904D02*
X149464285Y-124078571D01*
X149464285Y-124230952D02*
X149502380Y-124154761D01*
X149540476Y-124116666D01*
X149616666Y-124078571D01*
X149692857Y-124078571D01*
X149959523Y-124611904D02*
X149959523Y-124078571D01*
X149959523Y-123811904D02*
X149921428Y-123850000D01*
X149959523Y-123888095D01*
X149997619Y-123850000D01*
X149959523Y-123811904D01*
X149959523Y-123888095D01*
X150454761Y-124611904D02*
X150378571Y-124573809D01*
X150340476Y-124497619D01*
X150340476Y-123811904D01*
X151102380Y-124611904D02*
X151102380Y-124192857D01*
X151064285Y-124116666D01*
X150988095Y-124078571D01*
X150835714Y-124078571D01*
X150759523Y-124116666D01*
X151102380Y-124573809D02*
X151026190Y-124611904D01*
X150835714Y-124611904D01*
X150759523Y-124573809D01*
X150721428Y-124497619D01*
X150721428Y-124421428D01*
X150759523Y-124345238D01*
X150835714Y-124307142D01*
X151026190Y-124307142D01*
X151102380Y-124269047D01*
X151483333Y-124535714D02*
X151521428Y-124573809D01*
X151483333Y-124611904D01*
X151445238Y-124573809D01*
X151483333Y-124535714D01*
X151483333Y-124611904D01*
X152207142Y-124573809D02*
X152130952Y-124611904D01*
X151978571Y-124611904D01*
X151902380Y-124573809D01*
X151864285Y-124535714D01*
X151826190Y-124459523D01*
X151826190Y-124230952D01*
X151864285Y-124154761D01*
X151902380Y-124116666D01*
X151978571Y-124078571D01*
X152130952Y-124078571D01*
X152207142Y-124116666D01*
X152664285Y-124611904D02*
X152588095Y-124573809D01*
X152550000Y-124535714D01*
X152511904Y-124459523D01*
X152511904Y-124230952D01*
X152550000Y-124154761D01*
X152588095Y-124116666D01*
X152664285Y-124078571D01*
X152778571Y-124078571D01*
X152854761Y-124116666D01*
X152892857Y-124154761D01*
X152930952Y-124230952D01*
X152930952Y-124459523D01*
X152892857Y-124535714D01*
X152854761Y-124573809D01*
X152778571Y-124611904D01*
X152664285Y-124611904D01*
X153273809Y-124611904D02*
X153273809Y-124078571D01*
X153273809Y-124154761D02*
X153311904Y-124116666D01*
X153388095Y-124078571D01*
X153502380Y-124078571D01*
X153578571Y-124116666D01*
X153616666Y-124192857D01*
X153616666Y-124611904D01*
X153616666Y-124192857D02*
X153654761Y-124116666D01*
X153730952Y-124078571D01*
X153845238Y-124078571D01*
X153921428Y-124116666D01*
X153959523Y-124192857D01*
X153959523Y-124611904D01*
D11*
X79097619Y-168061904D02*
X78716666Y-168061904D01*
X78678571Y-168442857D01*
X78716666Y-168404761D01*
X78792857Y-168366666D01*
X78983333Y-168366666D01*
X79059523Y-168404761D01*
X79097619Y-168442857D01*
X79135714Y-168519047D01*
X79135714Y-168709523D01*
X79097619Y-168785714D01*
X79059523Y-168823809D01*
X78983333Y-168861904D01*
X78792857Y-168861904D01*
X78716666Y-168823809D01*
X78678571Y-168785714D01*
X79364285Y-168061904D02*
X79630952Y-168861904D01*
X79897619Y-168061904D01*
X70859523Y-161111904D02*
X70859523Y-160311904D01*
X71164285Y-160311904D01*
X71240476Y-160350000D01*
X71278571Y-160388095D01*
X71316666Y-160464285D01*
X71316666Y-160578571D01*
X71278571Y-160654761D01*
X71240476Y-160692857D01*
X71164285Y-160730952D01*
X70859523Y-160730952D01*
X71773809Y-160654761D02*
X71697619Y-160616666D01*
X71659523Y-160578571D01*
X71621428Y-160502380D01*
X71621428Y-160464285D01*
X71659523Y-160388095D01*
X71697619Y-160350000D01*
X71773809Y-160311904D01*
X71926190Y-160311904D01*
X72002380Y-160350000D01*
X72040476Y-160388095D01*
X72078571Y-160464285D01*
X72078571Y-160502380D01*
X72040476Y-160578571D01*
X72002380Y-160616666D01*
X71926190Y-160654761D01*
X71773809Y-160654761D01*
X71697619Y-160692857D01*
X71659523Y-160730952D01*
X71621428Y-160807142D01*
X71621428Y-160959523D01*
X71659523Y-161035714D01*
X71697619Y-161073809D01*
X71773809Y-161111904D01*
X71926190Y-161111904D01*
X72002380Y-161073809D01*
X72040476Y-161035714D01*
X72078571Y-160959523D01*
X72078571Y-160807142D01*
X72040476Y-160730952D01*
X72002380Y-160692857D01*
X71926190Y-160654761D01*
D12*
%TO.C,TP5*%
X168457142Y-187109523D02*
X168457142Y-186500000D01*
X168761904Y-186804761D02*
X168152380Y-186804761D01*
X168761904Y-185700000D02*
X168761904Y-186157142D01*
X168761904Y-185928571D02*
X167961904Y-185928571D01*
X168076190Y-186004761D01*
X168152380Y-186080952D01*
X168190476Y-186157142D01*
X168038095Y-185395238D02*
X168000000Y-185357142D01*
X167961904Y-185280952D01*
X167961904Y-185090476D01*
X168000000Y-185014285D01*
X168038095Y-184976190D01*
X168114285Y-184938095D01*
X168190476Y-184938095D01*
X168304761Y-184976190D01*
X168761904Y-185433333D01*
X168761904Y-184938095D01*
X167961904Y-184709523D02*
X168761904Y-184442857D01*
X167961904Y-184176190D01*
%TO.C,TP9*%
X72421428Y-122642857D02*
X72154761Y-122642857D01*
X72154761Y-123061904D02*
X72154761Y-122261904D01*
X72535714Y-122261904D01*
X72802380Y-122833333D02*
X73183333Y-122833333D01*
X72726190Y-123061904D02*
X72992857Y-122261904D01*
X73259523Y-123061904D01*
X73526190Y-123061904D02*
X73526190Y-122261904D01*
X73983333Y-123061904D01*
X73983333Y-122261904D01*
X74783333Y-123061904D02*
X74326190Y-123061904D01*
X74554761Y-123061904D02*
X74554761Y-122261904D01*
X74478571Y-122376190D01*
X74402380Y-122452380D01*
X74326190Y-122490476D01*
%TO.C,TP6*%
X164540476Y-154400000D02*
X164464285Y-154361904D01*
X164350000Y-154361904D01*
X164235714Y-154400000D01*
X164159523Y-154476190D01*
X164121428Y-154552380D01*
X164083333Y-154704761D01*
X164083333Y-154819047D01*
X164121428Y-154971428D01*
X164159523Y-155047619D01*
X164235714Y-155123809D01*
X164350000Y-155161904D01*
X164426190Y-155161904D01*
X164540476Y-155123809D01*
X164578571Y-155085714D01*
X164578571Y-154819047D01*
X164426190Y-154819047D01*
X164921428Y-155161904D02*
X164921428Y-154361904D01*
X165378571Y-155161904D01*
X165378571Y-154361904D01*
X165759523Y-155161904D02*
X165759523Y-154361904D01*
X165950000Y-154361904D01*
X166064285Y-154400000D01*
X166140476Y-154476190D01*
X166178571Y-154552380D01*
X166216666Y-154704761D01*
X166216666Y-154819047D01*
X166178571Y-154971428D01*
X166140476Y-155047619D01*
X166064285Y-155123809D01*
X165950000Y-155161904D01*
X165759523Y-155161904D01*
%TO.C,TP11*%
X159590476Y-162357142D02*
X160200000Y-162357142D01*
X159895238Y-162661904D02*
X159895238Y-162052380D01*
X161000000Y-162661904D02*
X160542857Y-162661904D01*
X160771428Y-162661904D02*
X160771428Y-161861904D01*
X160695238Y-161976190D01*
X160619047Y-162052380D01*
X160542857Y-162090476D01*
X161228571Y-161861904D02*
X161495238Y-162661904D01*
X161761904Y-161861904D01*
X161990476Y-161938095D02*
X162028571Y-161900000D01*
X162104761Y-161861904D01*
X162295238Y-161861904D01*
X162371428Y-161900000D01*
X162409523Y-161938095D01*
X162447619Y-162014285D01*
X162447619Y-162090476D01*
X162409523Y-162204761D01*
X161952380Y-162661904D01*
X162447619Y-162661904D01*
%TO.C,TP3*%
X165669047Y-192761904D02*
X165935714Y-193561904D01*
X166202380Y-192761904D01*
X166469047Y-193561904D02*
X166469047Y-192761904D01*
X166850000Y-193561904D02*
X166850000Y-192761904D01*
X167307142Y-193561904D01*
X167307142Y-192761904D01*
X167497619Y-193638095D02*
X168107142Y-193638095D01*
X168754761Y-193561904D02*
X168488095Y-193180952D01*
X168297619Y-193561904D02*
X168297619Y-192761904D01*
X168602380Y-192761904D01*
X168678571Y-192800000D01*
X168716666Y-192838095D01*
X168754761Y-192914285D01*
X168754761Y-193028571D01*
X168716666Y-193104761D01*
X168678571Y-193142857D01*
X168602380Y-193180952D01*
X168297619Y-193180952D01*
X169097619Y-193561904D02*
X169097619Y-192761904D01*
X169402380Y-192761904D01*
X169478571Y-192800000D01*
X169516666Y-192838095D01*
X169554761Y-192914285D01*
X169554761Y-193028571D01*
X169516666Y-193104761D01*
X169478571Y-193142857D01*
X169402380Y-193180952D01*
X169097619Y-193180952D01*
%TO.C,TP1*%
X158511904Y-193126190D02*
X159311904Y-192859523D01*
X158511904Y-192592857D01*
X159311904Y-192326190D02*
X158511904Y-192326190D01*
X159311904Y-191945238D02*
X158511904Y-191945238D01*
X159311904Y-191488095D01*
X158511904Y-191488095D01*
%TO.C,TP14*%
X136983333Y-201011904D02*
X137250000Y-201811904D01*
X137516666Y-201011904D01*
X137783333Y-201011904D02*
X137783333Y-201659523D01*
X137821428Y-201735714D01*
X137859523Y-201773809D01*
X137935714Y-201811904D01*
X138088095Y-201811904D01*
X138164285Y-201773809D01*
X138202380Y-201735714D01*
X138240476Y-201659523D01*
X138240476Y-201011904D01*
X138583333Y-201773809D02*
X138697619Y-201811904D01*
X138888095Y-201811904D01*
X138964285Y-201773809D01*
X139002380Y-201735714D01*
X139040476Y-201659523D01*
X139040476Y-201583333D01*
X139002380Y-201507142D01*
X138964285Y-201469047D01*
X138888095Y-201430952D01*
X138735714Y-201392857D01*
X138659523Y-201354761D01*
X138621428Y-201316666D01*
X138583333Y-201240476D01*
X138583333Y-201164285D01*
X138621428Y-201088095D01*
X138659523Y-201050000D01*
X138735714Y-201011904D01*
X138926190Y-201011904D01*
X139040476Y-201050000D01*
X139650000Y-201392857D02*
X139764285Y-201430952D01*
X139802380Y-201469047D01*
X139840476Y-201545238D01*
X139840476Y-201659523D01*
X139802380Y-201735714D01*
X139764285Y-201773809D01*
X139688095Y-201811904D01*
X139383333Y-201811904D01*
X139383333Y-201011904D01*
X139650000Y-201011904D01*
X139726190Y-201050000D01*
X139764285Y-201088095D01*
X139802380Y-201164285D01*
X139802380Y-201240476D01*
X139764285Y-201316666D01*
X139726190Y-201354761D01*
X139650000Y-201392857D01*
X139383333Y-201392857D01*
%TO.C,TP8*%
X146800000Y-194935714D02*
X146761904Y-195011904D01*
X146761904Y-195126190D01*
X146800000Y-195240476D01*
X146876190Y-195316666D01*
X146952380Y-195354761D01*
X147104761Y-195392857D01*
X147219047Y-195392857D01*
X147371428Y-195354761D01*
X147447619Y-195316666D01*
X147523809Y-195240476D01*
X147561904Y-195126190D01*
X147561904Y-195050000D01*
X147523809Y-194935714D01*
X147485714Y-194897619D01*
X147219047Y-194897619D01*
X147219047Y-195050000D01*
X147561904Y-194173809D02*
X147561904Y-194554761D01*
X146761904Y-194554761D01*
X146761904Y-193754761D02*
X146761904Y-193602380D01*
X146800000Y-193526190D01*
X146876190Y-193450000D01*
X147028571Y-193411904D01*
X147295238Y-193411904D01*
X147447619Y-193450000D01*
X147523809Y-193526190D01*
X147561904Y-193602380D01*
X147561904Y-193754761D01*
X147523809Y-193830952D01*
X147447619Y-193907142D01*
X147295238Y-193945238D01*
X147028571Y-193945238D01*
X146876190Y-193907142D01*
X146800000Y-193830952D01*
X146761904Y-193754761D01*
X147142857Y-192802380D02*
X147180952Y-192688095D01*
X147219047Y-192650000D01*
X147295238Y-192611904D01*
X147409523Y-192611904D01*
X147485714Y-192650000D01*
X147523809Y-192688095D01*
X147561904Y-192764285D01*
X147561904Y-193069047D01*
X146761904Y-193069047D01*
X146761904Y-192802380D01*
X146800000Y-192726190D01*
X146838095Y-192688095D01*
X146914285Y-192650000D01*
X146990476Y-192650000D01*
X147066666Y-192688095D01*
X147104761Y-192726190D01*
X147142857Y-192802380D01*
X147142857Y-193069047D01*
X147333333Y-192307142D02*
X147333333Y-191926190D01*
X147561904Y-192383333D02*
X146761904Y-192116666D01*
X147561904Y-191850000D01*
X147561904Y-191202380D02*
X147561904Y-191583333D01*
X146761904Y-191583333D01*
X147638095Y-191126190D02*
X147638095Y-190516666D01*
X147142857Y-190326190D02*
X147142857Y-190059523D01*
X147561904Y-189945238D02*
X147561904Y-190326190D01*
X146761904Y-190326190D01*
X146761904Y-189945238D01*
X147561904Y-189602380D02*
X146761904Y-189602380D01*
X147561904Y-189145238D01*
X146761904Y-189145238D01*
%TO.C,TP16*%
X149190476Y-188050000D02*
X149114285Y-188011904D01*
X149000000Y-188011904D01*
X148885714Y-188050000D01*
X148809523Y-188126190D01*
X148771428Y-188202380D01*
X148733333Y-188354761D01*
X148733333Y-188469047D01*
X148771428Y-188621428D01*
X148809523Y-188697619D01*
X148885714Y-188773809D01*
X149000000Y-188811904D01*
X149076190Y-188811904D01*
X149190476Y-188773809D01*
X149228571Y-188735714D01*
X149228571Y-188469047D01*
X149076190Y-188469047D01*
X149571428Y-188811904D02*
X149571428Y-188011904D01*
X150028571Y-188811904D01*
X150028571Y-188011904D01*
X150409523Y-188811904D02*
X150409523Y-188011904D01*
X150600000Y-188011904D01*
X150714285Y-188050000D01*
X150790476Y-188126190D01*
X150828571Y-188202380D01*
X150866666Y-188354761D01*
X150866666Y-188469047D01*
X150828571Y-188621428D01*
X150790476Y-188697619D01*
X150714285Y-188773809D01*
X150600000Y-188811904D01*
X150409523Y-188811904D01*
%TO.C,TP7*%
X147711904Y-203645238D02*
X147330952Y-203911904D01*
X147711904Y-204102380D02*
X146911904Y-204102380D01*
X146911904Y-203797619D01*
X146950000Y-203721428D01*
X146988095Y-203683333D01*
X147064285Y-203645238D01*
X147178571Y-203645238D01*
X147254761Y-203683333D01*
X147292857Y-203721428D01*
X147330952Y-203797619D01*
X147330952Y-204102380D01*
X146911904Y-203302380D02*
X147559523Y-203302380D01*
X147635714Y-203264285D01*
X147673809Y-203226190D01*
X147711904Y-203150000D01*
X147711904Y-202997619D01*
X147673809Y-202921428D01*
X147635714Y-202883333D01*
X147559523Y-202845238D01*
X146911904Y-202845238D01*
X147711904Y-202464285D02*
X146911904Y-202464285D01*
X147711904Y-202007142D01*
X146911904Y-202007142D01*
X147788095Y-201816666D02*
X147788095Y-201207142D01*
X147711904Y-201016666D02*
X146911904Y-201016666D01*
X146911904Y-200711904D01*
X146950000Y-200635714D01*
X146988095Y-200597619D01*
X147064285Y-200559523D01*
X147178571Y-200559523D01*
X147254761Y-200597619D01*
X147292857Y-200635714D01*
X147330952Y-200711904D01*
X147330952Y-201016666D01*
X146950000Y-199797619D02*
X146911904Y-199873809D01*
X146911904Y-199988095D01*
X146950000Y-200102380D01*
X147026190Y-200178571D01*
X147102380Y-200216666D01*
X147254761Y-200254761D01*
X147369047Y-200254761D01*
X147521428Y-200216666D01*
X147597619Y-200178571D01*
X147673809Y-200102380D01*
X147711904Y-199988095D01*
X147711904Y-199911904D01*
X147673809Y-199797619D01*
X147635714Y-199759523D01*
X147369047Y-199759523D01*
X147369047Y-199911904D01*
%TO.C,TP10*%
X72321428Y-147942857D02*
X72054761Y-147942857D01*
X72054761Y-148361904D02*
X72054761Y-147561904D01*
X72435714Y-147561904D01*
X72702380Y-148133333D02*
X73083333Y-148133333D01*
X72626190Y-148361904D02*
X72892857Y-147561904D01*
X73159523Y-148361904D01*
X73426190Y-148361904D02*
X73426190Y-147561904D01*
X73883333Y-148361904D01*
X73883333Y-147561904D01*
X74416666Y-147561904D02*
X74492857Y-147561904D01*
X74569047Y-147600000D01*
X74607142Y-147638095D01*
X74645238Y-147714285D01*
X74683333Y-147866666D01*
X74683333Y-148057142D01*
X74645238Y-148209523D01*
X74607142Y-148285714D01*
X74569047Y-148323809D01*
X74492857Y-148361904D01*
X74416666Y-148361904D01*
X74340476Y-148323809D01*
X74302380Y-148285714D01*
X74264285Y-148209523D01*
X74226190Y-148057142D01*
X74226190Y-147866666D01*
X74264285Y-147714285D01*
X74302380Y-147638095D01*
X74340476Y-147600000D01*
X74416666Y-147561904D01*
%TO.C,TP2*%
X143161904Y-189566666D02*
X143961904Y-189300000D01*
X143161904Y-189033333D01*
X143885714Y-188309523D02*
X143923809Y-188347619D01*
X143961904Y-188461904D01*
X143961904Y-188538095D01*
X143923809Y-188652380D01*
X143847619Y-188728571D01*
X143771428Y-188766666D01*
X143619047Y-188804761D01*
X143504761Y-188804761D01*
X143352380Y-188766666D01*
X143276190Y-188728571D01*
X143200000Y-188652380D01*
X143161904Y-188538095D01*
X143161904Y-188461904D01*
X143200000Y-188347619D01*
X143238095Y-188309523D01*
X143885714Y-187509523D02*
X143923809Y-187547619D01*
X143961904Y-187661904D01*
X143961904Y-187738095D01*
X143923809Y-187852380D01*
X143847619Y-187928571D01*
X143771428Y-187966666D01*
X143619047Y-188004761D01*
X143504761Y-188004761D01*
X143352380Y-187966666D01*
X143276190Y-187928571D01*
X143200000Y-187852380D01*
X143161904Y-187738095D01*
X143161904Y-187661904D01*
X143200000Y-187547619D01*
X143238095Y-187509523D01*
%TO.C,TP17*%
X79940476Y-118450000D02*
X79864285Y-118411904D01*
X79750000Y-118411904D01*
X79635714Y-118450000D01*
X79559523Y-118526190D01*
X79521428Y-118602380D01*
X79483333Y-118754761D01*
X79483333Y-118869047D01*
X79521428Y-119021428D01*
X79559523Y-119097619D01*
X79635714Y-119173809D01*
X79750000Y-119211904D01*
X79826190Y-119211904D01*
X79940476Y-119173809D01*
X79978571Y-119135714D01*
X79978571Y-118869047D01*
X79826190Y-118869047D01*
X80321428Y-119211904D02*
X80321428Y-118411904D01*
X80778571Y-119211904D01*
X80778571Y-118411904D01*
X81159523Y-119211904D02*
X81159523Y-118411904D01*
X81350000Y-118411904D01*
X81464285Y-118450000D01*
X81540476Y-118526190D01*
X81578571Y-118602380D01*
X81616666Y-118754761D01*
X81616666Y-118869047D01*
X81578571Y-119021428D01*
X81540476Y-119097619D01*
X81464285Y-119173809D01*
X81350000Y-119211904D01*
X81159523Y-119211904D01*
%TO.C,TP4*%
X132021428Y-190057142D02*
X132630952Y-190057142D01*
X132326190Y-190361904D02*
X132326190Y-189752380D01*
X133392857Y-189561904D02*
X133011904Y-189561904D01*
X132973809Y-189942857D01*
X133011904Y-189904761D01*
X133088095Y-189866666D01*
X133278571Y-189866666D01*
X133354761Y-189904761D01*
X133392857Y-189942857D01*
X133430952Y-190019047D01*
X133430952Y-190209523D01*
X133392857Y-190285714D01*
X133354761Y-190323809D01*
X133278571Y-190361904D01*
X133088095Y-190361904D01*
X133011904Y-190323809D01*
X132973809Y-190285714D01*
X133659523Y-189561904D02*
X133926190Y-190361904D01*
X134192857Y-189561904D01*
%TO.C,TP18*%
X91609523Y-176911904D02*
X92104761Y-176911904D01*
X91838095Y-177216666D01*
X91952380Y-177216666D01*
X92028571Y-177254761D01*
X92066666Y-177292857D01*
X92104761Y-177369047D01*
X92104761Y-177559523D01*
X92066666Y-177635714D01*
X92028571Y-177673809D01*
X91952380Y-177711904D01*
X91723809Y-177711904D01*
X91647619Y-177673809D01*
X91609523Y-177635714D01*
X92333333Y-176911904D02*
X92600000Y-177711904D01*
X92866666Y-176911904D01*
X93057142Y-176911904D02*
X93552380Y-176911904D01*
X93285714Y-177216666D01*
X93400000Y-177216666D01*
X93476190Y-177254761D01*
X93514285Y-177292857D01*
X93552380Y-177369047D01*
X93552380Y-177559523D01*
X93514285Y-177635714D01*
X93476190Y-177673809D01*
X93400000Y-177711904D01*
X93171428Y-177711904D01*
X93095238Y-177673809D01*
X93057142Y-177635714D01*
%TO.C,D13*%
X80150000Y-131750000D02*
X79350000Y-131750000D01*
X80150000Y-133050000D02*
X80150000Y-131750000D01*
X79350000Y-133050000D02*
X79350000Y-131750000D01*
%TO.C,U2*%
X87600000Y-184135000D02*
X87600000Y-185435000D01*
X90400000Y-184135000D02*
X90400000Y-185135000D01*
%TO.C,U15*%
X138200000Y-199110000D02*
X137400000Y-199110000D01*
X138200000Y-195990000D02*
X137400000Y-195990000D01*
X138200000Y-199110000D02*
X140000000Y-199110000D01*
X138200000Y-195990000D02*
X139000000Y-195990000D01*
%TO.C,C49*%
X110335000Y-192095563D02*
X109270563Y-193160000D01*
X109270563Y-186340000D02*
X103515000Y-186340000D01*
X110335000Y-187404437D02*
X109270563Y-186340000D01*
X111362500Y-191597500D02*
X110575000Y-191597500D01*
X110335000Y-187404437D02*
X110335000Y-188690000D01*
X103515000Y-186340000D02*
X103515000Y-188690000D01*
X110968750Y-191991250D02*
X110968750Y-191203750D01*
X110335000Y-192095563D02*
X110335000Y-190810000D01*
X109270563Y-193160000D02*
X103515000Y-193160000D01*
X103515000Y-193160000D02*
X103515000Y-190810000D01*
%TO.C,U6*%
X97300000Y-192935000D02*
X97300000Y-194235000D01*
X100100000Y-192935000D02*
X100100000Y-193935000D01*
D15*
%TO.C,FL1*%
X152486500Y-189550000D02*
X152486500Y-194850000D01*
X153813500Y-194850000D02*
X156486500Y-194850000D01*
X156486500Y-189550000D02*
X153813500Y-189550000D01*
X157813500Y-194850000D02*
X157813500Y-189550000D01*
D11*
X158375000Y-193575000D02*
G75*
G03*
X158375000Y-193575000I-100000J0D01*
G01*
D12*
%TO.C,C55*%
X166785000Y-170160000D02*
X166785000Y-167810000D01*
X166785000Y-163340000D02*
X166785000Y-165690000D01*
X159965000Y-169095563D02*
X161029437Y-170160000D01*
X161029437Y-170160000D02*
X166785000Y-170160000D01*
X159965000Y-169095563D02*
X159965000Y-167810000D01*
X157931250Y-166356250D02*
X157931250Y-167143750D01*
X157537500Y-166750000D02*
X158325000Y-166750000D01*
X159965000Y-164404437D02*
X159965000Y-165690000D01*
X161029437Y-163340000D02*
X166785000Y-163340000D01*
X159965000Y-164404437D02*
X161029437Y-163340000D01*
%TO.C,C50*%
X141445563Y-172260000D02*
X140160000Y-172260000D01*
X142510000Y-165440000D02*
X140160000Y-165440000D01*
X141445563Y-172260000D02*
X142510000Y-171195563D01*
X135690000Y-165440000D02*
X138040000Y-165440000D01*
X142510000Y-171195563D02*
X142510000Y-165440000D01*
X136858750Y-172893750D02*
X137646250Y-172893750D01*
X136754437Y-172260000D02*
X135690000Y-171195563D01*
X136754437Y-172260000D02*
X138040000Y-172260000D01*
X137252500Y-173287500D02*
X137252500Y-172500000D01*
X135690000Y-171195563D02*
X135690000Y-165440000D01*
%TO.C,D12*%
X78950000Y-174050000D02*
X78150000Y-174050000D01*
X78150000Y-175350000D02*
X78150000Y-174050000D01*
X78950000Y-175350000D02*
X78950000Y-174050000D01*
%TO.C,J1*%
X115965000Y-209935000D02*
X115965000Y-207135000D01*
X115665000Y-207135000D02*
X115965000Y-207135000D01*
X115665000Y-207135000D02*
X115665000Y-205585000D01*
X123665000Y-209935000D02*
X123665000Y-207135000D01*
X123965000Y-207135000D02*
X123965000Y-205585000D01*
X118915000Y-203885000D02*
X118515000Y-204335000D01*
X123665000Y-207135000D02*
X123965000Y-207135000D01*
X118115000Y-203885000D02*
X118915000Y-203885000D01*
X118515000Y-204335000D02*
X118115000Y-203885000D01*
%TO.C,D16*%
X77400000Y-147100000D02*
X77400000Y-148400000D01*
X76600000Y-147100000D02*
X76600000Y-148400000D01*
X76600000Y-148400000D02*
X77400000Y-148400000D01*
%TO.C,SW1*%
X143035000Y-206097500D02*
X139635000Y-206097500D01*
X137995000Y-206097500D02*
X137995000Y-205867500D01*
X137475000Y-209767500D02*
X137475000Y-205867500D01*
X138535000Y-206097500D02*
X137995000Y-206097500D01*
X137475000Y-203267500D02*
X137475000Y-202757500D01*
X144675000Y-206097500D02*
X144675000Y-205867500D01*
X144675000Y-206097500D02*
X144135000Y-206097500D01*
X144675000Y-203267500D02*
X144675000Y-202757500D01*
X145195000Y-209767500D02*
X145195000Y-205867500D01*
X137995000Y-203267500D02*
X137995000Y-202757500D01*
X145195000Y-209767500D02*
X137475000Y-209767500D01*
X145195000Y-203267500D02*
X145195000Y-202757500D01*
X145195000Y-202757500D02*
X144675000Y-202757500D01*
X137995000Y-202757500D02*
X137475000Y-202757500D01*
%TO.C,Q7*%
X165450000Y-188900000D02*
X165350000Y-188900000D01*
X165450000Y-188900000D02*
X165450000Y-190850000D01*
X163150000Y-190850000D02*
X163150000Y-189350000D01*
%TO.C,Q1*%
X78770000Y-123910000D02*
X80800000Y-123910000D01*
X80180000Y-121590000D02*
X78770000Y-121590000D01*
X78770000Y-123910000D02*
X78770000Y-123250000D01*
X78770000Y-122250000D02*
X78770000Y-121590000D01*
%TO.C,D4*%
X120800000Y-197350000D02*
X120800000Y-198150000D01*
%TO.C,Y1*%
X140862500Y-155262500D02*
X140862500Y-151262500D01*
X137562500Y-155262500D02*
X140862500Y-155262500D01*
%TO.C,D23*%
X158625000Y-172907500D02*
X159425000Y-172907500D01*
X158625000Y-171607500D02*
X158625000Y-172907500D01*
X159425000Y-171607500D02*
X159425000Y-172907500D01*
D10*
%TO.C,U7*%
X150787500Y-151637500D02*
X151087500Y-151937500D01*
X151087500Y-158337500D02*
X151487500Y-158337500D01*
X144337500Y-158687500D02*
X143987500Y-158337500D01*
X150787500Y-151637500D02*
X150737500Y-151587500D01*
X151087500Y-158337500D02*
X150737500Y-158687500D01*
X144337500Y-151587500D02*
X143987500Y-151937500D01*
D12*
%TO.C,D15*%
X77550000Y-123650000D02*
X77550000Y-122350000D01*
X76750000Y-123650000D02*
X76750000Y-122350000D01*
X77550000Y-122350000D02*
X76750000Y-122350000D01*
%TO.C,L1*%
X157050000Y-163100000D02*
X157050000Y-158000000D01*
X151950000Y-163100000D02*
X151950000Y-158000000D01*
%TO.C,D8*%
X82125000Y-110400000D02*
X82125000Y-111200000D01*
%TO.C,D21*%
X137400000Y-176325000D02*
X137400000Y-175025000D01*
X136600000Y-176325000D02*
X136600000Y-175025000D01*
X137400000Y-175025000D02*
X136600000Y-175025000D01*
%TO.C,D26*%
X160050000Y-188775000D02*
X160050000Y-186225000D01*
X158350000Y-188775000D02*
X158350000Y-186225000D01*
X158350000Y-188775000D02*
X160050000Y-188775000D01*
%TO.C,U1*%
X82550000Y-184150000D02*
X82550000Y-185450000D01*
X85350000Y-184150000D02*
X85350000Y-185150000D01*
%TO.C,L2*%
X135450000Y-182000000D02*
X137000000Y-182000000D01*
X135450000Y-189000000D02*
X137000000Y-189000000D01*
X135450000Y-189000000D02*
X135450000Y-182000000D01*
X142550000Y-182000000D02*
X142550000Y-189000000D01*
X142550000Y-182000000D02*
X141000000Y-182000000D01*
X142550000Y-189000000D02*
X141000000Y-189000000D01*
%TO.C,U5*%
X112350000Y-192800000D02*
X112350000Y-194100000D01*
X115150000Y-192800000D02*
X115150000Y-193800000D01*
%TO.C,D25*%
X162750000Y-189300000D02*
X161450000Y-189300000D01*
X161450000Y-188500000D02*
X161450000Y-189300000D01*
X162750000Y-188500000D02*
X161450000Y-188500000D01*
%TO.C,D9*%
X88575000Y-110400000D02*
X88575000Y-111200000D01*
%TO.C,C10*%
X93510000Y-157240000D02*
X91160000Y-157240000D01*
X86690000Y-162995563D02*
X86690000Y-157240000D01*
X87858750Y-164693750D02*
X88646250Y-164693750D01*
X87754437Y-164060000D02*
X89040000Y-164060000D01*
X86690000Y-157240000D02*
X89040000Y-157240000D01*
X92445563Y-164060000D02*
X91160000Y-164060000D01*
X93510000Y-162995563D02*
X93510000Y-157240000D01*
X88252500Y-165087500D02*
X88252500Y-164300000D01*
X92445563Y-164060000D02*
X93510000Y-162995563D01*
X87754437Y-164060000D02*
X86690000Y-162995563D01*
%TO.C,D3*%
X119520000Y-201300000D02*
X119520000Y-202100000D01*
%TO.C,D22*%
X158000000Y-163725000D02*
X158000000Y-164525000D01*
X159300000Y-164525000D02*
X158000000Y-164525000D01*
X159300000Y-163725000D02*
X158000000Y-163725000D01*
%TO.C,J6*%
X75505000Y-167105000D02*
X75505000Y-169705000D01*
X75505000Y-169705000D02*
X72905000Y-169705000D01*
X78105000Y-169705000D02*
X76775000Y-169705000D01*
X78105000Y-156885000D02*
X72905000Y-156885000D01*
X78105000Y-167105000D02*
X75505000Y-167105000D01*
X78105000Y-167105000D02*
X78105000Y-156885000D01*
X72905000Y-169705000D02*
X72905000Y-156885000D01*
X78105000Y-168375000D02*
X78105000Y-169705000D01*
%TO.C,D10*%
X114950000Y-208200000D02*
X113650000Y-208200000D01*
X113650000Y-208200000D02*
X113650000Y-209000000D01*
X114950000Y-209000000D02*
X113650000Y-209000000D01*
%TO.C,Module1*%
X129270000Y-171500000D02*
X129270000Y-170500000D01*
X99130000Y-171500000D02*
X99130000Y-170500000D01*
X129270000Y-171500000D02*
X133050000Y-171500000D01*
X95350000Y-171500000D02*
X99130000Y-171500000D01*
X95350000Y-148700000D02*
X99130000Y-148700000D01*
X95350000Y-171500000D02*
X95350000Y-170500000D01*
X134200000Y-181600000D02*
X134200000Y-133600000D01*
X129270000Y-148700000D02*
X129270000Y-149700000D01*
X129270000Y-148700000D02*
X133050000Y-148700000D01*
X133050000Y-171500000D02*
X133050000Y-170500000D01*
X133050000Y-148700000D02*
X133050000Y-149700000D01*
X130700000Y-130100000D02*
X97700000Y-130100000D01*
X94200000Y-133600000D02*
X94200000Y-181600000D01*
X97700000Y-185100000D02*
X130700000Y-185100000D01*
X97700000Y-185100000D02*
G75*
G02*
X94200000Y-181600000I0J3500000D01*
G01*
X94200000Y-133600000D02*
G75*
G02*
X97700000Y-130100000I3500000J0D01*
G01*
X130700000Y-130100000D02*
G75*
G02*
X134200000Y-133600000I0J-3500000D01*
G01*
X134200000Y-181600000D02*
G75*
G02*
X130700000Y-185100000I-3500000J0D01*
G01*
%TO.C,U10*%
X150197500Y-169050000D02*
X150197500Y-166302500D01*
X150197500Y-169050000D02*
X150197500Y-171797500D01*
X144702500Y-171797500D02*
X144985000Y-171797500D01*
X144702500Y-169050000D02*
X144702500Y-171797500D01*
X150197500Y-166302500D02*
X149915000Y-166302500D01*
X150197500Y-171797500D02*
X149915000Y-171797500D01*
X144702500Y-166302500D02*
X144985000Y-166302500D01*
X144985000Y-171797500D02*
X144985000Y-173450000D01*
X144702500Y-169050000D02*
X144702500Y-166302500D01*
%TO.C,D11*%
X78950000Y-171500000D02*
X78150000Y-171500000D01*
X78150000Y-172800000D02*
X78150000Y-171500000D01*
X78950000Y-172800000D02*
X78950000Y-171500000D01*
D10*
%TO.C,J3*%
X95175000Y-194275000D02*
X95175000Y-188200000D01*
X79025001Y-194275000D02*
X79025001Y-188200000D01*
X79025001Y-209800000D02*
X79025001Y-197475000D01*
X79025001Y-188200000D02*
X95175000Y-188200000D01*
X95175000Y-209800000D02*
X95175000Y-197475000D01*
X79025000Y-209800000D02*
X95175000Y-209800000D01*
D12*
%TO.C,Q2*%
X75840000Y-149520000D02*
X75840000Y-151550000D01*
X77500000Y-149520000D02*
X78160000Y-149520000D01*
X78160000Y-150930000D02*
X78160000Y-149520000D01*
X75840000Y-149520000D02*
X76500000Y-149520000D01*
%TO.C,D6*%
X119850000Y-198150000D02*
X119850000Y-197350000D01*
%TO.C,D24*%
X164150000Y-194000000D02*
X161600000Y-194000000D01*
X164150000Y-192300000D02*
X161600000Y-192300000D01*
X164150000Y-194000000D02*
X164150000Y-192300000D01*
%TO.C,J11*%
X157000000Y-199650000D02*
X159300000Y-199650000D01*
X159300000Y-214250000D02*
X159300000Y-205550000D01*
X150100000Y-199650000D02*
X150100000Y-214250000D01*
X152400000Y-199650000D02*
X150100000Y-199650000D01*
X159300000Y-199650000D02*
X159300000Y-201150000D01*
X150100000Y-214250000D02*
X159300000Y-214250000D01*
%TO.C,D17*%
X149562500Y-209600000D02*
X149562500Y-208800000D01*
%TO.C,C8*%
X92341250Y-166306250D02*
X91553750Y-166306250D01*
X93510000Y-173760000D02*
X91160000Y-173760000D01*
X87754437Y-166940000D02*
X86690000Y-168004437D01*
X86690000Y-173760000D02*
X89040000Y-173760000D01*
X87754437Y-166940000D02*
X89040000Y-166940000D01*
X91947500Y-165912500D02*
X91947500Y-166700000D01*
X93510000Y-168004437D02*
X93510000Y-173760000D01*
X92445563Y-166940000D02*
X93510000Y-168004437D01*
X92445563Y-166940000D02*
X91160000Y-166940000D01*
X86690000Y-168004437D02*
X86690000Y-173760000D01*
%TO.C,Q6*%
X164630000Y-187550000D02*
X164630000Y-188210000D01*
X164630000Y-185890000D02*
X164630000Y-186550000D01*
X164630000Y-185890000D02*
X162600000Y-185890000D01*
X163220000Y-188210000D02*
X164630000Y-188210000D01*
%TO.C,U4*%
X145760000Y-199450000D02*
X145760000Y-198050000D01*
X143440000Y-198050000D02*
X143440000Y-199950000D01*
%TO.C,J8*%
X78680000Y-135920000D02*
X72660000Y-135920000D01*
X73660000Y-144920000D02*
X72660000Y-144920000D01*
X72660000Y-137300000D02*
X73660000Y-137300000D01*
X74190000Y-137550000D02*
X74190000Y-144670000D01*
X78680000Y-144120000D02*
X78080000Y-144120000D01*
X77650000Y-135630000D02*
X73650000Y-135630000D01*
X78080000Y-143180000D02*
X78680000Y-143180000D01*
X78080000Y-145720000D02*
X78680000Y-145720000D01*
X78680000Y-141580000D02*
X78080000Y-141580000D01*
X78680000Y-139040000D02*
X78080000Y-139040000D01*
X78080000Y-141580000D02*
X78080000Y-143180000D01*
X73660000Y-137300000D02*
X73660000Y-144920000D01*
X72660000Y-146300000D02*
X78680000Y-146300000D01*
X78080000Y-136500000D02*
X78080000Y-138100000D01*
X72660000Y-137550000D02*
X73660000Y-137550000D01*
X72660000Y-135920000D02*
X72660000Y-146300000D01*
X78080000Y-138100000D02*
X78680000Y-138100000D01*
X73660000Y-137300000D02*
X74190000Y-137550000D01*
X74190000Y-144670000D02*
X73660000Y-144920000D01*
X78080000Y-140640000D02*
X78680000Y-140640000D01*
X78080000Y-144120000D02*
X78080000Y-145720000D01*
X78080000Y-139040000D02*
X78080000Y-140640000D01*
X78680000Y-136500000D02*
X78080000Y-136500000D01*
X78680000Y-146300000D02*
X78680000Y-135920000D01*
X72660000Y-144670000D02*
X73660000Y-144670000D01*
%TO.C,J5*%
X72920000Y-171960000D02*
X72920000Y-170630000D01*
X72920000Y-173230000D02*
X72920000Y-178370000D01*
X75580000Y-173230000D02*
X75580000Y-178370000D01*
X72920000Y-173230000D02*
X75580000Y-173230000D01*
X72920000Y-170630000D02*
X74250000Y-170630000D01*
X72920000Y-178370000D02*
X75580000Y-178370000D01*
%TO.C,Q3*%
X122270000Y-192610000D02*
X123680000Y-192610000D01*
X123680000Y-190290000D02*
X121650000Y-190290000D01*
X123680000Y-191950000D02*
X123680000Y-192610000D01*
X123680000Y-190290000D02*
X123680000Y-190950000D01*
%TO.C,D2*%
X134200000Y-197700000D02*
X135000000Y-197700000D01*
D10*
%TO.C,U14*%
X121985000Y-197025000D02*
X118635000Y-197025000D01*
X121985000Y-196800000D02*
X123210000Y-196800000D01*
X121985000Y-197025000D02*
X121985000Y-196800000D01*
X118635000Y-197025000D02*
X118635000Y-196725000D01*
X118635000Y-193675000D02*
X118635000Y-193975000D01*
X121985000Y-193675000D02*
X121985000Y-193975000D01*
X121985000Y-193675000D02*
X118635000Y-193675000D01*
D12*
%TO.C,J4*%
X113055000Y-199925000D02*
X113055000Y-206225000D01*
X100185000Y-196215000D02*
X111445000Y-196215000D01*
X112945000Y-196215000D02*
X113055000Y-196215000D01*
X100185000Y-200625000D02*
X100185000Y-206225000D01*
X100185000Y-197375000D02*
X100185000Y-196215000D01*
X113055000Y-196215000D02*
X113055000Y-198025000D01*
%TO.C,D1*%
X118850000Y-202900000D02*
X118850000Y-202400000D01*
%TO.C,C56*%
X159940000Y-171804437D02*
X159940000Y-173090000D01*
X159940000Y-176495563D02*
X159940000Y-175210000D01*
X161004437Y-177560000D02*
X166760000Y-177560000D01*
X159940000Y-176495563D02*
X161004437Y-177560000D01*
X157656250Y-174100000D02*
X158443750Y-174100000D01*
X166760000Y-170740000D02*
X166760000Y-173090000D01*
X159940000Y-171804437D02*
X161004437Y-170740000D01*
X166760000Y-177560000D02*
X166760000Y-175210000D01*
X161004437Y-170740000D02*
X166760000Y-170740000D01*
X158050000Y-173706250D02*
X158050000Y-174493750D01*
%TO.C,J2*%
X126140000Y-211360000D02*
X126140000Y-200910000D01*
X126140000Y-211360000D02*
X133440000Y-211360000D01*
X133440000Y-198410000D02*
X133440000Y-193910000D01*
X133820000Y-199430000D02*
X133820000Y-198430000D01*
X128290000Y-191860000D02*
X131290000Y-191860000D01*
X133440000Y-211360000D02*
X133440000Y-200910000D01*
X126140000Y-198410000D02*
X126140000Y-193910000D01*
%TO.C,U13*%
X146475000Y-181700000D02*
X146475000Y-182200000D01*
X146475000Y-184200000D02*
X146475000Y-184700000D01*
X144125000Y-182200000D02*
X144125000Y-181700000D01*
X144125000Y-184700000D02*
X144125000Y-184200000D01*
D13*
X147000000Y-184200000D02*
G75*
G03*
X147000000Y-184200000I-100000J0D01*
G01*
D12*
%TO.C,D5*%
X119500000Y-202100000D02*
X119500000Y-201300000D01*
%TO.C,U3*%
X84150000Y-115710000D02*
X84950000Y-115710000D01*
X84150000Y-112590000D02*
X82350000Y-112590000D01*
X84150000Y-115710000D02*
X83350000Y-115710000D01*
X84150000Y-112590000D02*
X84950000Y-112590000D01*
%TO.C,Q5*%
X160500000Y-192000000D02*
X160600000Y-192000000D01*
X162800000Y-190050000D02*
X162800000Y-191550000D01*
X160500000Y-192000000D02*
X160500000Y-190050000D01*
%TO.C,D7*%
X144550000Y-201550000D02*
X144550000Y-202350000D01*
%TO.C,C66*%
X151190000Y-188110000D02*
X151190000Y-185760000D01*
X160393750Y-184700000D02*
X159606250Y-184700000D01*
X156945563Y-188110000D02*
X151190000Y-188110000D01*
X156945563Y-181290000D02*
X151190000Y-181290000D01*
X158010000Y-182354437D02*
X158010000Y-183640000D01*
X160000000Y-185093750D02*
X160000000Y-184306250D01*
X158010000Y-182354437D02*
X156945563Y-181290000D01*
X158010000Y-187045563D02*
X158010000Y-185760000D01*
X158010000Y-187045563D02*
X156945563Y-188110000D01*
X151190000Y-181290000D02*
X151190000Y-183640000D01*
%TO.C,D14*%
X79200000Y-139200000D02*
X80000000Y-139200000D01*
X80000000Y-137900000D02*
X80000000Y-139200000D01*
X79200000Y-137900000D02*
X79200000Y-139200000D01*
%TD*%
%LPC*%
D16*
%TO.C,FL1*%
X152700000Y-191850000D02*
X152700000Y-189350000D01*
X152700000Y-189350000D02*
X153600000Y-189350000D01*
X153600000Y-189350000D02*
X153600000Y-190650000D01*
X153600000Y-190650000D02*
X154600000Y-190650000D01*
X154600000Y-190650000D02*
X154600000Y-191850000D01*
X154600000Y-191850000D02*
X152700000Y-191850000D01*
G36*
X153600000Y-190650000D02*
G01*
X154600000Y-190650000D01*
X154600000Y-191850000D01*
X152700000Y-191850000D01*
X152700000Y-189350000D01*
X153600000Y-189350000D01*
X153600000Y-190650000D01*
G37*
X153600000Y-190650000D02*
X154600000Y-190650000D01*
X154600000Y-191850000D01*
X152700000Y-191850000D01*
X152700000Y-189350000D01*
X153600000Y-189350000D01*
X153600000Y-190650000D01*
X157600000Y-191850000D02*
X157600000Y-189350000D01*
X157600000Y-189350000D02*
X156700000Y-189350000D01*
X156700000Y-189350000D02*
X156700000Y-190650000D01*
X156700000Y-190650000D02*
X155700000Y-190650000D01*
X155700000Y-190650000D02*
X155700000Y-191850000D01*
X155700000Y-191850000D02*
X157600000Y-191850000D01*
G36*
X157600000Y-191850000D02*
G01*
X155700000Y-191850000D01*
X155700000Y-190650000D01*
X156700000Y-190650000D01*
X156700000Y-189350000D01*
X157600000Y-189350000D01*
X157600000Y-191850000D01*
G37*
X157600000Y-191850000D02*
X155700000Y-191850000D01*
X155700000Y-190650000D01*
X156700000Y-190650000D01*
X156700000Y-189350000D01*
X157600000Y-189350000D01*
X157600000Y-191850000D01*
X157600000Y-192550000D02*
X157600000Y-195050000D01*
X157600000Y-195050000D02*
X156700000Y-195050000D01*
X156700000Y-195050000D02*
X156700000Y-193750000D01*
X156700000Y-193750000D02*
X155700000Y-193750000D01*
X155700000Y-193750000D02*
X155700000Y-192550000D01*
X155700000Y-192550000D02*
X157600000Y-192550000D01*
G36*
X157600000Y-195050000D02*
G01*
X156700000Y-195050000D01*
X156700000Y-193750000D01*
X155700000Y-193750000D01*
X155700000Y-192550000D01*
X157600000Y-192550000D01*
X157600000Y-195050000D01*
G37*
X157600000Y-195050000D02*
X156700000Y-195050000D01*
X156700000Y-193750000D01*
X155700000Y-193750000D01*
X155700000Y-192550000D01*
X157600000Y-192550000D01*
X157600000Y-195050000D01*
X152700000Y-192550000D02*
X152700000Y-195050000D01*
X152700000Y-195050000D02*
X153600000Y-195050000D01*
X153600000Y-195050000D02*
X153600000Y-193750000D01*
X153600000Y-193750000D02*
X154600000Y-193750000D01*
X154600000Y-193750000D02*
X154600000Y-192550000D01*
X154600000Y-192550000D02*
X152700000Y-192550000D01*
G36*
X154600000Y-193750000D02*
G01*
X153600000Y-193750000D01*
X153600000Y-195050000D01*
X152700000Y-195050000D01*
X152700000Y-192550000D01*
X154600000Y-192550000D01*
X154600000Y-193750000D01*
G37*
X154600000Y-193750000D02*
X153600000Y-193750000D01*
X153600000Y-195050000D01*
X152700000Y-195050000D01*
X152700000Y-192550000D01*
X154600000Y-192550000D01*
X154600000Y-193750000D01*
%TD*%
D17*
%TO.C,J12*%
X152050000Y-197250000D03*
D18*
X157450000Y-197250000D03*
%TD*%
D19*
%TO.C,D13*%
X79750000Y-132130000D03*
X79750000Y-132970000D03*
%TD*%
D20*
%TO.C,TP5*%
X168450000Y-188000000D03*
%TD*%
D21*
%TO.C,U2*%
X88000000Y-185020000D03*
X88500000Y-185020000D03*
D22*
X89000000Y-185020000D03*
D21*
X89500000Y-185020000D03*
X90000000Y-185020000D03*
X90000000Y-184250000D03*
X89500000Y-184250000D03*
D22*
X89000000Y-184250000D03*
D21*
X88500000Y-184250000D03*
X88000000Y-184250000D03*
%TD*%
D23*
%TO.C,R27*%
X160700000Y-188960000D03*
X160700000Y-187940000D03*
%TD*%
D20*
%TO.C,TP9*%
X75700000Y-122700000D03*
%TD*%
D24*
%TO.C,U15*%
X139337500Y-198500000D03*
X139337500Y-197550000D03*
X139337500Y-196600000D03*
X137062500Y-196600000D03*
X137062500Y-198500000D03*
%TD*%
D25*
%TO.C,R10*%
X77190000Y-152500000D03*
X78210000Y-152500000D03*
%TD*%
D26*
%TO.C,C2*%
X116650000Y-196780000D03*
X116650000Y-195820000D03*
%TD*%
D27*
%TO.C,C49*%
X109725000Y-189750000D03*
X104125000Y-189750000D03*
%TD*%
D23*
%TO.C,R30*%
X145700000Y-186460000D03*
X145700000Y-185440000D03*
%TD*%
D21*
%TO.C,U6*%
X97700000Y-193820000D03*
X98200000Y-193820000D03*
D22*
X98700000Y-193820000D03*
D21*
X99200000Y-193820000D03*
X99700000Y-193820000D03*
X99700000Y-193050000D03*
X99200000Y-193050000D03*
D22*
X98700000Y-193050000D03*
D21*
X98200000Y-193050000D03*
X97700000Y-193050000D03*
%TD*%
D28*
%TO.C,C15*%
X113970000Y-206700000D03*
X114930000Y-206700000D03*
%TD*%
D29*
%TO.C,FL1*%
X156225000Y-191325000D03*
%TD*%
D30*
%TO.C,R3*%
X78700000Y-184140000D03*
X78700000Y-185160000D03*
%TD*%
D20*
%TO.C,TP6*%
X165150000Y-153250000D03*
%TD*%
D31*
%TO.C,C55*%
X160575000Y-166750000D03*
X166175000Y-166750000D03*
%TD*%
D23*
%TO.C,R31*%
X166100000Y-188210000D03*
X166100000Y-187190000D03*
%TD*%
%TO.C,R2*%
X116600000Y-200610000D03*
X116600000Y-199590000D03*
%TD*%
D32*
%TO.C,C50*%
X139100000Y-171650000D03*
X139100000Y-166050000D03*
%TD*%
D28*
%TO.C,C28*%
X152277500Y-154917500D03*
X153237500Y-154917500D03*
%TD*%
D33*
%TO.C,C68*%
X71900000Y-169720000D03*
X71900000Y-170680000D03*
%TD*%
D34*
%TO.C,C58*%
X148750000Y-182350000D03*
X148750000Y-184250000D03*
%TD*%
D19*
%TO.C,D12*%
X78550000Y-174430000D03*
X78550000Y-175270000D03*
%TD*%
D35*
%TO.C,H3*%
X166500000Y-113500000D03*
%TD*%
D25*
%TO.C,R16*%
X121840000Y-189650000D03*
X122860000Y-189650000D03*
%TD*%
D20*
%TO.C,TP11*%
X158800000Y-162350000D03*
%TD*%
D34*
%TO.C,C6*%
X135150000Y-198500000D03*
X135150000Y-200400000D03*
%TD*%
D23*
%TO.C,R7*%
X81750000Y-124410000D03*
X81750000Y-123390000D03*
%TD*%
D30*
%TO.C,R6*%
X89300000Y-111790000D03*
X89300000Y-112810000D03*
%TD*%
D33*
%TO.C,C27*%
X143950000Y-164920000D03*
X143950000Y-165880000D03*
%TD*%
D36*
%TO.C,J1*%
X118515000Y-205435000D03*
X119165000Y-205435000D03*
X119815000Y-205435000D03*
X120465000Y-205435000D03*
X121115000Y-205435000D03*
D37*
X116865000Y-206635000D03*
D38*
X117085000Y-208315000D03*
D37*
X122815000Y-206635000D03*
D38*
X122545000Y-208315000D03*
D39*
X118855000Y-208585000D03*
D40*
X122565000Y-207385000D03*
X117085000Y-207385000D03*
D41*
X122235000Y-205315000D03*
D42*
X122715000Y-205315000D03*
D39*
X120775000Y-208585000D03*
D41*
X117395000Y-205315000D03*
D42*
X116965000Y-205335000D03*
%TD*%
D23*
%TO.C,R13*%
X147350000Y-148210000D03*
X147350000Y-147190000D03*
%TD*%
D43*
%TO.C,D16*%
X77000000Y-148020000D03*
X77000000Y-147180000D03*
%TD*%
D26*
%TO.C,C5*%
X141700000Y-198480000D03*
X141700000Y-197520000D03*
%TD*%
D44*
%TO.C,SW1*%
X137825000Y-204577500D03*
X144835000Y-204577500D03*
D45*
X143585000Y-207067500D03*
X139085000Y-207067500D03*
%TD*%
D46*
%TO.C,Q7*%
X164625000Y-190100000D03*
D47*
X163650000Y-189175000D03*
X163650000Y-191025000D03*
D48*
X163650000Y-190140000D03*
%TD*%
D49*
%TO.C,Q1*%
X80500000Y-123400000D03*
X80500000Y-122100000D03*
X78500000Y-122750000D03*
%TD*%
D23*
%TO.C,R22*%
X145400000Y-180910000D03*
X145400000Y-179890000D03*
%TD*%
D50*
%TO.C,D4*%
X121180000Y-197750000D03*
X122020000Y-197750000D03*
%TD*%
D51*
%TO.C,Y1*%
X140062500Y-154362500D03*
X140062500Y-152162500D03*
X138362500Y-152162500D03*
X138362500Y-154362500D03*
%TD*%
D43*
%TO.C,D23*%
X159025000Y-172527500D03*
X159025000Y-171687500D03*
%TD*%
D23*
%TO.C,R26*%
X143500000Y-180910000D03*
X143500000Y-179890000D03*
%TD*%
D52*
%TO.C,U7*%
X150987500Y-157887500D03*
X150987500Y-157387500D03*
X150987500Y-156887500D03*
X150987500Y-156387500D03*
X150987500Y-155887500D03*
X150987500Y-155387500D03*
X150987500Y-154887500D03*
X150987500Y-154387500D03*
X150987500Y-153887500D03*
X150987500Y-153387500D03*
X150987500Y-152887500D03*
X150987500Y-152387500D03*
D53*
X150287500Y-151687500D03*
X149787500Y-151687500D03*
X149287500Y-151687500D03*
X148787500Y-151687500D03*
X148287500Y-151687500D03*
X147787500Y-151687500D03*
X147287500Y-151687500D03*
X146787500Y-151687500D03*
X146287500Y-151687500D03*
X145787500Y-151687500D03*
X145287500Y-151687500D03*
X144787500Y-151687500D03*
D52*
X144087500Y-152387500D03*
X144087500Y-152887500D03*
X144087500Y-153387500D03*
X144087500Y-153887500D03*
X144087500Y-154387500D03*
X144087500Y-154887500D03*
X144087500Y-155387500D03*
X144087500Y-155887500D03*
X144087500Y-156387500D03*
X144087500Y-156887500D03*
X144087500Y-157387500D03*
X144087500Y-157887500D03*
D53*
X144787500Y-158587500D03*
X145287500Y-158587500D03*
X145787500Y-158587500D03*
X146287500Y-158587500D03*
X146787500Y-158587500D03*
X147287500Y-158587500D03*
X147787500Y-158587500D03*
X148287500Y-158587500D03*
X148787500Y-158587500D03*
X149287500Y-158587500D03*
X149787500Y-158587500D03*
X150287500Y-158587500D03*
D54*
X147537500Y-155137500D03*
%TD*%
D19*
%TO.C,D15*%
X77150000Y-122730000D03*
X77150000Y-123570000D03*
%TD*%
D55*
%TO.C,L1*%
X154500000Y-162350000D03*
X154500000Y-158750000D03*
%TD*%
D20*
%TO.C,TP3*%
X164950000Y-193150000D03*
%TD*%
D56*
%TO.C,D8*%
X82850000Y-110800000D03*
X85250000Y-110800000D03*
%TD*%
D30*
%TO.C,R23*%
X146350000Y-179890000D03*
X146350000Y-180910000D03*
%TD*%
D28*
%TO.C,C13*%
X144120000Y-196650000D03*
X145080000Y-196650000D03*
%TD*%
D26*
%TO.C,C17*%
X80750000Y-138880000D03*
X80750000Y-137920000D03*
%TD*%
D19*
%TO.C,D21*%
X137000000Y-175405000D03*
X137000000Y-176245000D03*
%TD*%
D35*
%TO.C,H4*%
X73500000Y-113500000D03*
%TD*%
D57*
%TO.C,D26*%
X159200000Y-188325000D03*
X159200000Y-186225000D03*
%TD*%
D21*
%TO.C,U1*%
X82950000Y-185035000D03*
X83450000Y-185035000D03*
D22*
X83950000Y-185035000D03*
D21*
X84450000Y-185035000D03*
X84950000Y-185035000D03*
X84950000Y-184265000D03*
X84450000Y-184265000D03*
D22*
X83950000Y-184265000D03*
D21*
X83450000Y-184265000D03*
X82950000Y-184265000D03*
%TD*%
D58*
%TO.C,L2*%
X139000000Y-182575000D03*
X139000000Y-188425000D03*
%TD*%
D25*
%TO.C,R8*%
X75280000Y-152500000D03*
X76300000Y-152500000D03*
%TD*%
D21*
%TO.C,U5*%
X112750000Y-193685000D03*
X113250000Y-193685000D03*
D22*
X113750000Y-193685000D03*
D21*
X114250000Y-193685000D03*
X114750000Y-193685000D03*
X114750000Y-192915000D03*
X114250000Y-192915000D03*
D22*
X113750000Y-192915000D03*
D21*
X113250000Y-192915000D03*
X112750000Y-192915000D03*
%TD*%
D25*
%TO.C,R35*%
X121840000Y-188400000D03*
X122860000Y-188400000D03*
%TD*%
D59*
%TO.C,C36*%
X143780000Y-150450000D03*
X142820000Y-150450000D03*
%TD*%
D35*
%TO.C,H2*%
X73500000Y-206500000D03*
%TD*%
D25*
%TO.C,R20*%
X76590000Y-174450000D03*
X77610000Y-174450000D03*
%TD*%
D35*
%TO.C,H1*%
X166500000Y-206500000D03*
%TD*%
D60*
%TO.C,FB6*%
X158250000Y-177362500D03*
X158250000Y-178937500D03*
%TD*%
D25*
%TO.C,R14*%
X146530000Y-208200000D03*
X147550000Y-208200000D03*
%TD*%
D33*
%TO.C,C38*%
X147657500Y-159887500D03*
X147657500Y-160847500D03*
%TD*%
D59*
%TO.C,C33*%
X142937500Y-158767500D03*
X141977500Y-158767500D03*
%TD*%
D61*
%TO.C,FID3*%
X73500000Y-200000000D03*
%TD*%
D50*
%TO.C,D25*%
X161830000Y-188900000D03*
X162670000Y-188900000D03*
%TD*%
D61*
%TO.C,FID1*%
X166500000Y-120000000D03*
%TD*%
D30*
%TO.C,R24*%
X144450000Y-179890000D03*
X144450000Y-180910000D03*
%TD*%
D56*
%TO.C,D9*%
X89300000Y-110800000D03*
X91700000Y-110800000D03*
%TD*%
D32*
%TO.C,C10*%
X90100000Y-163450000D03*
X90100000Y-157850000D03*
%TD*%
D28*
%TO.C,C11*%
X85270000Y-111850000D03*
X86230000Y-111850000D03*
%TD*%
D60*
%TO.C,FB1*%
X82150000Y-131112500D03*
X82150000Y-132687500D03*
%TD*%
D33*
%TO.C,C39*%
X148607500Y-159887500D03*
X148607500Y-160847500D03*
%TD*%
D50*
%TO.C,D3*%
X119900000Y-201700000D03*
X120740000Y-201700000D03*
%TD*%
%TO.C,D22*%
X158380000Y-164125000D03*
X159220000Y-164125000D03*
%TD*%
D30*
%TO.C,R4*%
X80100000Y-184140000D03*
X80100000Y-185160000D03*
%TD*%
D28*
%TO.C,C34*%
X152277500Y-152117500D03*
X153237500Y-152117500D03*
%TD*%
%TO.C,C14*%
X113970000Y-207650000D03*
X114930000Y-207650000D03*
%TD*%
D61*
%TO.C,FID5*%
X73500000Y-120000000D03*
%TD*%
D28*
%TO.C,C32*%
X152277500Y-153017500D03*
X153237500Y-153017500D03*
%TD*%
D33*
%TO.C,C23*%
X151200000Y-162820000D03*
X151200000Y-163780000D03*
%TD*%
D28*
%TO.C,C43*%
X158295000Y-165100000D03*
X159255000Y-165100000D03*
%TD*%
D33*
%TO.C,C61*%
X143800000Y-185470000D03*
X143800000Y-186430000D03*
%TD*%
D62*
%TO.C,J6*%
X76775000Y-168375000D03*
D63*
X74235000Y-168375000D03*
X76775000Y-165835000D03*
X74235000Y-165835000D03*
X76775000Y-163295000D03*
X74235000Y-163295000D03*
X76775000Y-160755000D03*
X74235000Y-160755000D03*
X76775000Y-158215000D03*
X74235000Y-158215000D03*
%TD*%
D28*
%TO.C,C31*%
X152277500Y-156767500D03*
X153237500Y-156767500D03*
%TD*%
D26*
%TO.C,C4*%
X140750000Y-198480000D03*
X140750000Y-197520000D03*
%TD*%
D30*
%TO.C,R11*%
X150950000Y-164890000D03*
X150950000Y-165910000D03*
%TD*%
D50*
%TO.C,D10*%
X114030000Y-208600000D03*
X114870000Y-208600000D03*
%TD*%
D64*
%TO.C,Module1*%
X130700000Y-133600000D03*
X97700000Y-181600000D03*
X97700000Y-133600000D03*
X130700000Y-181600000D03*
D65*
X95700000Y-150300000D03*
X98780000Y-150300000D03*
X95700000Y-150700000D03*
X98780000Y-150700000D03*
X95700000Y-151100000D03*
X98780000Y-151100000D03*
X95700000Y-151500000D03*
X98780000Y-151500000D03*
X95700000Y-151900000D03*
X98780000Y-151900000D03*
X95700000Y-152300000D03*
X98780000Y-152300000D03*
X95700000Y-152700000D03*
X98780000Y-152700000D03*
X95700000Y-153100000D03*
X98780000Y-153100000D03*
X95700000Y-153500000D03*
X98780000Y-153500000D03*
X95700000Y-153900000D03*
X98780000Y-153900000D03*
X95700000Y-154300000D03*
X98780000Y-154300000D03*
X95700000Y-154700000D03*
X98780000Y-154700000D03*
X95700000Y-155100000D03*
X98780000Y-155100000D03*
X95700000Y-155500000D03*
X98780000Y-155500000D03*
X95700000Y-155900000D03*
X98780000Y-155900000D03*
X95700000Y-156300000D03*
X98780000Y-156300000D03*
X95700000Y-156700000D03*
X98780000Y-156700000D03*
X95700000Y-157100000D03*
X98780000Y-157100000D03*
X95700000Y-157500000D03*
X98780000Y-157500000D03*
X95700000Y-157900000D03*
X98780000Y-157900000D03*
X95700000Y-158300000D03*
X98780000Y-158300000D03*
X95700000Y-158700000D03*
X98780000Y-158700000D03*
X95700000Y-159100000D03*
X98780000Y-159100000D03*
X95700000Y-159500000D03*
X98780000Y-159500000D03*
X95700000Y-159900000D03*
X98780000Y-159900000D03*
X95700000Y-160300000D03*
X98780000Y-160300000D03*
X95700000Y-160700000D03*
X98780000Y-160700000D03*
X95700000Y-161100000D03*
X98780000Y-161100000D03*
X95700000Y-161500000D03*
X98780000Y-161500000D03*
X95700000Y-161900000D03*
X98780000Y-161900000D03*
X95700000Y-162300000D03*
X98780000Y-162300000D03*
X95700000Y-162700000D03*
X98780000Y-162700000D03*
X95700000Y-163100000D03*
X98780000Y-163100000D03*
X95700000Y-163500000D03*
X98780000Y-163500000D03*
X95700000Y-163900000D03*
X98780000Y-163900000D03*
X95700000Y-164300000D03*
X98780000Y-164300000D03*
X95700000Y-164700000D03*
X98780000Y-164700000D03*
X95700000Y-165100000D03*
X98780000Y-165100000D03*
X95700000Y-165500000D03*
X98780000Y-165500000D03*
X95700000Y-165900000D03*
X98780000Y-165900000D03*
X95700000Y-166300000D03*
X98780000Y-166300000D03*
X95700000Y-166700000D03*
X98780000Y-166700000D03*
X95700000Y-167100000D03*
X98780000Y-167100000D03*
X95700000Y-167500000D03*
X98780000Y-167500000D03*
X95700000Y-167900000D03*
X98780000Y-167900000D03*
X95700000Y-168300000D03*
X98780000Y-168300000D03*
X95700000Y-168700000D03*
X98780000Y-168700000D03*
X95700000Y-169100000D03*
X98780000Y-169100000D03*
X95700000Y-169500000D03*
X98780000Y-169500000D03*
X95700000Y-169900000D03*
X98780000Y-169900000D03*
X129620000Y-150300000D03*
X132700000Y-150300000D03*
X129620000Y-150700000D03*
X132700000Y-150700000D03*
X129620000Y-151100000D03*
X132700000Y-151100000D03*
X129620000Y-151500000D03*
X132700000Y-151500000D03*
X129620000Y-151900000D03*
X132700000Y-151900000D03*
X129620000Y-152300000D03*
X132700000Y-152300000D03*
X129620000Y-152700000D03*
X132700000Y-152700000D03*
X129620000Y-153100000D03*
X132700000Y-153100000D03*
X129620000Y-153500000D03*
X132700000Y-153500000D03*
X129620000Y-153900000D03*
X132700000Y-153900000D03*
X129620000Y-154300000D03*
X132700000Y-154300000D03*
X129620000Y-154700000D03*
X132700000Y-154700000D03*
X129620000Y-155100000D03*
X132700000Y-155100000D03*
X129620000Y-155500000D03*
X132700000Y-155500000D03*
X129620000Y-155900000D03*
X132700000Y-155900000D03*
X129620000Y-156300000D03*
X132700000Y-156300000D03*
X129620000Y-156700000D03*
X132700000Y-156700000D03*
X129620000Y-157100000D03*
X132700000Y-157100000D03*
X129620000Y-157500000D03*
X132700000Y-157500000D03*
X129620000Y-157900000D03*
X132700000Y-157900000D03*
X129620000Y-158300000D03*
X132700000Y-158300000D03*
X129620000Y-158700000D03*
X132700000Y-158700000D03*
X129620000Y-159100000D03*
X132700000Y-159100000D03*
X129620000Y-159500000D03*
X132700000Y-159500000D03*
X129620000Y-159900000D03*
X132700000Y-159900000D03*
X129620000Y-160300000D03*
X132700000Y-160300000D03*
X129620000Y-160700000D03*
X132700000Y-160700000D03*
X129620000Y-161100000D03*
X132700000Y-161100000D03*
X129620000Y-161500000D03*
X132700000Y-161500000D03*
X129620000Y-161900000D03*
X132700000Y-161900000D03*
X129620000Y-162300000D03*
X132700000Y-162300000D03*
X129620000Y-162700000D03*
X132700000Y-162700000D03*
X129620000Y-163100000D03*
X132700000Y-163100000D03*
X129620000Y-163500000D03*
X132700000Y-163500000D03*
X129620000Y-163900000D03*
X132700000Y-163900000D03*
X129620000Y-164300000D03*
X132700000Y-164300000D03*
X129620000Y-164700000D03*
X132700000Y-164700000D03*
X129620000Y-165100000D03*
X132700000Y-165100000D03*
X129620000Y-165500000D03*
X132700000Y-165500000D03*
X129620000Y-165900000D03*
X132700000Y-165900000D03*
X129620000Y-166300000D03*
X132700000Y-166300000D03*
X129620000Y-166700000D03*
X132700000Y-166700000D03*
X129620000Y-167100000D03*
X132700000Y-167100000D03*
X129620000Y-167500000D03*
X132700000Y-167500000D03*
X129620000Y-167900000D03*
X132700000Y-167900000D03*
X129620000Y-168300000D03*
X132700000Y-168300000D03*
X129620000Y-168700000D03*
X132700000Y-168700000D03*
X129620000Y-169100000D03*
X132700000Y-169100000D03*
X129620000Y-169500000D03*
X132700000Y-169500000D03*
X129620000Y-169900000D03*
X132700000Y-169900000D03*
%TD*%
D66*
%TO.C,U10*%
X145545000Y-172650000D03*
X146815000Y-172650000D03*
X148085000Y-172650000D03*
X149355000Y-172650000D03*
X149355000Y-165450000D03*
X148085000Y-165450000D03*
X146815000Y-165450000D03*
X145545000Y-165450000D03*
%TD*%
D26*
%TO.C,C9*%
X81400000Y-185130000D03*
X81400000Y-184170000D03*
%TD*%
D19*
%TO.C,D11*%
X78550000Y-171880000D03*
X78550000Y-172720000D03*
%TD*%
D67*
%TO.C,J3*%
X92815000Y-198925000D03*
X81385000Y-198925000D03*
D68*
X81385000Y-190035000D03*
D69*
X82655000Y-192575000D03*
X83925000Y-190035000D03*
X85195000Y-192575000D03*
X86465000Y-190035000D03*
X87735000Y-192575000D03*
X89005000Y-190035000D03*
X90275000Y-192575000D03*
X91545000Y-190035000D03*
X92815000Y-192575000D03*
D70*
X80455000Y-202985000D03*
X83005000Y-202985000D03*
X91205000Y-202985000D03*
X93755000Y-202985000D03*
D71*
X94955000Y-195875000D03*
X79245000Y-195875000D03*
%TD*%
D34*
%TO.C,C64*%
X141800000Y-190600000D03*
X141800000Y-192500000D03*
%TD*%
D72*
%TO.C,R15*%
X143960000Y-200900000D03*
X142940000Y-200900000D03*
%TD*%
D59*
%TO.C,C40*%
X142487500Y-154812500D03*
X141527500Y-154812500D03*
%TD*%
D33*
%TO.C,C42*%
X138000000Y-175345000D03*
X138000000Y-176305000D03*
%TD*%
%TO.C,C60*%
X143400000Y-182420000D03*
X143400000Y-183380000D03*
%TD*%
D73*
%TO.C,Q2*%
X76350000Y-151250000D03*
X77650000Y-151250000D03*
X77000000Y-149250000D03*
%TD*%
D34*
%TO.C,C62*%
X139050000Y-190600000D03*
X139050000Y-192500000D03*
%TD*%
D74*
%TO.C,FB3*%
X113437500Y-189775000D03*
X115012500Y-189775000D03*
%TD*%
D75*
%TO.C,D6*%
X119470000Y-197750000D03*
X118630000Y-197750000D03*
%TD*%
D76*
%TO.C,D24*%
X163700000Y-193150000D03*
X161600000Y-193150000D03*
%TD*%
D20*
%TO.C,TP1*%
X158850000Y-190600000D03*
%TD*%
D23*
%TO.C,R29*%
X146650000Y-186460000D03*
X146650000Y-185440000D03*
%TD*%
%TO.C,R9*%
X81750000Y-122510000D03*
X81750000Y-121490000D03*
%TD*%
D28*
%TO.C,C29*%
X152277500Y-155867500D03*
X153237500Y-155867500D03*
%TD*%
D77*
%TO.C,J11*%
X154700000Y-200550000D03*
D78*
X154700000Y-206450000D03*
D79*
X159400000Y-203350000D03*
%TD*%
D80*
%TO.C,D17*%
X148837500Y-209200000D03*
X146437500Y-209200000D03*
%TD*%
D20*
%TO.C,TP14*%
X137500000Y-200000000D03*
%TD*%
%TO.C,TP8*%
X147200000Y-196350000D03*
%TD*%
D81*
%TO.C,C8*%
X90100000Y-167550000D03*
X90100000Y-173150000D03*
%TD*%
D72*
%TO.C,R5*%
X143960000Y-201950000D03*
X142940000Y-201950000D03*
%TD*%
D82*
%TO.C,Q6*%
X162900000Y-186400000D03*
X162900000Y-187700000D03*
X164900000Y-187050000D03*
%TD*%
D25*
%TO.C,R1*%
X82690000Y-111850000D03*
X83710000Y-111850000D03*
%TD*%
D83*
%TO.C,U4*%
X143950000Y-199700000D03*
X144600000Y-199700000D03*
X145250000Y-199700000D03*
X145250000Y-197800000D03*
X143950000Y-197800000D03*
%TD*%
D84*
%TO.C,J8*%
X75650000Y-137300000D03*
D85*
X75650000Y-139840000D03*
X75650000Y-142380000D03*
X75650000Y-144920000D03*
%TD*%
D28*
%TO.C,C20*%
X141977500Y-157617500D03*
X142937500Y-157617500D03*
%TD*%
D20*
%TO.C,TP16*%
X149800000Y-187050000D03*
%TD*%
D28*
%TO.C,C35*%
X152277500Y-153967500D03*
X153237500Y-153967500D03*
%TD*%
D60*
%TO.C,FB4*%
X139225000Y-175612500D03*
X139225000Y-177187500D03*
%TD*%
D86*
%TO.C,J5*%
X74250000Y-171960000D03*
D63*
X74250000Y-174500000D03*
X74250000Y-177040000D03*
%TD*%
D82*
%TO.C,Q3*%
X121950000Y-190800000D03*
X121950000Y-192100000D03*
X123950000Y-191450000D03*
%TD*%
D33*
%TO.C,C16*%
X80850000Y-131970000D03*
X80850000Y-132930000D03*
%TD*%
D43*
%TO.C,D2*%
X134600000Y-197320000D03*
X134600000Y-196480000D03*
%TD*%
D20*
%TO.C,TP7*%
X147200000Y-198800000D03*
%TD*%
D26*
%TO.C,C37*%
X147357500Y-150030000D03*
X147357500Y-149070000D03*
%TD*%
D23*
%TO.C,R17*%
X146800000Y-175510000D03*
X146800000Y-174490000D03*
%TD*%
D20*
%TO.C,TP10*%
X75650000Y-147950000D03*
%TD*%
D87*
%TO.C,U14*%
X122510000Y-196350000D03*
X122510000Y-195850000D03*
X122510000Y-195350000D03*
X122510000Y-194850000D03*
X122510000Y-194350000D03*
X118110000Y-194350000D03*
X118110000Y-194850000D03*
X118110000Y-195350000D03*
X118110000Y-195850000D03*
X118110000Y-196350000D03*
%TD*%
D88*
%TO.C,J4*%
X109795000Y-207350000D03*
X108695000Y-207350000D03*
X107595000Y-207350000D03*
X106495000Y-207350000D03*
X105395000Y-207350000D03*
X104295000Y-207350000D03*
X103195000Y-207350000D03*
X102095000Y-207350000D03*
D89*
X100970000Y-198125000D03*
D90*
X112195000Y-196550000D03*
D91*
X112245000Y-207225000D03*
D92*
X112595000Y-198975000D03*
D93*
X100895000Y-207225000D03*
D94*
X100645000Y-199625000D03*
%TD*%
D95*
%TO.C,FB2*%
X82100000Y-139737500D03*
X82100000Y-138162500D03*
%TD*%
D75*
%TO.C,D1*%
X118470000Y-202650000D03*
X117630000Y-202650000D03*
%TD*%
D20*
%TO.C,TP2*%
X143350000Y-184500000D03*
%TD*%
D33*
%TO.C,C18*%
X141562500Y-152882500D03*
X141562500Y-153842500D03*
%TD*%
D26*
%TO.C,C44*%
X158050000Y-172505000D03*
X158050000Y-171545000D03*
%TD*%
D33*
%TO.C,C30*%
X150307500Y-159887500D03*
X150307500Y-160847500D03*
%TD*%
D20*
%TO.C,TP17*%
X80500000Y-120600000D03*
%TD*%
D33*
%TO.C,C24*%
X150250000Y-162820000D03*
X150250000Y-163780000D03*
%TD*%
D23*
%TO.C,R28*%
X160700000Y-187060000D03*
X160700000Y-186040000D03*
%TD*%
D33*
%TO.C,C67*%
X79450000Y-169570000D03*
X79450000Y-170530000D03*
%TD*%
D23*
%TO.C,R18*%
X148050000Y-175510000D03*
X148050000Y-174490000D03*
%TD*%
D31*
%TO.C,C56*%
X160550000Y-174150000D03*
X166150000Y-174150000D03*
%TD*%
D20*
%TO.C,TP4*%
X133200000Y-188400000D03*
%TD*%
D96*
%TO.C,J2*%
X129790000Y-198930000D03*
D69*
X129790000Y-196930000D03*
X129790000Y-194930000D03*
X129790000Y-192930000D03*
D97*
X132510000Y-192660000D03*
X127070000Y-192660000D03*
X127070000Y-199660000D03*
X132510000Y-199660000D03*
%TD*%
D98*
%TO.C,U13*%
X145750000Y-183700000D03*
X145750000Y-182700000D03*
D99*
X146050000Y-181850000D03*
X145550000Y-181850000D03*
X145050000Y-181850000D03*
X144550000Y-181850000D03*
D100*
X144450000Y-182700000D03*
D98*
X144850000Y-183200000D03*
D99*
X144550000Y-184550000D03*
X145050000Y-184550000D03*
X145550000Y-184550000D03*
X146050000Y-184550000D03*
%TD*%
D28*
%TO.C,C12*%
X144920000Y-200900000D03*
X145880000Y-200900000D03*
%TD*%
%TO.C,C19*%
X141977500Y-156667500D03*
X142937500Y-156667500D03*
%TD*%
D30*
%TO.C,R12*%
X144550000Y-159840000D03*
X144550000Y-160860000D03*
%TD*%
D26*
%TO.C,C65*%
X167100000Y-188180000D03*
X167100000Y-187220000D03*
%TD*%
D75*
%TO.C,D5*%
X119120000Y-201700000D03*
X118280000Y-201700000D03*
%TD*%
D26*
%TO.C,C21*%
X161850000Y-187880000D03*
X161850000Y-186920000D03*
%TD*%
D60*
%TO.C,FB5*%
X158450000Y-168337500D03*
X158450000Y-169912500D03*
%TD*%
D25*
%TO.C,R19*%
X76590000Y-171900000D03*
X77610000Y-171900000D03*
%TD*%
D101*
%TO.C,U3*%
X83012500Y-113200000D03*
X83012500Y-114150000D03*
X83012500Y-115100000D03*
X85287500Y-115100000D03*
X85287500Y-113200000D03*
%TD*%
D25*
%TO.C,R25*%
X162090000Y-194650000D03*
X163110000Y-194650000D03*
%TD*%
D20*
%TO.C,TP18*%
X92600000Y-175950000D03*
%TD*%
D33*
%TO.C,C59*%
X144750000Y-185470000D03*
X144750000Y-186430000D03*
%TD*%
D102*
%TO.C,Q5*%
X161325000Y-190800000D03*
D103*
X162300000Y-191725000D03*
X162300000Y-189875000D03*
D104*
X162300000Y-190760000D03*
%TD*%
D30*
%TO.C,R32*%
X117600000Y-199590000D03*
X117600000Y-200610000D03*
%TD*%
D50*
%TO.C,D7*%
X144930000Y-201950000D03*
X145770000Y-201950000D03*
%TD*%
D26*
%TO.C,C7*%
X135600000Y-197330000D03*
X135600000Y-196370000D03*
%TD*%
D27*
%TO.C,C66*%
X157400000Y-184700000D03*
X151800000Y-184700000D03*
%TD*%
D43*
%TO.C,D14*%
X79600000Y-138820000D03*
X79600000Y-137980000D03*
%TD*%
D25*
%TO.C,R21*%
X145740000Y-163850000D03*
X146760000Y-163850000D03*
%TD*%
D34*
%TO.C,C63*%
X136200000Y-190600000D03*
X136200000Y-192500000D03*
%TD*%
D33*
%TO.C,C57*%
X147250000Y-182720000D03*
X147250000Y-183680000D03*
%TD*%
D70*
%TO.C,J10*%
X154750000Y-178400000D03*
X154750000Y-141600000D03*
%TD*%
%TO.C,J9*%
X113650000Y-178400000D03*
X113650000Y-141600000D03*
%TD*%
D105*
%TO.C,J7*%
X75630000Y-133660000D03*
D85*
X75630000Y-131120000D03*
X75630000Y-128580000D03*
X75630000Y-126040000D03*
%TD*%
M02*
