M48
; DRILL file {KiCad (5.99.0-12650-g5c402a64ab)} date Sat Oct 23 23:53:38 2021
; FORMAT={-:-/ absolute / metric / decimal}
; #@! TF.CreationDate,2021-10-23T23:53:38+01:00
; #@! TF.GenerationSoftware,Kicad,Pcbnew,(5.99.0-12650-g5c402a64ab)
; #@! TF.FileFunction,MixedPlating,1,4
FMAT,2
METRIC
; #@! TA.AperFunction,Plated,PTH,ViaDrill
T1C0.200
; #@! TA.AperFunction,Plated,PTH,ComponentDrill
T2C0.650
; #@! TA.AperFunction,Plated,PTH,ComponentDrill
T3C0.700
; #@! TA.AperFunction,Plated,PTH,ComponentDrill
T4C0.800
; #@! TA.AperFunction,Plated,PTH,ComponentDrill
T5C0.900
; #@! TA.AperFunction,Plated,PTH,ComponentDrill
T6C0.920
; #@! TA.AperFunction,Plated,PTH,ComponentDrill
T7C0.990
; #@! TA.AperFunction,Plated,PTH,ComponentDrill
T8C1.000
; #@! TA.AperFunction,Plated,PTH,ComponentDrill
T9C1.190
; #@! TA.AperFunction,Plated,PTH,ComponentDrill
T10C1.200
; #@! TA.AperFunction,Plated,PTH,ComponentDrill
T11C1.300
; #@! TA.AperFunction,Plated,PTH,ComponentDrill
T12C1.500
; #@! TA.AperFunction,Plated,PTH,ComponentDrill
T13C1.600
; #@! TA.AperFunction,Plated,PTH,ComponentDrill
T14C1.750
; #@! TA.AperFunction,NonPlated,NPTH,ComponentDrill
T15C2.100
; #@! TA.AperFunction,NonPlated,NPTH,ComponentDrill
T16C2.700
; #@! TA.AperFunction,NonPlated,NPTH,ComponentDrill
T17C3.200
; #@! TA.AperFunction,NonPlated,NPTH,ComponentDrill
T18C3.250
%
G90
G05
T1
X71.0Y-170.65
X71.1Y-190.1
X71.28Y-134.83
X71.48Y-124.13
X71.55Y-150.03
X71.65Y-180.95
X74.1Y-184.9
X75.3Y-153.45
X77.0Y-146.55
X77.15Y-124.2
X78.2Y-151.8
X78.45Y-157.05
X78.55Y-173.35
X78.55Y-176.15
X78.6Y-171.2
X78.7Y-183.2
X78.95Y-116.8
X79.4Y-171.95
X79.4Y-174.5
X80.1Y-137.9
X80.1Y-183.25
X80.2Y-133.0
X80.3Y-206.0
X80.5Y-120.6
X80.8Y-146.6
X81.75Y-114.15
X81.75Y-115.2
X83.95Y-183.45
X83.95Y-185.85
X85.1Y-125.5
X86.55Y-195.4
X87.0Y-203.0
X87.05Y-111.85
X87.4Y-140.15
X87.65Y-160.25
X87.7Y-156.9
X88.15Y-128.6
X89.0Y-183.4
X89.0Y-185.85
X89.3Y-113.55
X89.5Y-119.0
X89.6Y-155.35
X89.75Y-175.6
X90.25Y-114.7
X90.4Y-155.35
X90.45Y-175.6
X90.6Y-140.15
X91.1Y-153.55
X91.45Y-142.15
X92.15Y-175.6
X92.15Y-176.35
X92.2Y-166.05
X92.2Y-166.9
X92.2Y-167.8
X92.2Y-168.7
X92.5Y-185.15
X93.0Y-175.6
X93.0Y-176.35
X93.1Y-166.1
X93.1Y-166.95
X93.1Y-167.85
X93.1Y-168.7
X93.4Y-152.6
X93.8Y-160.25
X93.85Y-161.398
X94.05Y-162.65
X94.25Y-205.85
X94.45Y-152.7
X94.5Y-128.6
X94.5Y-151.65
X94.65Y-160.201
X94.65Y-161.302
X94.7Y-163.1
X94.85Y-150.178
X94.876Y-163.9
X94.9Y-157.5
X94.9Y-164.6
X95.0Y-168.7
X96.0Y-122.5
X96.4Y-169.1
X96.45Y-150.2
X96.498Y-169.9
X96.55Y-151.25
X96.6Y-153.75
X96.65Y-154.7
X96.65Y-156.7
X96.65Y-157.6
X96.95Y-155.65
X97.25Y-153.25
X97.25Y-160.25
X97.4Y-161.275
X97.85Y-157.4
X97.85Y-162.3
X97.9Y-154.3
X97.9Y-156.3
X97.95Y-152.9
X97.966Y-158.193
X98.3Y-187.35
X98.35Y-148.25
X98.7Y-192.2
X98.773Y-194.621
X98.8Y-149.7
X99.0Y-111.85
X99.5Y-207.2
X99.6Y-152.9
X99.6Y-154.3
X99.6Y-156.3
X99.6Y-166.5
X99.6Y-167.25
X99.65Y-169.5
X99.7Y-158.75
X99.7Y-160.25
X99.7Y-161.777
X99.7Y-164.7
X99.75Y-161.0
X99.75Y-163.15
X99.818Y-168.307
X99.85Y-157.6
X100.9Y-201.4
X100.9Y-208.75
X100.95Y-156.1
X101.05Y-151.376
X101.65Y-199.65
X102.15Y-167.0
X103.025Y-188.325
X103.175Y-191.1
X103.25Y-182.175
X104.2Y-205.75
X104.3Y-208.85
X104.75Y-191.175
X104.775Y-188.325
X104.822Y-147.811
X105.281Y-133.452
X105.55Y-178.9
X106.1Y-168.9
X106.1Y-176.95
X106.3Y-204.0
X106.57Y-199.45
X106.8Y-141.3
X108.5Y-165.65
X108.5Y-166.925
X108.5Y-168.225
X109.55Y-165.65
X109.55Y-166.925
X109.55Y-168.225
X110.325Y-161.95
X110.325Y-163.225
X110.35Y-164.475
X110.35Y-172.075
X110.375Y-169.525
X111.5Y-122.3
X111.7Y-111.7
X111.7Y-198.95
X112.25Y-183.4
X112.5Y-186.35
X112.675Y-191.575
X113.6Y-191.85
X113.95Y-205.7
X114.25Y-191.55
X114.9Y-209.2
X114.95Y-205.7
X114.955Y-191.79
X115.175Y-169.525
X115.175Y-172.075
X115.2Y-161.925
X115.2Y-163.15
X115.225Y-164.45
X115.35Y-147.8
X115.4Y-186.45
X115.65Y-200.6
X116.05Y-195.8
X116.2Y-189.4
X116.2Y-190.25
X116.65Y-197.45
X116.7Y-202.85
X116.95Y-186.1
X117.0Y-189.4
X117.0Y-190.25
X117.11Y-199.59
X117.25Y-169.5
X117.25Y-179.8
X117.525Y-201.625
X117.98Y-197.729
X118.4Y-200.6
X118.7Y-193.5
X119.65Y-134.1
X119.95Y-197.75
X120.25Y-152.35
X120.727Y-197.75
X120.75Y-202.25
X120.9Y-191.1
X120.95Y-192.1
X122.5Y-196.9
X122.65Y-197.75
X122.9Y-187.2
X123.05Y-180.95
X123.15Y-169.95
X123.25Y-111.8
X123.6Y-189.65
X123.8Y-194.37
X125.4Y-184.951
X125.513Y-120.888
X126.65Y-156.95
X128.05Y-143.05
X128.6Y-151.8
X128.75Y-152.7
X128.8Y-153.9
X128.8Y-155.1
X128.8Y-156.3
X128.8Y-157.5
X128.8Y-161.15
X128.8Y-162.3
X128.8Y-163.5
X128.8Y-164.7
X128.8Y-165.9
X128.8Y-167.1
X128.8Y-168.3
X128.8Y-169.5
X129.15Y-186.05
X129.95Y-206.85
X130.3Y-172.65
X130.4Y-155.1
X130.4Y-156.3
X130.4Y-157.5
X130.4Y-161.1
X130.4Y-162.3
X130.4Y-163.5
X130.4Y-164.7
X130.4Y-165.9
X130.4Y-167.1
X130.4Y-168.3
X130.4Y-169.5
X130.45Y-153.9
X130.5Y-152.7
X130.7Y-150.95
X130.7Y-151.9
X131.3Y-152.8
X131.55Y-151.35
X131.75Y-155.2
X131.8Y-153.9
X131.85Y-161.1
X131.9Y-156.3
X131.9Y-157.5
X131.9Y-158.7
X131.9Y-159.648
X131.9Y-162.3
X131.9Y-163.5
X131.9Y-164.7
X131.9Y-165.9
X131.9Y-167.1
X131.9Y-168.3
X131.9Y-169.5
X133.5Y-156.3
X133.5Y-157.5
X133.5Y-158.7
X133.5Y-159.648
X133.5Y-161.15
X133.5Y-162.3
X133.5Y-163.5
X133.5Y-164.65
X133.5Y-165.9
X133.5Y-167.05
X133.5Y-168.3
X133.5Y-169.5
X134.498Y-184.938
X134.65Y-195.55
X134.75Y-192.5
X135.135Y-153.815
X135.3Y-122.85
X135.55Y-111.7
X135.65Y-195.55
X135.665Y-153.285
X135.85Y-187.75
X135.85Y-188.6
X135.85Y-189.45
X136.05Y-179.65
X136.15Y-193.65
X136.55Y-200.45
X136.65Y-187.75
X136.65Y-188.6
X136.65Y-189.45
X136.925Y-171.325
X136.95Y-172.1
X137.025Y-177.0
X137.15Y-153.4
X137.3Y-192.5
X137.709Y-171.323
X137.725Y-172.075
X137.75Y-162.9
X138.025Y-177.3
X138.362Y-151.112
X138.95Y-193.65
X138.95Y-199.25
X139.85Y-199.25
X140.45Y-192.55
X140.75Y-196.7
X140.75Y-199.25
X140.963Y-154.762
X141.257Y-158.767
X141.349Y-156.773
X141.349Y-157.523
X141.35Y-187.8
X141.35Y-188.65
X141.35Y-189.5
X141.65Y-199.25
X141.7Y-196.7
X141.85Y-193.9
X142.15Y-149.2
X142.15Y-187.8
X142.15Y-188.65
X142.15Y-189.5
X142.85Y-159.55
X142.85Y-160.3
X143.05Y-147.7
X143.1Y-145.35
X143.15Y-149.2
X143.2Y-192.55
X143.213Y-154.791
X143.35Y-184.5
X143.4Y-179.05
X143.4Y-196.65
X143.6Y-159.55
X143.6Y-160.25
X143.65Y-132.55
X143.95Y-164.15
X143.95Y-166.65
X143.95Y-198.8
X144.037Y-148.247
X144.037Y-148.997
X144.129Y-146.426
X144.129Y-147.176
X144.3Y-186.8
X144.5Y-161.55
X144.6Y-183.8
X144.65Y-163.25
X145.4Y-179.1
X145.55Y-173.8
X145.85Y-196.65
X145.85Y-199.7
X145.85Y-201.5
X145.857Y-153.468
X145.857Y-155.067
X145.857Y-156.767
X146.4Y-160.15
X146.657Y-154.267
X146.657Y-155.968
X146.8Y-173.8
X146.85Y-159.5
X146.9Y-190.95
X147.2Y-111.65
X147.2Y-196.35
X147.2Y-198.8
X147.25Y-184.55
X147.308Y-150.968
X147.35Y-145.35
X147.558Y-155.067
X147.558Y-156.767
X147.657Y-153.468
X148.0Y-149.1
X148.15Y-161.3
X148.3Y-208.2
X148.357Y-155.968
X148.457Y-154.267
X148.7Y-185.4
X148.8Y-150.0
X148.8Y-157.8
X148.808Y-150.868
X149.05Y-175.55
X149.05Y-208.2
X149.058Y-155.067
X149.157Y-153.468
X149.157Y-156.767
X149.3Y-171.25
X149.3Y-174.1
X149.35Y-160.5
X149.45Y-159.6
X149.5Y-149.5
X149.65Y-161.9
X149.65Y-162.8
X149.662Y-150.468
X149.811Y-161.113
X149.85Y-189.45
X149.85Y-190.45
X149.85Y-191.45
X150.412Y-150.468
X150.45Y-161.9
X150.77Y-119.23
X150.85Y-189.45
X150.85Y-190.45
X150.85Y-191.45
X150.95Y-166.75
X151.0Y-158.75
X151.2Y-161.9
X151.25Y-147.7
X151.45Y-151.75
X151.5Y-186.15
X151.692Y-156.735
X151.707Y-153.917
X151.707Y-154.917
X151.9Y-189.45
X151.9Y-190.45
X151.9Y-191.45
X152.5Y-186.15
X153.45Y-186.15
X153.907Y-153.017
X153.907Y-153.968
X153.907Y-154.917
X153.907Y-155.868
X153.907Y-156.767
X156.15Y-169.5
X156.175Y-151.75
X156.175Y-165.725
X156.175Y-166.975
X156.175Y-168.275
X156.2Y-172.05
X156.2Y-173.35
X156.2Y-174.6
X156.2Y-175.9
X156.225Y-147.925
X156.275Y-144.1
X156.45Y-164.425
X157.1Y-169.5
X157.125Y-151.75
X157.125Y-165.725
X157.125Y-166.975
X157.125Y-168.275
X157.15Y-147.925
X157.15Y-172.05
X157.15Y-173.35
X157.15Y-174.6
X157.15Y-175.9
X157.225Y-144.125
X157.326Y-132.631
X157.4Y-164.425
X157.752Y-126.91
X158.25Y-111.35
X158.25Y-161.3
X158.25Y-163.35
X159.2Y-161.3
X159.2Y-163.35
X159.45Y-186.9
X159.675Y-169.425
X159.675Y-170.175
X159.8Y-154.4
X160.17Y-208.34
X160.475Y-169.425
X160.475Y-170.175
X161.8Y-171.6
X162.65Y-188.35
X163.3Y-160.35
X163.3Y-161.1
X163.3Y-161.85
X163.3Y-162.65
X163.95Y-194.65
X165.15Y-153.25
X165.85Y-189.45
X165.85Y-190.6
X165.85Y-191.65
X166.1Y-186.5
X166.9Y-189.45
X166.9Y-190.6
X166.9Y-191.65
X167.1Y-186.5
X167.85Y-189.45
X167.85Y-190.6
X167.85Y-191.65
X168.05Y-158.95
X168.4Y-179.85
X168.525Y-166.275
X168.525Y-167.175
X168.55Y-173.775
X168.55Y-174.675
X168.6Y-195.3
X168.7Y-125.65
X168.85Y-189.45
X168.85Y-190.6
X168.85Y-191.65
X168.9Y-137.65
X168.95Y-201.8
T5
X81.385Y-190.035
X82.655Y-192.575
X83.925Y-190.035
X85.195Y-192.575
X86.465Y-190.035
X87.735Y-192.575
X89.005Y-190.035
X90.275Y-192.575
X91.545Y-190.035
X92.815Y-192.575
T6
X129.79Y-192.93
X129.79Y-194.93
X129.79Y-196.93
X129.79Y-198.93
T7
X139.085Y-207.067
X143.585Y-207.067
T8
X74.235Y-158.215
X74.235Y-160.755
X74.235Y-163.295
X74.235Y-165.835
X74.235Y-168.375
X74.25Y-171.96
X74.25Y-174.5
X74.25Y-177.04
X76.775Y-158.215
X76.775Y-160.755
X76.775Y-163.295
X76.775Y-165.835
X76.775Y-168.375
T9
X75.63Y-126.04
X75.63Y-128.58
X75.63Y-131.12
X75.63Y-133.66
X75.65Y-137.3
X75.65Y-139.84
X75.65Y-142.38
X75.65Y-144.92
T10
X80.455Y-202.985
X83.005Y-202.985
X91.205Y-202.985
X93.755Y-202.985
T11
X137.825Y-204.577
X144.835Y-204.577
T12
X127.07Y-192.66
X127.07Y-199.66
X132.51Y-192.66
X132.51Y-199.66
T13
X79.245Y-195.875
X94.955Y-195.875
T14
X152.05Y-197.25
X157.45Y-197.25
T15
X113.65Y-141.6
X113.65Y-178.4
X154.75Y-141.6
X154.75Y-178.4
T16
X97.7Y-133.6
X97.7Y-181.6
X130.7Y-133.6
X130.7Y-181.6
T17
X73.5Y-113.5
X73.5Y-206.5
X166.5Y-113.5
X166.5Y-206.5
T18
X81.385Y-198.925
X92.815Y-198.925
T2
X117.395Y-205.515G85X117.395Y-205.115
G05
X122.235Y-205.515G85X122.235Y-205.115
G05
T3
X117.085Y-208.565G85X117.085Y-208.065
G05
X122.545Y-208.565G85X122.545Y-208.065
G05
T4
X159.4Y-202.5G85X159.4Y-204.2
G05
T8
X153.45Y-200.55G85X155.95Y-200.55
G05
X155.7Y-206.45G85X153.7Y-206.45
G05
T0
M30
