%TF.GenerationSoftware,KiCad,Pcbnew,(5.99.0-12650-g5c402a64ab)*%
%TF.CreationDate,2021-10-24T00:02:36+01:00*%
%TF.ProjectId,Pintry-X2,50696e74-7279-42d5-9832-2e6b69636164,rev?*%
%TF.SameCoordinates,Original*%
%TF.FileFunction,Paste,Bot*%
%TF.FilePolarity,Positive*%
%FSLAX46Y46*%
G04 Gerber Fmt 4.6, Leading zero omitted, Abs format (unit mm)*
G04 Created by KiCad (PCBNEW (5.99.0-12650-g5c402a64ab)) date 2021-10-24 00:02:36*
%MOMM*%
%LPD*%
G01*
G04 APERTURE LIST*
G04 Aperture macros list*
%AMRoundRect*
0 Rectangle with rounded corners*
0 $1 Rounding radius*
0 $2 $3 $4 $5 $6 $7 $8 $9 X,Y pos of 4 corners*
0 Add a 4 corners polygon primitive as box body*
4,1,4,$2,$3,$4,$5,$6,$7,$8,$9,$2,$3,0*
0 Add four circle primitives for the rounded corners*
1,1,$1+$1,$2,$3*
1,1,$1+$1,$4,$5*
1,1,$1+$1,$6,$7*
1,1,$1+$1,$8,$9*
0 Add four rect primitives between the rounded corners*
20,1,$1+$1,$2,$3,$4,$5,0*
20,1,$1+$1,$4,$5,$6,$7,0*
20,1,$1+$1,$6,$7,$8,$9,0*
20,1,$1+$1,$8,$9,$2,$3,0*%
G04 Aperture macros list end*
%ADD10R,2.200000X2.100000*%
%ADD11R,3.800000X0.600000*%
%ADD12RoundRect,0.140000X0.140000X0.170000X-0.140000X0.170000X-0.140000X-0.170000X0.140000X-0.170000X0*%
%ADD13RoundRect,0.140000X-0.140000X-0.170000X0.140000X-0.170000X0.140000X0.170000X-0.140000X0.170000X0*%
%ADD14R,0.550000X0.300000*%
%ADD15R,0.550000X0.400000*%
%ADD16R,0.360000X0.250000*%
%ADD17RoundRect,0.135000X-0.135000X-0.185000X0.135000X-0.185000X0.135000X0.185000X-0.135000X0.185000X0*%
G04 APERTURE END LIST*
D10*
%TO.C,J10*%
X154450000Y-138650000D03*
X154450000Y-181350000D03*
D11*
X153850000Y-158095000D03*
X153850000Y-159365000D03*
X153850000Y-160635000D03*
X153850000Y-161905000D03*
X153850000Y-163175000D03*
X153850000Y-164445000D03*
X153850000Y-165715000D03*
X153850000Y-166985000D03*
X153850000Y-168255000D03*
X153850000Y-169525000D03*
X153850000Y-170795000D03*
X153850000Y-172065000D03*
X153850000Y-173335000D03*
X153850000Y-174605000D03*
X153850000Y-175875000D03*
X153850000Y-144125000D03*
X153850000Y-145395000D03*
X153850000Y-146665000D03*
X153850000Y-147935000D03*
X153850000Y-149205000D03*
X153850000Y-150475000D03*
X153850000Y-151745000D03*
%TD*%
D12*
%TO.C,C48*%
X121600000Y-148900000D03*
X120640000Y-148900000D03*
%TD*%
%TO.C,C47*%
X121600000Y-148000000D03*
X120640000Y-148000000D03*
%TD*%
D13*
%TO.C,C53*%
X144770000Y-148150000D03*
X145730000Y-148150000D03*
%TD*%
%TO.C,C52*%
X144770000Y-147250000D03*
X145730000Y-147250000D03*
%TD*%
D10*
%TO.C,J9*%
X113350000Y-138650000D03*
X113350000Y-181350000D03*
D11*
X112750000Y-158095000D03*
X112750000Y-159365000D03*
X112750000Y-160635000D03*
X112750000Y-161905000D03*
X112750000Y-163175000D03*
X112750000Y-164445000D03*
X112750000Y-165715000D03*
X112750000Y-166985000D03*
X112750000Y-168255000D03*
X112750000Y-169525000D03*
X112750000Y-170795000D03*
X112750000Y-172065000D03*
X112750000Y-173335000D03*
X112750000Y-174605000D03*
X112750000Y-175875000D03*
X112750000Y-144125000D03*
X112750000Y-145395000D03*
X112750000Y-146665000D03*
X112750000Y-147935000D03*
X112750000Y-149205000D03*
X112750000Y-150475000D03*
X112750000Y-151745000D03*
%TD*%
D14*
%TO.C,U11*%
X117985000Y-146600000D03*
X117985000Y-147100000D03*
D15*
X117985000Y-147600000D03*
D14*
X117985000Y-148100000D03*
X117985000Y-148600000D03*
X117215000Y-148600000D03*
X117215000Y-148100000D03*
D15*
X117215000Y-147600000D03*
D14*
X117215000Y-147100000D03*
X117215000Y-146600000D03*
%TD*%
%TO.C,U12*%
X149535000Y-146550000D03*
X149535000Y-147050000D03*
D15*
X149535000Y-147550000D03*
D14*
X149535000Y-148050000D03*
X149535000Y-148550000D03*
X148765000Y-148550000D03*
X148765000Y-148050000D03*
D15*
X148765000Y-147550000D03*
D14*
X148765000Y-147050000D03*
X148765000Y-146550000D03*
%TD*%
D12*
%TO.C,C45*%
X121600000Y-146200000D03*
X120640000Y-146200000D03*
%TD*%
D16*
%TO.C,D20*%
X108580000Y-163450000D03*
X109420000Y-163450000D03*
%TD*%
D13*
%TO.C,C54*%
X144770000Y-149050000D03*
X145730000Y-149050000D03*
%TD*%
%TO.C,C41*%
X108520000Y-164625000D03*
X109480000Y-164625000D03*
%TD*%
%TO.C,C1*%
X100320000Y-166500000D03*
X101280000Y-166500000D03*
%TD*%
D12*
%TO.C,C46*%
X121600000Y-147100000D03*
X120640000Y-147100000D03*
%TD*%
D17*
%TO.C,R34*%
X158040000Y-170800000D03*
X159060000Y-170800000D03*
%TD*%
%TO.C,R33*%
X116990000Y-170800000D03*
X118010000Y-170800000D03*
%TD*%
D13*
%TO.C,C3*%
X100320000Y-167450000D03*
X101280000Y-167450000D03*
%TD*%
%TO.C,C51*%
X144770000Y-146350000D03*
X145730000Y-146350000D03*
%TD*%
M02*
