%TF.GenerationSoftware,KiCad,Pcbnew,(5.99.0-12650-g5c402a64ab)*%
%TF.CreationDate,2021-10-24T00:02:36+01:00*%
%TF.ProjectId,Pintry-X2,50696e74-7279-42d5-9832-2e6b69636164,rev?*%
%TF.SameCoordinates,Original*%
%TF.FileFunction,Soldermask,Top*%
%TF.FilePolarity,Negative*%
%FSLAX46Y46*%
G04 Gerber Fmt 4.6, Leading zero omitted, Abs format (unit mm)*
G04 Created by KiCad (PCBNEW (5.99.0-12650-g5c402a64ab)) date 2021-10-24 00:02:36*
%MOMM*%
%LPD*%
G01*
G04 APERTURE LIST*
G04 Aperture macros list*
%AMRoundRect*
0 Rectangle with rounded corners*
0 $1 Rounding radius*
0 $2 $3 $4 $5 $6 $7 $8 $9 X,Y pos of 4 corners*
0 Add a 4 corners polygon primitive as box body*
4,1,4,$2,$3,$4,$5,$6,$7,$8,$9,$2,$3,0*
0 Add four circle primitives for the rounded corners*
1,1,$1+$1,$2,$3*
1,1,$1+$1,$4,$5*
1,1,$1+$1,$6,$7*
1,1,$1+$1,$8,$9*
0 Add four rect primitives between the rounded corners*
20,1,$1+$1,$2,$3,$4,$5,0*
20,1,$1+$1,$4,$5,$6,$7,0*
20,1,$1+$1,$6,$7,$8,$9,0*
20,1,$1+$1,$8,$9,$2,$3,0*%
%AMFreePoly0*
4,1,32,0.444127,1.326197,0.447663,1.324733,0.474733,1.297663,0.476197,1.294127,0.480000,1.275000,0.480000,-0.425000,0.476197,-0.444127,0.474733,-0.447663,0.447663,-0.474733,0.444127,-0.476197,0.425000,-0.480000,-0.575000,-0.480000,-0.594127,-0.476197,-0.597663,-0.474733,-0.624733,-0.447663,-0.626197,-0.444127,-0.630000,-0.425000,-0.630000,0.520000,-1.875000,0.520000,-1.894127,0.523803,
-1.897663,0.525267,-1.924733,0.552337,-1.926197,0.555873,-1.930000,0.575000,-1.930000,1.275000,-1.926197,1.294127,-1.924733,1.297663,-1.897663,1.324733,-1.894127,1.326197,-1.875000,1.330000,0.425000,1.330000,0.444127,1.326197,0.444127,1.326197,$1*%
%AMFreePoly1*
4,1,29,1.135355,0.510355,1.150000,0.475000,1.150000,0.175000,1.135355,0.139645,1.100000,0.125000,0.800000,0.125000,0.800000,-0.125000,1.100000,-0.125000,1.135355,-0.139645,1.150000,-0.175000,1.150000,-0.475000,1.135355,-0.510355,1.100000,-0.525000,-1.100000,-0.525000,-1.135355,-0.510355,-1.150000,-0.475000,-1.150000,-0.175000,-1.135355,-0.139645,-1.100000,-0.125000,-0.800000,-0.125000,
-0.800000,0.125000,-1.100000,0.125000,-1.135355,0.139645,-1.150000,0.175000,-1.150000,0.475000,-1.135355,0.510355,-1.100000,0.525000,1.100000,0.525000,1.135355,0.510355,1.135355,0.510355,$1*%
G04 Aperture macros list end*
%ADD10C,0.010000*%
%ADD11RoundRect,0.300000X-1.125000X-1.125000X1.125000X-1.125000X1.125000X1.125000X-1.125000X1.125000X0*%
%ADD12C,2.850000*%
%ADD13RoundRect,0.050000X0.125000X-0.180000X0.125000X0.180000X-0.125000X0.180000X-0.125000X-0.180000X0*%
%ADD14C,1.100000*%
%ADD15RoundRect,0.050000X-0.150000X-0.275000X0.150000X-0.275000X0.150000X0.275000X-0.150000X0.275000X0*%
%ADD16RoundRect,0.050000X-0.200000X-0.275000X0.200000X-0.275000X0.200000X0.275000X-0.200000X0.275000X0*%
%ADD17RoundRect,0.185000X0.185000X-0.135000X0.185000X0.135000X-0.185000X0.135000X-0.185000X-0.135000X0*%
%ADD18RoundRect,0.200000X0.512500X0.150000X-0.512500X0.150000X-0.512500X-0.150000X0.512500X-0.150000X0*%
%ADD19RoundRect,0.185000X-0.135000X-0.185000X0.135000X-0.185000X0.135000X0.185000X-0.135000X0.185000X0*%
%ADD20RoundRect,0.190000X0.170000X-0.140000X0.170000X0.140000X-0.170000X0.140000X-0.170000X-0.140000X0*%
%ADD21RoundRect,0.300000X1.500000X0.550000X-1.500000X0.550000X-1.500000X-0.550000X1.500000X-0.550000X0*%
%ADD22RoundRect,0.190000X-0.140000X-0.170000X0.140000X-0.170000X0.140000X0.170000X-0.140000X0.170000X0*%
%ADD23FreePoly0,270.000000*%
%ADD24RoundRect,0.185000X-0.185000X0.135000X-0.185000X-0.135000X0.185000X-0.135000X0.185000X0.135000X0*%
%ADD25RoundRect,0.300000X-1.500000X-0.550000X1.500000X-0.550000X1.500000X0.550000X-1.500000X0.550000X0*%
%ADD26RoundRect,0.300000X0.550000X-1.500000X0.550000X1.500000X-0.550000X1.500000X-0.550000X-1.500000X0*%
%ADD27RoundRect,0.190000X-0.170000X0.140000X-0.170000X-0.140000X0.170000X-0.140000X0.170000X0.140000X0*%
%ADD28RoundRect,0.300000X-0.475000X0.250000X-0.475000X-0.250000X0.475000X-0.250000X0.475000X0.250000X0*%
%ADD29C,7.000000*%
%ADD30RoundRect,0.050000X0.200000X-0.825000X0.200000X0.825000X-0.200000X0.825000X-0.200000X-0.825000X0*%
%ADD31RoundRect,0.050000X-0.912500X-0.350000X0.912500X-0.350000X0.912500X0.350000X-0.912500X0.350000X0*%
%ADD32O,1.450000X1.800000*%
%ADD33RoundRect,0.050000X0.715000X-1.250000X0.715000X1.250000X-0.715000X1.250000X-0.715000X-1.250000X0*%
%ADD34RoundRect,0.050000X-0.675000X-1.000000X0.675000X-1.000000X0.675000X1.000000X-0.675000X1.000000X0*%
%ADD35O,1.200000X1.600000*%
%ADD36RoundRect,0.050000X-1.000000X-0.750000X1.000000X-0.750000X1.000000X0.750000X-1.000000X0.750000X0*%
%ADD37RoundRect,0.050000X-0.125000X0.180000X-0.125000X-0.180000X0.125000X-0.180000X0.125000X0.180000X0*%
%ADD38C,2.200000*%
%ADD39C,1.850000*%
%ADD40FreePoly1,270.000000*%
%ADD41RoundRect,0.050000X-0.150000X0.175000X-0.150000X-0.175000X0.150000X-0.175000X0.150000X0.175000X0*%
%ADD42RoundRect,0.050000X-0.117500X0.435000X-0.117500X-0.435000X0.117500X-0.435000X0.117500X0.435000X0*%
%ADD43RoundRect,0.050000X0.350000X-0.225000X0.350000X0.225000X-0.350000X0.225000X-0.350000X-0.225000X0*%
%ADD44RoundRect,0.050000X0.180000X0.125000X-0.180000X0.125000X-0.180000X-0.125000X0.180000X-0.125000X0*%
%ADD45RoundRect,0.050000X0.600000X-0.700000X0.600000X0.700000X-0.600000X0.700000X-0.600000X-0.700000X0*%
%ADD46RoundRect,0.112500X0.337500X0.062500X-0.337500X0.062500X-0.337500X-0.062500X0.337500X-0.062500X0*%
%ADD47RoundRect,0.112500X0.062500X0.337500X-0.062500X0.337500X-0.062500X-0.337500X0.062500X-0.337500X0*%
%ADD48RoundRect,0.050000X2.012500X2.012500X-2.012500X2.012500X-2.012500X-2.012500X2.012500X-2.012500X0*%
%ADD49RoundRect,0.050000X2.000000X-0.750000X2.000000X0.750000X-2.000000X0.750000X-2.000000X-0.750000X0*%
%ADD50RoundRect,0.050000X-0.450000X-0.300000X0.450000X-0.300000X0.450000X0.300000X-0.450000X0.300000X0*%
%ADD51RoundRect,0.050000X0.225000X-0.300000X0.225000X0.300000X-0.225000X0.300000X-0.225000X-0.300000X0*%
%ADD52RoundRect,0.050000X-1.700000X1.075000X-1.700000X-1.075000X1.700000X-1.075000X1.700000X1.075000X0*%
%ADD53RoundRect,0.190000X0.140000X0.170000X-0.140000X0.170000X-0.140000X-0.170000X0.140000X-0.170000X0*%
%ADD54RoundRect,0.268750X-0.256250X0.218750X-0.256250X-0.218750X0.256250X-0.218750X0.256250X0.218750X0*%
%ADD55C,2.000000*%
%ADD56RoundRect,0.050000X0.850000X0.850000X-0.850000X0.850000X-0.850000X-0.850000X0.850000X-0.850000X0*%
%ADD57O,1.800000X1.800000*%
%ADD58C,6.100000*%
%ADD59RoundRect,0.050000X-0.350000X0.100000X-0.350000X-0.100000X0.350000X-0.100000X0.350000X0.100000X0*%
%ADD60RoundRect,0.200000X0.150000X-0.650000X0.150000X0.650000X-0.150000X0.650000X-0.150000X-0.650000X0*%
%ADD61C,3.350000*%
%ADD62RoundRect,0.050000X-0.800000X-0.800000X0.800000X-0.800000X0.800000X0.800000X-0.800000X0.800000X0*%
%ADD63C,1.700000*%
%ADD64C,2.100000*%
%ADD65C,2.800000*%
%ADD66RoundRect,0.185000X0.135000X0.185000X-0.135000X0.185000X-0.135000X-0.185000X0.135000X-0.185000X0*%
%ADD67RoundRect,0.050000X-0.225000X-0.350000X0.225000X-0.350000X0.225000X0.350000X-0.225000X0.350000X0*%
%ADD68RoundRect,0.268750X-0.218750X-0.256250X0.218750X-0.256250X0.218750X0.256250X-0.218750X0.256250X0*%
%ADD69RoundRect,0.050000X-0.180000X-0.125000X0.180000X-0.125000X0.180000X0.125000X-0.180000X0.125000X0*%
%ADD70RoundRect,0.050000X0.300000X0.225000X-0.300000X0.225000X-0.300000X-0.225000X0.300000X-0.225000X0*%
%ADD71O,4.600000X2.100000*%
%ADD72O,4.100000X2.100000*%
%ADD73O,1.900000X3.600000*%
%ADD74RoundRect,0.050000X0.450000X0.300000X-0.450000X0.300000X-0.450000X-0.300000X0.450000X-0.300000X0*%
%ADD75RoundRect,0.300000X-0.550000X1.500000X-0.550000X-1.500000X0.550000X-1.500000X0.550000X1.500000X0*%
%ADD76RoundRect,0.050000X-0.350000X0.225000X-0.350000X-0.225000X0.350000X-0.225000X0.350000X0.225000X0*%
%ADD77RoundRect,0.050000X0.200000X-0.325000X0.200000X0.325000X-0.200000X0.325000X-0.200000X-0.325000X0*%
%ADD78RoundRect,0.300000X-0.845000X0.620000X-0.845000X-0.620000X0.845000X-0.620000X0.845000X0.620000X0*%
%ADD79O,2.290000X1.840000*%
%ADD80RoundRect,0.050000X-0.850000X-0.850000X0.850000X-0.850000X0.850000X0.850000X-0.850000X0.850000X0*%
%ADD81RoundRect,0.050000X0.700000X0.150000X-0.700000X0.150000X-0.700000X-0.150000X0.700000X-0.150000X0*%
%ADD82RoundRect,0.050000X-0.350000X-0.875000X0.350000X-0.875000X0.350000X0.875000X-0.350000X0.875000X0*%
%ADD83RoundRect,0.050000X-0.725000X-0.500000X0.725000X-0.500000X0.725000X0.500000X-0.725000X0.500000X0*%
%ADD84RoundRect,0.050000X-0.500000X-0.775000X0.500000X-0.775000X0.500000X0.775000X-0.500000X0.775000X0*%
%ADD85RoundRect,0.050000X-0.750000X-0.750000X0.750000X-0.750000X0.750000X0.750000X-0.750000X0.750000X0*%
%ADD86RoundRect,0.050000X-0.400000X-0.700000X0.400000X-0.700000X0.400000X0.700000X-0.400000X0.700000X0*%
%ADD87RoundRect,0.050000X-0.650000X-0.750000X0.650000X-0.750000X0.650000X0.750000X-0.650000X0.750000X0*%
%ADD88RoundRect,0.050000X-0.400000X-0.750000X0.400000X-0.750000X0.400000X0.750000X-0.400000X0.750000X0*%
%ADD89RoundRect,0.268750X0.256250X-0.218750X0.256250X0.218750X-0.256250X0.218750X-0.256250X-0.218750X0*%
%ADD90RoundRect,0.050000X0.800000X-0.800000X0.800000X0.800000X-0.800000X0.800000X-0.800000X-0.800000X0*%
%ADD91C,2.250000*%
%ADD92RoundRect,0.025000X0.700000X0.175000X-0.700000X0.175000X-0.700000X-0.175000X0.700000X-0.175000X0*%
%ADD93RoundRect,0.025000X0.175000X0.300000X-0.175000X0.300000X-0.175000X-0.300000X0.175000X-0.300000X0*%
%ADD94RoundRect,0.025000X0.300000X0.175000X-0.300000X0.175000X-0.300000X-0.175000X0.300000X-0.175000X0*%
%ADD95RoundRect,0.200000X-0.512500X-0.150000X0.512500X-0.150000X0.512500X0.150000X-0.512500X0.150000X0*%
%ADD96FreePoly1,90.000000*%
%ADD97RoundRect,0.050000X0.150000X-0.175000X0.150000X0.175000X-0.150000X0.175000X-0.150000X-0.175000X0*%
%ADD98RoundRect,0.050000X0.117500X-0.435000X0.117500X0.435000X-0.117500X0.435000X-0.117500X-0.435000X0*%
%ADD99RoundRect,0.300000X0.845000X-0.620000X0.845000X0.620000X-0.845000X0.620000X-0.845000X-0.620000X0*%
G04 APERTURE END LIST*
D10*
%TO.C,FL1*%
X152700000Y-191850000D02*
X152700000Y-189350000D01*
X152700000Y-189350000D02*
X153600000Y-189350000D01*
X153600000Y-189350000D02*
X153600000Y-190650000D01*
X153600000Y-190650000D02*
X154600000Y-190650000D01*
X154600000Y-190650000D02*
X154600000Y-191850000D01*
X154600000Y-191850000D02*
X152700000Y-191850000D01*
G36*
X153600000Y-190650000D02*
G01*
X154600000Y-190650000D01*
X154600000Y-191850000D01*
X152700000Y-191850000D01*
X152700000Y-189350000D01*
X153600000Y-189350000D01*
X153600000Y-190650000D01*
G37*
X153600000Y-190650000D02*
X154600000Y-190650000D01*
X154600000Y-191850000D01*
X152700000Y-191850000D01*
X152700000Y-189350000D01*
X153600000Y-189350000D01*
X153600000Y-190650000D01*
X157600000Y-191850000D02*
X157600000Y-189350000D01*
X157600000Y-189350000D02*
X156700000Y-189350000D01*
X156700000Y-189350000D02*
X156700000Y-190650000D01*
X156700000Y-190650000D02*
X155700000Y-190650000D01*
X155700000Y-190650000D02*
X155700000Y-191850000D01*
X155700000Y-191850000D02*
X157600000Y-191850000D01*
G36*
X157600000Y-191850000D02*
G01*
X155700000Y-191850000D01*
X155700000Y-190650000D01*
X156700000Y-190650000D01*
X156700000Y-189350000D01*
X157600000Y-189350000D01*
X157600000Y-191850000D01*
G37*
X157600000Y-191850000D02*
X155700000Y-191850000D01*
X155700000Y-190650000D01*
X156700000Y-190650000D01*
X156700000Y-189350000D01*
X157600000Y-189350000D01*
X157600000Y-191850000D01*
X157600000Y-192550000D02*
X157600000Y-195050000D01*
X157600000Y-195050000D02*
X156700000Y-195050000D01*
X156700000Y-195050000D02*
X156700000Y-193750000D01*
X156700000Y-193750000D02*
X155700000Y-193750000D01*
X155700000Y-193750000D02*
X155700000Y-192550000D01*
X155700000Y-192550000D02*
X157600000Y-192550000D01*
G36*
X157600000Y-195050000D02*
G01*
X156700000Y-195050000D01*
X156700000Y-193750000D01*
X155700000Y-193750000D01*
X155700000Y-192550000D01*
X157600000Y-192550000D01*
X157600000Y-195050000D01*
G37*
X157600000Y-195050000D02*
X156700000Y-195050000D01*
X156700000Y-193750000D01*
X155700000Y-193750000D01*
X155700000Y-192550000D01*
X157600000Y-192550000D01*
X157600000Y-195050000D01*
X152700000Y-192550000D02*
X152700000Y-195050000D01*
X152700000Y-195050000D02*
X153600000Y-195050000D01*
X153600000Y-195050000D02*
X153600000Y-193750000D01*
X153600000Y-193750000D02*
X154600000Y-193750000D01*
X154600000Y-193750000D02*
X154600000Y-192550000D01*
X154600000Y-192550000D02*
X152700000Y-192550000D01*
G36*
X154600000Y-193750000D02*
G01*
X153600000Y-193750000D01*
X153600000Y-195050000D01*
X152700000Y-195050000D01*
X152700000Y-192550000D01*
X154600000Y-192550000D01*
X154600000Y-193750000D01*
G37*
X154600000Y-193750000D02*
X153600000Y-193750000D01*
X153600000Y-195050000D01*
X152700000Y-195050000D01*
X152700000Y-192550000D01*
X154600000Y-192550000D01*
X154600000Y-193750000D01*
X152700000Y-191850000D02*
X152700000Y-189350000D01*
X152700000Y-189350000D02*
X153600000Y-189350000D01*
X153600000Y-189350000D02*
X153600000Y-190650000D01*
X153600000Y-190650000D02*
X154600000Y-190650000D01*
X154600000Y-190650000D02*
X154600000Y-191850000D01*
X154600000Y-191850000D02*
X152700000Y-191850000D01*
G36*
X153600000Y-190650000D02*
G01*
X154600000Y-190650000D01*
X154600000Y-191850000D01*
X152700000Y-191850000D01*
X152700000Y-189350000D01*
X153600000Y-189350000D01*
X153600000Y-190650000D01*
G37*
X153600000Y-190650000D02*
X154600000Y-190650000D01*
X154600000Y-191850000D01*
X152700000Y-191850000D01*
X152700000Y-189350000D01*
X153600000Y-189350000D01*
X153600000Y-190650000D01*
X157600000Y-191850000D02*
X157600000Y-189350000D01*
X157600000Y-189350000D02*
X156700000Y-189350000D01*
X156700000Y-189350000D02*
X156700000Y-190650000D01*
X156700000Y-190650000D02*
X155700000Y-190650000D01*
X155700000Y-190650000D02*
X155700000Y-191850000D01*
X155700000Y-191850000D02*
X157600000Y-191850000D01*
G36*
X157600000Y-191850000D02*
G01*
X155700000Y-191850000D01*
X155700000Y-190650000D01*
X156700000Y-190650000D01*
X156700000Y-189350000D01*
X157600000Y-189350000D01*
X157600000Y-191850000D01*
G37*
X157600000Y-191850000D02*
X155700000Y-191850000D01*
X155700000Y-190650000D01*
X156700000Y-190650000D01*
X156700000Y-189350000D01*
X157600000Y-189350000D01*
X157600000Y-191850000D01*
X157600000Y-192550000D02*
X157600000Y-195050000D01*
X157600000Y-195050000D02*
X156700000Y-195050000D01*
X156700000Y-195050000D02*
X156700000Y-193750000D01*
X156700000Y-193750000D02*
X155700000Y-193750000D01*
X155700000Y-193750000D02*
X155700000Y-192550000D01*
X155700000Y-192550000D02*
X157600000Y-192550000D01*
G36*
X157600000Y-195050000D02*
G01*
X156700000Y-195050000D01*
X156700000Y-193750000D01*
X155700000Y-193750000D01*
X155700000Y-192550000D01*
X157600000Y-192550000D01*
X157600000Y-195050000D01*
G37*
X157600000Y-195050000D02*
X156700000Y-195050000D01*
X156700000Y-193750000D01*
X155700000Y-193750000D01*
X155700000Y-192550000D01*
X157600000Y-192550000D01*
X157600000Y-195050000D01*
X152700000Y-192550000D02*
X152700000Y-195050000D01*
X152700000Y-195050000D02*
X153600000Y-195050000D01*
X153600000Y-195050000D02*
X153600000Y-193750000D01*
X153600000Y-193750000D02*
X154600000Y-193750000D01*
X154600000Y-193750000D02*
X154600000Y-192550000D01*
X154600000Y-192550000D02*
X152700000Y-192550000D01*
G36*
X154600000Y-193750000D02*
G01*
X153600000Y-193750000D01*
X153600000Y-195050000D01*
X152700000Y-195050000D01*
X152700000Y-192550000D01*
X154600000Y-192550000D01*
X154600000Y-193750000D01*
G37*
X154600000Y-193750000D02*
X153600000Y-193750000D01*
X153600000Y-195050000D01*
X152700000Y-195050000D01*
X152700000Y-192550000D01*
X154600000Y-192550000D01*
X154600000Y-193750000D01*
%TD*%
D11*
%TO.C,J12*%
X152050000Y-197250000D03*
D12*
X157450000Y-197250000D03*
%TD*%
D13*
%TO.C,D13*%
X79750000Y-132130000D03*
X79750000Y-132970000D03*
%TD*%
D14*
%TO.C,TP5*%
X168450000Y-188000000D03*
%TD*%
D15*
%TO.C,U2*%
X88000000Y-185020000D03*
X88500000Y-185020000D03*
D16*
X89000000Y-185020000D03*
D15*
X89500000Y-185020000D03*
X90000000Y-185020000D03*
X90000000Y-184250000D03*
X89500000Y-184250000D03*
D16*
X89000000Y-184250000D03*
D15*
X88500000Y-184250000D03*
X88000000Y-184250000D03*
%TD*%
D17*
%TO.C,R27*%
X160700000Y-188960000D03*
X160700000Y-187940000D03*
%TD*%
D14*
%TO.C,TP9*%
X75700000Y-122700000D03*
%TD*%
D18*
%TO.C,U15*%
X139337500Y-198500000D03*
X139337500Y-197550000D03*
X139337500Y-196600000D03*
X137062500Y-196600000D03*
X137062500Y-198500000D03*
%TD*%
D19*
%TO.C,R10*%
X77190000Y-152500000D03*
X78210000Y-152500000D03*
%TD*%
D20*
%TO.C,C2*%
X116650000Y-196780000D03*
X116650000Y-195820000D03*
%TD*%
D21*
%TO.C,C49*%
X109725000Y-189750000D03*
X104125000Y-189750000D03*
%TD*%
D17*
%TO.C,R30*%
X145700000Y-186460000D03*
X145700000Y-185440000D03*
%TD*%
D15*
%TO.C,U6*%
X97700000Y-193820000D03*
X98200000Y-193820000D03*
D16*
X98700000Y-193820000D03*
D15*
X99200000Y-193820000D03*
X99700000Y-193820000D03*
X99700000Y-193050000D03*
X99200000Y-193050000D03*
D16*
X98700000Y-193050000D03*
D15*
X98200000Y-193050000D03*
X97700000Y-193050000D03*
%TD*%
D22*
%TO.C,C15*%
X113970000Y-206700000D03*
X114930000Y-206700000D03*
%TD*%
D23*
%TO.C,FL1*%
X156225000Y-191325000D03*
%TD*%
D24*
%TO.C,R3*%
X78700000Y-184140000D03*
X78700000Y-185160000D03*
%TD*%
D14*
%TO.C,TP6*%
X165150000Y-153250000D03*
%TD*%
D25*
%TO.C,C55*%
X160575000Y-166750000D03*
X166175000Y-166750000D03*
%TD*%
D17*
%TO.C,R31*%
X166100000Y-188210000D03*
X166100000Y-187190000D03*
%TD*%
%TO.C,R2*%
X116600000Y-200610000D03*
X116600000Y-199590000D03*
%TD*%
D26*
%TO.C,C50*%
X139100000Y-171650000D03*
X139100000Y-166050000D03*
%TD*%
D22*
%TO.C,C28*%
X152277500Y-154917500D03*
X153237500Y-154917500D03*
%TD*%
D27*
%TO.C,C68*%
X71900000Y-169720000D03*
X71900000Y-170680000D03*
%TD*%
D28*
%TO.C,C58*%
X148750000Y-182350000D03*
X148750000Y-184250000D03*
%TD*%
D13*
%TO.C,D12*%
X78550000Y-174430000D03*
X78550000Y-175270000D03*
%TD*%
D29*
%TO.C,H3*%
X166500000Y-113500000D03*
%TD*%
D19*
%TO.C,R16*%
X121840000Y-189650000D03*
X122860000Y-189650000D03*
%TD*%
D14*
%TO.C,TP11*%
X158800000Y-162350000D03*
%TD*%
D28*
%TO.C,C6*%
X135150000Y-198500000D03*
X135150000Y-200400000D03*
%TD*%
D17*
%TO.C,R7*%
X81750000Y-124410000D03*
X81750000Y-123390000D03*
%TD*%
D24*
%TO.C,R6*%
X89300000Y-111790000D03*
X89300000Y-112810000D03*
%TD*%
D27*
%TO.C,C27*%
X143950000Y-164920000D03*
X143950000Y-165880000D03*
%TD*%
D30*
%TO.C,J1*%
X118515000Y-205435000D03*
X119165000Y-205435000D03*
X119815000Y-205435000D03*
X120465000Y-205435000D03*
X121115000Y-205435000D03*
D31*
X116865000Y-206635000D03*
D32*
X117085000Y-208315000D03*
D31*
X122815000Y-206635000D03*
D32*
X122545000Y-208315000D03*
D33*
X118855000Y-208585000D03*
D34*
X122565000Y-207385000D03*
X117085000Y-207385000D03*
D35*
X122235000Y-205315000D03*
D36*
X122715000Y-205315000D03*
D33*
X120775000Y-208585000D03*
D35*
X117395000Y-205315000D03*
D36*
X116965000Y-205335000D03*
%TD*%
D17*
%TO.C,R13*%
X147350000Y-148210000D03*
X147350000Y-147190000D03*
%TD*%
D37*
%TO.C,D16*%
X77000000Y-148020000D03*
X77000000Y-147180000D03*
%TD*%
D20*
%TO.C,C5*%
X141700000Y-198480000D03*
X141700000Y-197520000D03*
%TD*%
D38*
%TO.C,SW1*%
X137825000Y-204577500D03*
X144835000Y-204577500D03*
D39*
X143585000Y-207067500D03*
X139085000Y-207067500D03*
%TD*%
D40*
%TO.C,Q7*%
X164625000Y-190100000D03*
D41*
X163650000Y-189175000D03*
X163650000Y-191025000D03*
D42*
X163650000Y-190140000D03*
%TD*%
D43*
%TO.C,Q1*%
X80500000Y-123400000D03*
X80500000Y-122100000D03*
X78500000Y-122750000D03*
%TD*%
D17*
%TO.C,R22*%
X145400000Y-180910000D03*
X145400000Y-179890000D03*
%TD*%
D44*
%TO.C,D4*%
X121180000Y-197750000D03*
X122020000Y-197750000D03*
%TD*%
D45*
%TO.C,Y1*%
X140062500Y-154362500D03*
X140062500Y-152162500D03*
X138362500Y-152162500D03*
X138362500Y-154362500D03*
%TD*%
D37*
%TO.C,D23*%
X159025000Y-172527500D03*
X159025000Y-171687500D03*
%TD*%
D17*
%TO.C,R26*%
X143500000Y-180910000D03*
X143500000Y-179890000D03*
%TD*%
D46*
%TO.C,U7*%
X150987500Y-157887500D03*
X150987500Y-157387500D03*
X150987500Y-156887500D03*
X150987500Y-156387500D03*
X150987500Y-155887500D03*
X150987500Y-155387500D03*
X150987500Y-154887500D03*
X150987500Y-154387500D03*
X150987500Y-153887500D03*
X150987500Y-153387500D03*
X150987500Y-152887500D03*
X150987500Y-152387500D03*
D47*
X150287500Y-151687500D03*
X149787500Y-151687500D03*
X149287500Y-151687500D03*
X148787500Y-151687500D03*
X148287500Y-151687500D03*
X147787500Y-151687500D03*
X147287500Y-151687500D03*
X146787500Y-151687500D03*
X146287500Y-151687500D03*
X145787500Y-151687500D03*
X145287500Y-151687500D03*
X144787500Y-151687500D03*
D46*
X144087500Y-152387500D03*
X144087500Y-152887500D03*
X144087500Y-153387500D03*
X144087500Y-153887500D03*
X144087500Y-154387500D03*
X144087500Y-154887500D03*
X144087500Y-155387500D03*
X144087500Y-155887500D03*
X144087500Y-156387500D03*
X144087500Y-156887500D03*
X144087500Y-157387500D03*
X144087500Y-157887500D03*
D47*
X144787500Y-158587500D03*
X145287500Y-158587500D03*
X145787500Y-158587500D03*
X146287500Y-158587500D03*
X146787500Y-158587500D03*
X147287500Y-158587500D03*
X147787500Y-158587500D03*
X148287500Y-158587500D03*
X148787500Y-158587500D03*
X149287500Y-158587500D03*
X149787500Y-158587500D03*
X150287500Y-158587500D03*
D48*
X147537500Y-155137500D03*
%TD*%
D13*
%TO.C,D15*%
X77150000Y-122730000D03*
X77150000Y-123570000D03*
%TD*%
D49*
%TO.C,L1*%
X154500000Y-162350000D03*
X154500000Y-158750000D03*
%TD*%
D14*
%TO.C,TP3*%
X164950000Y-193150000D03*
%TD*%
D50*
%TO.C,D8*%
X82850000Y-110800000D03*
X85250000Y-110800000D03*
%TD*%
D24*
%TO.C,R23*%
X146350000Y-179890000D03*
X146350000Y-180910000D03*
%TD*%
D22*
%TO.C,C13*%
X144120000Y-196650000D03*
X145080000Y-196650000D03*
%TD*%
D20*
%TO.C,C17*%
X80750000Y-138880000D03*
X80750000Y-137920000D03*
%TD*%
D13*
%TO.C,D21*%
X137000000Y-175405000D03*
X137000000Y-176245000D03*
%TD*%
D29*
%TO.C,H4*%
X73500000Y-113500000D03*
%TD*%
D51*
%TO.C,D26*%
X159200000Y-188325000D03*
X159200000Y-186225000D03*
%TD*%
D15*
%TO.C,U1*%
X82950000Y-185035000D03*
X83450000Y-185035000D03*
D16*
X83950000Y-185035000D03*
D15*
X84450000Y-185035000D03*
X84950000Y-185035000D03*
X84950000Y-184265000D03*
X84450000Y-184265000D03*
D16*
X83950000Y-184265000D03*
D15*
X83450000Y-184265000D03*
X82950000Y-184265000D03*
%TD*%
D52*
%TO.C,L2*%
X139000000Y-182575000D03*
X139000000Y-188425000D03*
%TD*%
D19*
%TO.C,R8*%
X75280000Y-152500000D03*
X76300000Y-152500000D03*
%TD*%
D15*
%TO.C,U5*%
X112750000Y-193685000D03*
X113250000Y-193685000D03*
D16*
X113750000Y-193685000D03*
D15*
X114250000Y-193685000D03*
X114750000Y-193685000D03*
X114750000Y-192915000D03*
X114250000Y-192915000D03*
D16*
X113750000Y-192915000D03*
D15*
X113250000Y-192915000D03*
X112750000Y-192915000D03*
%TD*%
D19*
%TO.C,R35*%
X121840000Y-188400000D03*
X122860000Y-188400000D03*
%TD*%
D53*
%TO.C,C36*%
X143780000Y-150450000D03*
X142820000Y-150450000D03*
%TD*%
D29*
%TO.C,H2*%
X73500000Y-206500000D03*
%TD*%
D19*
%TO.C,R20*%
X76590000Y-174450000D03*
X77610000Y-174450000D03*
%TD*%
D29*
%TO.C,H1*%
X166500000Y-206500000D03*
%TD*%
D54*
%TO.C,FB6*%
X158250000Y-177362500D03*
X158250000Y-178937500D03*
%TD*%
D19*
%TO.C,R14*%
X146530000Y-208200000D03*
X147550000Y-208200000D03*
%TD*%
D27*
%TO.C,C38*%
X147657500Y-159887500D03*
X147657500Y-160847500D03*
%TD*%
D53*
%TO.C,C33*%
X142937500Y-158767500D03*
X141977500Y-158767500D03*
%TD*%
D55*
%TO.C,FID3*%
X73500000Y-200000000D03*
%TD*%
D44*
%TO.C,D25*%
X161830000Y-188900000D03*
X162670000Y-188900000D03*
%TD*%
D55*
%TO.C,FID1*%
X166500000Y-120000000D03*
%TD*%
D24*
%TO.C,R24*%
X144450000Y-179890000D03*
X144450000Y-180910000D03*
%TD*%
D50*
%TO.C,D9*%
X89300000Y-110800000D03*
X91700000Y-110800000D03*
%TD*%
D26*
%TO.C,C10*%
X90100000Y-163450000D03*
X90100000Y-157850000D03*
%TD*%
D22*
%TO.C,C11*%
X85270000Y-111850000D03*
X86230000Y-111850000D03*
%TD*%
D54*
%TO.C,FB1*%
X82150000Y-131112500D03*
X82150000Y-132687500D03*
%TD*%
D27*
%TO.C,C39*%
X148607500Y-159887500D03*
X148607500Y-160847500D03*
%TD*%
D44*
%TO.C,D3*%
X119900000Y-201700000D03*
X120740000Y-201700000D03*
%TD*%
%TO.C,D22*%
X158380000Y-164125000D03*
X159220000Y-164125000D03*
%TD*%
D24*
%TO.C,R4*%
X80100000Y-184140000D03*
X80100000Y-185160000D03*
%TD*%
D22*
%TO.C,C34*%
X152277500Y-152117500D03*
X153237500Y-152117500D03*
%TD*%
%TO.C,C14*%
X113970000Y-207650000D03*
X114930000Y-207650000D03*
%TD*%
D55*
%TO.C,FID5*%
X73500000Y-120000000D03*
%TD*%
D22*
%TO.C,C32*%
X152277500Y-153017500D03*
X153237500Y-153017500D03*
%TD*%
D27*
%TO.C,C23*%
X151200000Y-162820000D03*
X151200000Y-163780000D03*
%TD*%
D22*
%TO.C,C43*%
X158295000Y-165100000D03*
X159255000Y-165100000D03*
%TD*%
D27*
%TO.C,C61*%
X143800000Y-185470000D03*
X143800000Y-186430000D03*
%TD*%
D56*
%TO.C,J6*%
X76775000Y-168375000D03*
D57*
X74235000Y-168375000D03*
X76775000Y-165835000D03*
X74235000Y-165835000D03*
X76775000Y-163295000D03*
X74235000Y-163295000D03*
X76775000Y-160755000D03*
X74235000Y-160755000D03*
X76775000Y-158215000D03*
X74235000Y-158215000D03*
%TD*%
D22*
%TO.C,C31*%
X152277500Y-156767500D03*
X153237500Y-156767500D03*
%TD*%
D20*
%TO.C,C4*%
X140750000Y-198480000D03*
X140750000Y-197520000D03*
%TD*%
D24*
%TO.C,R11*%
X150950000Y-164890000D03*
X150950000Y-165910000D03*
%TD*%
D44*
%TO.C,D10*%
X114030000Y-208600000D03*
X114870000Y-208600000D03*
%TD*%
D58*
%TO.C,Module1*%
X130700000Y-133600000D03*
X97700000Y-181600000D03*
X97700000Y-133600000D03*
X130700000Y-181600000D03*
D59*
X95700000Y-150300000D03*
X98780000Y-150300000D03*
X95700000Y-150700000D03*
X98780000Y-150700000D03*
X95700000Y-151100000D03*
X98780000Y-151100000D03*
X95700000Y-151500000D03*
X98780000Y-151500000D03*
X95700000Y-151900000D03*
X98780000Y-151900000D03*
X95700000Y-152300000D03*
X98780000Y-152300000D03*
X95700000Y-152700000D03*
X98780000Y-152700000D03*
X95700000Y-153100000D03*
X98780000Y-153100000D03*
X95700000Y-153500000D03*
X98780000Y-153500000D03*
X95700000Y-153900000D03*
X98780000Y-153900000D03*
X95700000Y-154300000D03*
X98780000Y-154300000D03*
X95700000Y-154700000D03*
X98780000Y-154700000D03*
X95700000Y-155100000D03*
X98780000Y-155100000D03*
X95700000Y-155500000D03*
X98780000Y-155500000D03*
X95700000Y-155900000D03*
X98780000Y-155900000D03*
X95700000Y-156300000D03*
X98780000Y-156300000D03*
X95700000Y-156700000D03*
X98780000Y-156700000D03*
X95700000Y-157100000D03*
X98780000Y-157100000D03*
X95700000Y-157500000D03*
X98780000Y-157500000D03*
X95700000Y-157900000D03*
X98780000Y-157900000D03*
X95700000Y-158300000D03*
X98780000Y-158300000D03*
X95700000Y-158700000D03*
X98780000Y-158700000D03*
X95700000Y-159100000D03*
X98780000Y-159100000D03*
X95700000Y-159500000D03*
X98780000Y-159500000D03*
X95700000Y-159900000D03*
X98780000Y-159900000D03*
X95700000Y-160300000D03*
X98780000Y-160300000D03*
X95700000Y-160700000D03*
X98780000Y-160700000D03*
X95700000Y-161100000D03*
X98780000Y-161100000D03*
X95700000Y-161500000D03*
X98780000Y-161500000D03*
X95700000Y-161900000D03*
X98780000Y-161900000D03*
X95700000Y-162300000D03*
X98780000Y-162300000D03*
X95700000Y-162700000D03*
X98780000Y-162700000D03*
X95700000Y-163100000D03*
X98780000Y-163100000D03*
X95700000Y-163500000D03*
X98780000Y-163500000D03*
X95700000Y-163900000D03*
X98780000Y-163900000D03*
X95700000Y-164300000D03*
X98780000Y-164300000D03*
X95700000Y-164700000D03*
X98780000Y-164700000D03*
X95700000Y-165100000D03*
X98780000Y-165100000D03*
X95700000Y-165500000D03*
X98780000Y-165500000D03*
X95700000Y-165900000D03*
X98780000Y-165900000D03*
X95700000Y-166300000D03*
X98780000Y-166300000D03*
X95700000Y-166700000D03*
X98780000Y-166700000D03*
X95700000Y-167100000D03*
X98780000Y-167100000D03*
X95700000Y-167500000D03*
X98780000Y-167500000D03*
X95700000Y-167900000D03*
X98780000Y-167900000D03*
X95700000Y-168300000D03*
X98780000Y-168300000D03*
X95700000Y-168700000D03*
X98780000Y-168700000D03*
X95700000Y-169100000D03*
X98780000Y-169100000D03*
X95700000Y-169500000D03*
X98780000Y-169500000D03*
X95700000Y-169900000D03*
X98780000Y-169900000D03*
X129620000Y-150300000D03*
X132700000Y-150300000D03*
X129620000Y-150700000D03*
X132700000Y-150700000D03*
X129620000Y-151100000D03*
X132700000Y-151100000D03*
X129620000Y-151500000D03*
X132700000Y-151500000D03*
X129620000Y-151900000D03*
X132700000Y-151900000D03*
X129620000Y-152300000D03*
X132700000Y-152300000D03*
X129620000Y-152700000D03*
X132700000Y-152700000D03*
X129620000Y-153100000D03*
X132700000Y-153100000D03*
X129620000Y-153500000D03*
X132700000Y-153500000D03*
X129620000Y-153900000D03*
X132700000Y-153900000D03*
X129620000Y-154300000D03*
X132700000Y-154300000D03*
X129620000Y-154700000D03*
X132700000Y-154700000D03*
X129620000Y-155100000D03*
X132700000Y-155100000D03*
X129620000Y-155500000D03*
X132700000Y-155500000D03*
X129620000Y-155900000D03*
X132700000Y-155900000D03*
X129620000Y-156300000D03*
X132700000Y-156300000D03*
X129620000Y-156700000D03*
X132700000Y-156700000D03*
X129620000Y-157100000D03*
X132700000Y-157100000D03*
X129620000Y-157500000D03*
X132700000Y-157500000D03*
X129620000Y-157900000D03*
X132700000Y-157900000D03*
X129620000Y-158300000D03*
X132700000Y-158300000D03*
X129620000Y-158700000D03*
X132700000Y-158700000D03*
X129620000Y-159100000D03*
X132700000Y-159100000D03*
X129620000Y-159500000D03*
X132700000Y-159500000D03*
X129620000Y-159900000D03*
X132700000Y-159900000D03*
X129620000Y-160300000D03*
X132700000Y-160300000D03*
X129620000Y-160700000D03*
X132700000Y-160700000D03*
X129620000Y-161100000D03*
X132700000Y-161100000D03*
X129620000Y-161500000D03*
X132700000Y-161500000D03*
X129620000Y-161900000D03*
X132700000Y-161900000D03*
X129620000Y-162300000D03*
X132700000Y-162300000D03*
X129620000Y-162700000D03*
X132700000Y-162700000D03*
X129620000Y-163100000D03*
X132700000Y-163100000D03*
X129620000Y-163500000D03*
X132700000Y-163500000D03*
X129620000Y-163900000D03*
X132700000Y-163900000D03*
X129620000Y-164300000D03*
X132700000Y-164300000D03*
X129620000Y-164700000D03*
X132700000Y-164700000D03*
X129620000Y-165100000D03*
X132700000Y-165100000D03*
X129620000Y-165500000D03*
X132700000Y-165500000D03*
X129620000Y-165900000D03*
X132700000Y-165900000D03*
X129620000Y-166300000D03*
X132700000Y-166300000D03*
X129620000Y-166700000D03*
X132700000Y-166700000D03*
X129620000Y-167100000D03*
X132700000Y-167100000D03*
X129620000Y-167500000D03*
X132700000Y-167500000D03*
X129620000Y-167900000D03*
X132700000Y-167900000D03*
X129620000Y-168300000D03*
X132700000Y-168300000D03*
X129620000Y-168700000D03*
X132700000Y-168700000D03*
X129620000Y-169100000D03*
X132700000Y-169100000D03*
X129620000Y-169500000D03*
X132700000Y-169500000D03*
X129620000Y-169900000D03*
X132700000Y-169900000D03*
%TD*%
D60*
%TO.C,U10*%
X145545000Y-172650000D03*
X146815000Y-172650000D03*
X148085000Y-172650000D03*
X149355000Y-172650000D03*
X149355000Y-165450000D03*
X148085000Y-165450000D03*
X146815000Y-165450000D03*
X145545000Y-165450000D03*
%TD*%
D20*
%TO.C,C9*%
X81400000Y-185130000D03*
X81400000Y-184170000D03*
%TD*%
D13*
%TO.C,D11*%
X78550000Y-171880000D03*
X78550000Y-172720000D03*
%TD*%
D61*
%TO.C,J3*%
X92815000Y-198925000D03*
X81385000Y-198925000D03*
D62*
X81385000Y-190035000D03*
D63*
X82655000Y-192575000D03*
X83925000Y-190035000D03*
X85195000Y-192575000D03*
X86465000Y-190035000D03*
X87735000Y-192575000D03*
X89005000Y-190035000D03*
X90275000Y-192575000D03*
X91545000Y-190035000D03*
X92815000Y-192575000D03*
D64*
X80455000Y-202985000D03*
X83005000Y-202985000D03*
X91205000Y-202985000D03*
X93755000Y-202985000D03*
D65*
X94955000Y-195875000D03*
X79245000Y-195875000D03*
%TD*%
D28*
%TO.C,C64*%
X141800000Y-190600000D03*
X141800000Y-192500000D03*
%TD*%
D66*
%TO.C,R15*%
X143960000Y-200900000D03*
X142940000Y-200900000D03*
%TD*%
D53*
%TO.C,C40*%
X142487500Y-154812500D03*
X141527500Y-154812500D03*
%TD*%
D27*
%TO.C,C42*%
X138000000Y-175345000D03*
X138000000Y-176305000D03*
%TD*%
%TO.C,C60*%
X143400000Y-182420000D03*
X143400000Y-183380000D03*
%TD*%
D67*
%TO.C,Q2*%
X76350000Y-151250000D03*
X77650000Y-151250000D03*
X77000000Y-149250000D03*
%TD*%
D28*
%TO.C,C62*%
X139050000Y-190600000D03*
X139050000Y-192500000D03*
%TD*%
D68*
%TO.C,FB3*%
X113437500Y-189775000D03*
X115012500Y-189775000D03*
%TD*%
D69*
%TO.C,D6*%
X119470000Y-197750000D03*
X118630000Y-197750000D03*
%TD*%
D70*
%TO.C,D24*%
X163700000Y-193150000D03*
X161600000Y-193150000D03*
%TD*%
D14*
%TO.C,TP1*%
X158850000Y-190600000D03*
%TD*%
D17*
%TO.C,R29*%
X146650000Y-186460000D03*
X146650000Y-185440000D03*
%TD*%
%TO.C,R9*%
X81750000Y-122510000D03*
X81750000Y-121490000D03*
%TD*%
D22*
%TO.C,C29*%
X152277500Y-155867500D03*
X153237500Y-155867500D03*
%TD*%
D71*
%TO.C,J11*%
X154700000Y-200550000D03*
D72*
X154700000Y-206450000D03*
D73*
X159400000Y-203350000D03*
%TD*%
D74*
%TO.C,D17*%
X148837500Y-209200000D03*
X146437500Y-209200000D03*
%TD*%
D14*
%TO.C,TP14*%
X137500000Y-200000000D03*
%TD*%
%TO.C,TP8*%
X147200000Y-196350000D03*
%TD*%
D75*
%TO.C,C8*%
X90100000Y-167550000D03*
X90100000Y-173150000D03*
%TD*%
D66*
%TO.C,R5*%
X143960000Y-201950000D03*
X142940000Y-201950000D03*
%TD*%
D76*
%TO.C,Q6*%
X162900000Y-186400000D03*
X162900000Y-187700000D03*
X164900000Y-187050000D03*
%TD*%
D19*
%TO.C,R1*%
X82690000Y-111850000D03*
X83710000Y-111850000D03*
%TD*%
D77*
%TO.C,U4*%
X143950000Y-199700000D03*
X144600000Y-199700000D03*
X145250000Y-199700000D03*
X145250000Y-197800000D03*
X143950000Y-197800000D03*
%TD*%
D78*
%TO.C,J8*%
X75650000Y-137300000D03*
D79*
X75650000Y-139840000D03*
X75650000Y-142380000D03*
X75650000Y-144920000D03*
%TD*%
D22*
%TO.C,C20*%
X141977500Y-157617500D03*
X142937500Y-157617500D03*
%TD*%
D14*
%TO.C,TP16*%
X149800000Y-187050000D03*
%TD*%
D22*
%TO.C,C35*%
X152277500Y-153967500D03*
X153237500Y-153967500D03*
%TD*%
D54*
%TO.C,FB4*%
X139225000Y-175612500D03*
X139225000Y-177187500D03*
%TD*%
D80*
%TO.C,J5*%
X74250000Y-171960000D03*
D57*
X74250000Y-174500000D03*
X74250000Y-177040000D03*
%TD*%
D76*
%TO.C,Q3*%
X121950000Y-190800000D03*
X121950000Y-192100000D03*
X123950000Y-191450000D03*
%TD*%
D27*
%TO.C,C16*%
X80850000Y-131970000D03*
X80850000Y-132930000D03*
%TD*%
D37*
%TO.C,D2*%
X134600000Y-197320000D03*
X134600000Y-196480000D03*
%TD*%
D14*
%TO.C,TP7*%
X147200000Y-198800000D03*
%TD*%
D20*
%TO.C,C37*%
X147357500Y-150030000D03*
X147357500Y-149070000D03*
%TD*%
D17*
%TO.C,R17*%
X146800000Y-175510000D03*
X146800000Y-174490000D03*
%TD*%
D14*
%TO.C,TP10*%
X75650000Y-147950000D03*
%TD*%
D81*
%TO.C,U14*%
X122510000Y-196350000D03*
X122510000Y-195850000D03*
X122510000Y-195350000D03*
X122510000Y-194850000D03*
X122510000Y-194350000D03*
X118110000Y-194350000D03*
X118110000Y-194850000D03*
X118110000Y-195350000D03*
X118110000Y-195850000D03*
X118110000Y-196350000D03*
%TD*%
D82*
%TO.C,J4*%
X109795000Y-207350000D03*
X108695000Y-207350000D03*
X107595000Y-207350000D03*
X106495000Y-207350000D03*
X105395000Y-207350000D03*
X104295000Y-207350000D03*
X103195000Y-207350000D03*
X102095000Y-207350000D03*
D83*
X100970000Y-198125000D03*
D84*
X112195000Y-196550000D03*
D85*
X112245000Y-207225000D03*
D86*
X112595000Y-198975000D03*
D87*
X100895000Y-207225000D03*
D88*
X100645000Y-199625000D03*
%TD*%
D89*
%TO.C,FB2*%
X82100000Y-139737500D03*
X82100000Y-138162500D03*
%TD*%
D69*
%TO.C,D1*%
X118470000Y-202650000D03*
X117630000Y-202650000D03*
%TD*%
D14*
%TO.C,TP2*%
X143350000Y-184500000D03*
%TD*%
D27*
%TO.C,C18*%
X141562500Y-152882500D03*
X141562500Y-153842500D03*
%TD*%
D20*
%TO.C,C44*%
X158050000Y-172505000D03*
X158050000Y-171545000D03*
%TD*%
D27*
%TO.C,C30*%
X150307500Y-159887500D03*
X150307500Y-160847500D03*
%TD*%
D14*
%TO.C,TP17*%
X80500000Y-120600000D03*
%TD*%
D27*
%TO.C,C24*%
X150250000Y-162820000D03*
X150250000Y-163780000D03*
%TD*%
D17*
%TO.C,R28*%
X160700000Y-187060000D03*
X160700000Y-186040000D03*
%TD*%
D27*
%TO.C,C67*%
X79450000Y-169570000D03*
X79450000Y-170530000D03*
%TD*%
D17*
%TO.C,R18*%
X148050000Y-175510000D03*
X148050000Y-174490000D03*
%TD*%
D25*
%TO.C,C56*%
X160550000Y-174150000D03*
X166150000Y-174150000D03*
%TD*%
D14*
%TO.C,TP4*%
X133200000Y-188400000D03*
%TD*%
D90*
%TO.C,J2*%
X129790000Y-198930000D03*
D63*
X129790000Y-196930000D03*
X129790000Y-194930000D03*
X129790000Y-192930000D03*
D91*
X132510000Y-192660000D03*
X127070000Y-192660000D03*
X127070000Y-199660000D03*
X132510000Y-199660000D03*
%TD*%
D92*
%TO.C,U13*%
X145750000Y-183700000D03*
X145750000Y-182700000D03*
D93*
X146050000Y-181850000D03*
X145550000Y-181850000D03*
X145050000Y-181850000D03*
X144550000Y-181850000D03*
D94*
X144450000Y-182700000D03*
D92*
X144850000Y-183200000D03*
D93*
X144550000Y-184550000D03*
X145050000Y-184550000D03*
X145550000Y-184550000D03*
X146050000Y-184550000D03*
%TD*%
D22*
%TO.C,C12*%
X144920000Y-200900000D03*
X145880000Y-200900000D03*
%TD*%
%TO.C,C19*%
X141977500Y-156667500D03*
X142937500Y-156667500D03*
%TD*%
D24*
%TO.C,R12*%
X144550000Y-159840000D03*
X144550000Y-160860000D03*
%TD*%
D20*
%TO.C,C65*%
X167100000Y-188180000D03*
X167100000Y-187220000D03*
%TD*%
D69*
%TO.C,D5*%
X119120000Y-201700000D03*
X118280000Y-201700000D03*
%TD*%
D20*
%TO.C,C21*%
X161850000Y-187880000D03*
X161850000Y-186920000D03*
%TD*%
D54*
%TO.C,FB5*%
X158450000Y-168337500D03*
X158450000Y-169912500D03*
%TD*%
D19*
%TO.C,R19*%
X76590000Y-171900000D03*
X77610000Y-171900000D03*
%TD*%
D95*
%TO.C,U3*%
X83012500Y-113200000D03*
X83012500Y-114150000D03*
X83012500Y-115100000D03*
X85287500Y-115100000D03*
X85287500Y-113200000D03*
%TD*%
D19*
%TO.C,R25*%
X162090000Y-194650000D03*
X163110000Y-194650000D03*
%TD*%
D14*
%TO.C,TP18*%
X92600000Y-175950000D03*
%TD*%
D27*
%TO.C,C59*%
X144750000Y-185470000D03*
X144750000Y-186430000D03*
%TD*%
D96*
%TO.C,Q5*%
X161325000Y-190800000D03*
D97*
X162300000Y-191725000D03*
X162300000Y-189875000D03*
D98*
X162300000Y-190760000D03*
%TD*%
D24*
%TO.C,R32*%
X117600000Y-199590000D03*
X117600000Y-200610000D03*
%TD*%
D44*
%TO.C,D7*%
X144930000Y-201950000D03*
X145770000Y-201950000D03*
%TD*%
D20*
%TO.C,C7*%
X135600000Y-197330000D03*
X135600000Y-196370000D03*
%TD*%
D21*
%TO.C,C66*%
X157400000Y-184700000D03*
X151800000Y-184700000D03*
%TD*%
D37*
%TO.C,D14*%
X79600000Y-138820000D03*
X79600000Y-137980000D03*
%TD*%
D19*
%TO.C,R21*%
X145740000Y-163850000D03*
X146760000Y-163850000D03*
%TD*%
D28*
%TO.C,C63*%
X136200000Y-190600000D03*
X136200000Y-192500000D03*
%TD*%
D27*
%TO.C,C57*%
X147250000Y-182720000D03*
X147250000Y-183680000D03*
%TD*%
D64*
%TO.C,J10*%
X154750000Y-178400000D03*
X154750000Y-141600000D03*
%TD*%
%TO.C,J9*%
X113650000Y-178400000D03*
X113650000Y-141600000D03*
%TD*%
D99*
%TO.C,J7*%
X75630000Y-133660000D03*
D79*
X75630000Y-131120000D03*
X75630000Y-128580000D03*
X75630000Y-126040000D03*
%TD*%
G36*
X98937860Y-193510069D02*
G01*
X98942931Y-193513457D01*
X98943536Y-193513159D01*
X98944516Y-193513492D01*
X98965669Y-193527625D01*
X99001795Y-193520438D01*
X99011678Y-193510555D01*
X99013610Y-193510037D01*
X99015024Y-193511451D01*
X99014755Y-193513080D01*
X99005691Y-193526645D01*
X99002000Y-193545199D01*
X99002000Y-194094801D01*
X99005691Y-194113354D01*
X99014914Y-194127157D01*
X99015045Y-194129152D01*
X99013382Y-194130264D01*
X99012140Y-194129931D01*
X99007069Y-194126543D01*
X99006464Y-194126841D01*
X99005484Y-194126508D01*
X98984331Y-194112375D01*
X98948205Y-194119562D01*
X98938322Y-194129445D01*
X98936390Y-194129963D01*
X98934976Y-194128549D01*
X98935245Y-194126920D01*
X98944309Y-194113355D01*
X98948000Y-194094801D01*
X98948000Y-193545199D01*
X98944309Y-193526646D01*
X98935086Y-193512843D01*
X98934955Y-193510848D01*
X98936618Y-193509736D01*
X98937860Y-193510069D01*
G37*
G36*
X98387860Y-193510069D02*
G01*
X98392931Y-193513457D01*
X98393536Y-193513159D01*
X98394516Y-193513492D01*
X98415669Y-193527625D01*
X98451795Y-193520438D01*
X98461678Y-193510555D01*
X98463610Y-193510037D01*
X98465024Y-193511451D01*
X98464755Y-193513080D01*
X98455691Y-193526645D01*
X98452000Y-193545199D01*
X98452000Y-194094801D01*
X98455691Y-194113354D01*
X98464914Y-194127157D01*
X98465045Y-194129152D01*
X98463382Y-194130264D01*
X98462140Y-194129931D01*
X98457069Y-194126543D01*
X98456464Y-194126841D01*
X98455484Y-194126508D01*
X98434331Y-194112375D01*
X98398205Y-194119562D01*
X98388322Y-194129445D01*
X98386390Y-194129963D01*
X98384976Y-194128549D01*
X98385245Y-194126920D01*
X98394309Y-194113355D01*
X98398000Y-194094801D01*
X98398000Y-193545199D01*
X98394309Y-193526646D01*
X98385086Y-193512843D01*
X98384955Y-193510848D01*
X98386618Y-193509736D01*
X98387860Y-193510069D01*
G37*
G36*
X113437860Y-193375069D02*
G01*
X113442931Y-193378457D01*
X113443536Y-193378159D01*
X113444516Y-193378492D01*
X113465669Y-193392625D01*
X113501795Y-193385438D01*
X113511678Y-193375555D01*
X113513610Y-193375037D01*
X113515024Y-193376451D01*
X113514755Y-193378080D01*
X113505691Y-193391645D01*
X113502000Y-193410199D01*
X113502000Y-193959801D01*
X113505691Y-193978354D01*
X113514914Y-193992157D01*
X113515045Y-193994152D01*
X113513382Y-193995264D01*
X113512140Y-193994931D01*
X113507069Y-193991543D01*
X113506464Y-193991841D01*
X113505484Y-193991508D01*
X113484331Y-193977375D01*
X113448205Y-193984562D01*
X113438322Y-193994445D01*
X113436390Y-193994963D01*
X113434976Y-193993549D01*
X113435245Y-193991920D01*
X113444309Y-193978355D01*
X113448000Y-193959801D01*
X113448000Y-193410199D01*
X113444309Y-193391646D01*
X113435086Y-193377843D01*
X113434955Y-193375848D01*
X113436618Y-193374736D01*
X113437860Y-193375069D01*
G37*
G36*
X113987860Y-193375069D02*
G01*
X113992931Y-193378457D01*
X113993536Y-193378159D01*
X113994516Y-193378492D01*
X114015669Y-193392625D01*
X114051795Y-193385438D01*
X114061678Y-193375555D01*
X114063610Y-193375037D01*
X114065024Y-193376451D01*
X114064755Y-193378080D01*
X114055691Y-193391645D01*
X114052000Y-193410199D01*
X114052000Y-193959801D01*
X114055691Y-193978354D01*
X114064914Y-193992157D01*
X114065045Y-193994152D01*
X114063382Y-193995264D01*
X114062140Y-193994931D01*
X114057069Y-193991543D01*
X114056464Y-193991841D01*
X114055484Y-193991508D01*
X114034331Y-193977375D01*
X113998205Y-193984562D01*
X113988322Y-193994445D01*
X113986390Y-193994963D01*
X113984976Y-193993549D01*
X113985245Y-193991920D01*
X113994309Y-193978355D01*
X113998000Y-193959801D01*
X113998000Y-193410199D01*
X113994309Y-193391646D01*
X113985086Y-193377843D01*
X113984955Y-193375848D01*
X113986618Y-193374736D01*
X113987860Y-193375069D01*
G37*
G36*
X98387860Y-192740069D02*
G01*
X98392931Y-192743457D01*
X98393536Y-192743159D01*
X98394516Y-192743492D01*
X98415669Y-192757625D01*
X98451795Y-192750438D01*
X98461678Y-192740555D01*
X98463610Y-192740037D01*
X98465024Y-192741451D01*
X98464755Y-192743080D01*
X98455691Y-192756645D01*
X98452000Y-192775199D01*
X98452000Y-193324801D01*
X98455691Y-193343354D01*
X98464914Y-193357157D01*
X98465045Y-193359152D01*
X98463382Y-193360264D01*
X98462140Y-193359931D01*
X98457069Y-193356543D01*
X98456464Y-193356841D01*
X98455484Y-193356508D01*
X98434331Y-193342375D01*
X98398205Y-193349562D01*
X98388322Y-193359445D01*
X98386390Y-193359963D01*
X98384976Y-193358549D01*
X98385245Y-193356920D01*
X98394309Y-193343355D01*
X98398000Y-193324801D01*
X98398000Y-192775199D01*
X98394309Y-192756646D01*
X98385086Y-192742843D01*
X98384955Y-192740848D01*
X98386618Y-192739736D01*
X98387860Y-192740069D01*
G37*
G36*
X98937860Y-192740069D02*
G01*
X98942931Y-192743457D01*
X98943536Y-192743159D01*
X98944516Y-192743492D01*
X98965669Y-192757625D01*
X99001795Y-192750438D01*
X99011678Y-192740555D01*
X99013610Y-192740037D01*
X99015024Y-192741451D01*
X99014755Y-192743080D01*
X99005691Y-192756645D01*
X99002000Y-192775199D01*
X99002000Y-193324801D01*
X99005691Y-193343354D01*
X99014914Y-193357157D01*
X99015045Y-193359152D01*
X99013382Y-193360264D01*
X99012140Y-193359931D01*
X99007069Y-193356543D01*
X99006464Y-193356841D01*
X99005484Y-193356508D01*
X98984331Y-193342375D01*
X98948205Y-193349562D01*
X98938322Y-193359445D01*
X98936390Y-193359963D01*
X98934976Y-193358549D01*
X98935245Y-193356920D01*
X98944309Y-193343355D01*
X98948000Y-193324801D01*
X98948000Y-192775199D01*
X98944309Y-192756646D01*
X98935086Y-192742843D01*
X98934955Y-192740848D01*
X98936618Y-192739736D01*
X98937860Y-192740069D01*
G37*
G36*
X113987860Y-192605069D02*
G01*
X113992931Y-192608457D01*
X113993536Y-192608159D01*
X113994516Y-192608492D01*
X114015669Y-192622625D01*
X114051795Y-192615438D01*
X114061678Y-192605555D01*
X114063610Y-192605037D01*
X114065024Y-192606451D01*
X114064755Y-192608080D01*
X114055691Y-192621645D01*
X114052000Y-192640199D01*
X114052000Y-193189801D01*
X114055691Y-193208354D01*
X114064914Y-193222157D01*
X114065045Y-193224152D01*
X114063382Y-193225264D01*
X114062140Y-193224931D01*
X114057069Y-193221543D01*
X114056464Y-193221841D01*
X114055484Y-193221508D01*
X114034331Y-193207375D01*
X113998205Y-193214562D01*
X113988322Y-193224445D01*
X113986390Y-193224963D01*
X113984976Y-193223549D01*
X113985245Y-193221920D01*
X113994309Y-193208355D01*
X113998000Y-193189801D01*
X113998000Y-192640199D01*
X113994309Y-192621646D01*
X113985086Y-192607843D01*
X113984955Y-192605848D01*
X113986618Y-192604736D01*
X113987860Y-192605069D01*
G37*
G36*
X113437860Y-192605069D02*
G01*
X113442931Y-192608457D01*
X113443536Y-192608159D01*
X113444516Y-192608492D01*
X113465669Y-192622625D01*
X113501795Y-192615438D01*
X113511678Y-192605555D01*
X113513610Y-192605037D01*
X113515024Y-192606451D01*
X113514755Y-192608080D01*
X113505691Y-192621645D01*
X113502000Y-192640199D01*
X113502000Y-193189801D01*
X113505691Y-193208354D01*
X113514914Y-193222157D01*
X113515045Y-193224152D01*
X113513382Y-193225264D01*
X113512140Y-193224931D01*
X113507069Y-193221543D01*
X113506464Y-193221841D01*
X113505484Y-193221508D01*
X113484331Y-193207375D01*
X113448205Y-193214562D01*
X113438322Y-193224445D01*
X113436390Y-193224963D01*
X113434976Y-193223549D01*
X113435245Y-193221920D01*
X113444309Y-193208355D01*
X113448000Y-193189801D01*
X113448000Y-192640199D01*
X113444309Y-192621646D01*
X113435086Y-192607843D01*
X113434955Y-192605848D01*
X113436618Y-192604736D01*
X113437860Y-192605069D01*
G37*
G36*
X83637860Y-184725069D02*
G01*
X83642931Y-184728457D01*
X83643536Y-184728159D01*
X83644516Y-184728492D01*
X83665669Y-184742625D01*
X83701795Y-184735438D01*
X83711678Y-184725555D01*
X83713610Y-184725037D01*
X83715024Y-184726451D01*
X83714755Y-184728080D01*
X83705691Y-184741645D01*
X83702000Y-184760199D01*
X83702000Y-185309801D01*
X83705691Y-185328354D01*
X83714914Y-185342157D01*
X83715045Y-185344152D01*
X83713382Y-185345264D01*
X83712140Y-185344931D01*
X83707069Y-185341543D01*
X83706464Y-185341841D01*
X83705484Y-185341508D01*
X83684331Y-185327375D01*
X83648205Y-185334562D01*
X83638322Y-185344445D01*
X83636390Y-185344963D01*
X83634976Y-185343549D01*
X83635245Y-185341920D01*
X83644309Y-185328355D01*
X83648000Y-185309801D01*
X83648000Y-184760199D01*
X83644309Y-184741646D01*
X83635086Y-184727843D01*
X83634955Y-184725848D01*
X83636618Y-184724736D01*
X83637860Y-184725069D01*
G37*
G36*
X84187860Y-184725069D02*
G01*
X84192931Y-184728457D01*
X84193536Y-184728159D01*
X84194516Y-184728492D01*
X84215669Y-184742625D01*
X84251795Y-184735438D01*
X84261678Y-184725555D01*
X84263610Y-184725037D01*
X84265024Y-184726451D01*
X84264755Y-184728080D01*
X84255691Y-184741645D01*
X84252000Y-184760199D01*
X84252000Y-185309801D01*
X84255691Y-185328354D01*
X84264914Y-185342157D01*
X84265045Y-185344152D01*
X84263382Y-185345264D01*
X84262140Y-185344931D01*
X84257069Y-185341543D01*
X84256464Y-185341841D01*
X84255484Y-185341508D01*
X84234331Y-185327375D01*
X84198205Y-185334562D01*
X84188322Y-185344445D01*
X84186390Y-185344963D01*
X84184976Y-185343549D01*
X84185245Y-185341920D01*
X84194309Y-185328355D01*
X84198000Y-185309801D01*
X84198000Y-184760199D01*
X84194309Y-184741646D01*
X84185086Y-184727843D01*
X84184955Y-184725848D01*
X84186618Y-184724736D01*
X84187860Y-184725069D01*
G37*
G36*
X88687860Y-184710069D02*
G01*
X88692931Y-184713457D01*
X88693536Y-184713159D01*
X88694516Y-184713492D01*
X88715669Y-184727625D01*
X88751795Y-184720438D01*
X88761678Y-184710555D01*
X88763610Y-184710037D01*
X88765024Y-184711451D01*
X88764755Y-184713080D01*
X88755691Y-184726645D01*
X88752000Y-184745199D01*
X88752000Y-185294801D01*
X88755691Y-185313354D01*
X88764914Y-185327157D01*
X88765045Y-185329152D01*
X88763382Y-185330264D01*
X88762140Y-185329931D01*
X88757069Y-185326543D01*
X88756464Y-185326841D01*
X88755484Y-185326508D01*
X88734331Y-185312375D01*
X88698205Y-185319562D01*
X88688322Y-185329445D01*
X88686390Y-185329963D01*
X88684976Y-185328549D01*
X88685245Y-185326920D01*
X88694309Y-185313355D01*
X88698000Y-185294801D01*
X88698000Y-184745199D01*
X88694309Y-184726646D01*
X88685086Y-184712843D01*
X88684955Y-184710848D01*
X88686618Y-184709736D01*
X88687860Y-184710069D01*
G37*
G36*
X89237860Y-184710069D02*
G01*
X89242931Y-184713457D01*
X89243536Y-184713159D01*
X89244516Y-184713492D01*
X89265669Y-184727625D01*
X89301795Y-184720438D01*
X89311678Y-184710555D01*
X89313610Y-184710037D01*
X89315024Y-184711451D01*
X89314755Y-184713080D01*
X89305691Y-184726645D01*
X89302000Y-184745199D01*
X89302000Y-185294801D01*
X89305691Y-185313354D01*
X89314914Y-185327157D01*
X89315045Y-185329152D01*
X89313382Y-185330264D01*
X89312140Y-185329931D01*
X89307069Y-185326543D01*
X89306464Y-185326841D01*
X89305484Y-185326508D01*
X89284331Y-185312375D01*
X89248205Y-185319562D01*
X89238322Y-185329445D01*
X89236390Y-185329963D01*
X89234976Y-185328549D01*
X89235245Y-185326920D01*
X89244309Y-185313355D01*
X89248000Y-185294801D01*
X89248000Y-184745199D01*
X89244309Y-184726646D01*
X89235086Y-184712843D01*
X89234955Y-184710848D01*
X89236618Y-184709736D01*
X89237860Y-184710069D01*
G37*
G36*
X84187860Y-183955069D02*
G01*
X84192931Y-183958457D01*
X84193536Y-183958159D01*
X84194516Y-183958492D01*
X84215669Y-183972625D01*
X84251795Y-183965438D01*
X84261678Y-183955555D01*
X84263610Y-183955037D01*
X84265024Y-183956451D01*
X84264755Y-183958080D01*
X84255691Y-183971645D01*
X84252000Y-183990199D01*
X84252000Y-184539801D01*
X84255691Y-184558354D01*
X84264914Y-184572157D01*
X84265045Y-184574152D01*
X84263382Y-184575264D01*
X84262140Y-184574931D01*
X84257069Y-184571543D01*
X84256464Y-184571841D01*
X84255484Y-184571508D01*
X84234331Y-184557375D01*
X84198205Y-184564562D01*
X84188322Y-184574445D01*
X84186390Y-184574963D01*
X84184976Y-184573549D01*
X84185245Y-184571920D01*
X84194309Y-184558355D01*
X84198000Y-184539801D01*
X84198000Y-183990199D01*
X84194309Y-183971646D01*
X84185086Y-183957843D01*
X84184955Y-183955848D01*
X84186618Y-183954736D01*
X84187860Y-183955069D01*
G37*
G36*
X83637860Y-183955069D02*
G01*
X83642931Y-183958457D01*
X83643536Y-183958159D01*
X83644516Y-183958492D01*
X83665669Y-183972625D01*
X83701795Y-183965438D01*
X83711678Y-183955555D01*
X83713610Y-183955037D01*
X83715024Y-183956451D01*
X83714755Y-183958080D01*
X83705691Y-183971645D01*
X83702000Y-183990199D01*
X83702000Y-184539801D01*
X83705691Y-184558354D01*
X83714914Y-184572157D01*
X83715045Y-184574152D01*
X83713382Y-184575264D01*
X83712140Y-184574931D01*
X83707069Y-184571543D01*
X83706464Y-184571841D01*
X83705484Y-184571508D01*
X83684331Y-184557375D01*
X83648205Y-184564562D01*
X83638322Y-184574445D01*
X83636390Y-184574963D01*
X83634976Y-184573549D01*
X83635245Y-184571920D01*
X83644309Y-184558355D01*
X83648000Y-184539801D01*
X83648000Y-183990199D01*
X83644309Y-183971646D01*
X83635086Y-183957843D01*
X83634955Y-183955848D01*
X83636618Y-183954736D01*
X83637860Y-183955069D01*
G37*
G36*
X88687860Y-183940069D02*
G01*
X88692931Y-183943457D01*
X88693536Y-183943159D01*
X88694516Y-183943492D01*
X88715669Y-183957625D01*
X88751795Y-183950438D01*
X88761678Y-183940555D01*
X88763610Y-183940037D01*
X88765024Y-183941451D01*
X88764755Y-183943080D01*
X88755691Y-183956645D01*
X88752000Y-183975199D01*
X88752000Y-184524801D01*
X88755691Y-184543354D01*
X88764914Y-184557157D01*
X88765045Y-184559152D01*
X88763382Y-184560264D01*
X88762140Y-184559931D01*
X88757069Y-184556543D01*
X88756464Y-184556841D01*
X88755484Y-184556508D01*
X88734331Y-184542375D01*
X88698205Y-184549562D01*
X88688322Y-184559445D01*
X88686390Y-184559963D01*
X88684976Y-184558549D01*
X88685245Y-184556920D01*
X88694309Y-184543355D01*
X88698000Y-184524801D01*
X88698000Y-183975199D01*
X88694309Y-183956646D01*
X88685086Y-183942843D01*
X88684955Y-183940848D01*
X88686618Y-183939736D01*
X88687860Y-183940069D01*
G37*
G36*
X89237860Y-183940069D02*
G01*
X89242931Y-183943457D01*
X89243536Y-183943159D01*
X89244516Y-183943492D01*
X89265669Y-183957625D01*
X89301795Y-183950438D01*
X89311678Y-183940555D01*
X89313610Y-183940037D01*
X89315024Y-183941451D01*
X89314755Y-183943080D01*
X89305691Y-183956645D01*
X89302000Y-183975199D01*
X89302000Y-184524801D01*
X89305691Y-184543354D01*
X89314914Y-184557157D01*
X89315045Y-184559152D01*
X89313382Y-184560264D01*
X89312140Y-184559931D01*
X89307069Y-184556543D01*
X89306464Y-184556841D01*
X89305484Y-184556508D01*
X89284331Y-184542375D01*
X89248205Y-184549562D01*
X89238322Y-184559445D01*
X89236390Y-184559963D01*
X89234976Y-184558549D01*
X89235245Y-184556920D01*
X89244309Y-184543355D01*
X89248000Y-184524801D01*
X89248000Y-183975199D01*
X89244309Y-183956646D01*
X89235086Y-183942843D01*
X89234955Y-183940848D01*
X89236618Y-183939736D01*
X89237860Y-183940069D01*
G37*
M02*
