%TF.GenerationSoftware,KiCad,Pcbnew,(5.99.0-12650-g5c402a64ab)*%
%TF.CreationDate,2021-10-24T00:02:36+01:00*%
%TF.ProjectId,Pintry-X2,50696e74-7279-42d5-9832-2e6b69636164,rev?*%
%TF.SameCoordinates,Original*%
%TF.FileFunction,Paste,Top*%
%TF.FilePolarity,Positive*%
%FSLAX46Y46*%
G04 Gerber Fmt 4.6, Leading zero omitted, Abs format (unit mm)*
G04 Created by KiCad (PCBNEW (5.99.0-12650-g5c402a64ab)) date 2021-10-24 00:02:36*
%MOMM*%
%LPD*%
G01*
G04 APERTURE LIST*
G04 Aperture macros list*
%AMRoundRect*
0 Rectangle with rounded corners*
0 $1 Rounding radius*
0 $2 $3 $4 $5 $6 $7 $8 $9 X,Y pos of 4 corners*
0 Add a 4 corners polygon primitive as box body*
4,1,4,$2,$3,$4,$5,$6,$7,$8,$9,$2,$3,0*
0 Add four circle primitives for the rounded corners*
1,1,$1+$1,$2,$3*
1,1,$1+$1,$4,$5*
1,1,$1+$1,$6,$7*
1,1,$1+$1,$8,$9*
0 Add four rect primitives between the rounded corners*
20,1,$1+$1,$2,$3,$4,$5,0*
20,1,$1+$1,$4,$5,$6,$7,0*
20,1,$1+$1,$6,$7,$8,$9,0*
20,1,$1+$1,$8,$9,$2,$3,0*%
%AMFreePoly0*
4,1,17,0.428536,1.278536,0.430000,1.275000,0.430000,-0.425000,0.428536,-0.428536,0.425000,-0.430000,-0.575000,-0.430000,-0.578536,-0.428536,-0.580000,-0.425000,-0.580000,0.570000,-1.875000,0.570000,-1.878536,0.571464,-1.880000,0.575000,-1.880000,1.275000,-1.878536,1.278536,-1.875000,1.280000,0.425000,1.280000,0.428536,1.278536,0.428536,1.278536,$1*%
G04 Aperture macros list end*
%ADD10C,0.010000*%
%ADD11R,0.250000X0.360000*%
%ADD12R,0.300000X0.550000*%
%ADD13R,0.400000X0.550000*%
%ADD14RoundRect,0.135000X0.185000X-0.135000X0.185000X0.135000X-0.185000X0.135000X-0.185000X-0.135000X0*%
%ADD15RoundRect,0.150000X0.512500X0.150000X-0.512500X0.150000X-0.512500X-0.150000X0.512500X-0.150000X0*%
%ADD16RoundRect,0.135000X-0.135000X-0.185000X0.135000X-0.185000X0.135000X0.185000X-0.135000X0.185000X0*%
%ADD17RoundRect,0.140000X0.170000X-0.140000X0.170000X0.140000X-0.170000X0.140000X-0.170000X-0.140000X0*%
%ADD18RoundRect,0.250000X1.500000X0.550000X-1.500000X0.550000X-1.500000X-0.550000X1.500000X-0.550000X0*%
%ADD19RoundRect,0.140000X-0.140000X-0.170000X0.140000X-0.170000X0.140000X0.170000X-0.140000X0.170000X0*%
%ADD20FreePoly0,270.000000*%
%ADD21RoundRect,0.135000X-0.185000X0.135000X-0.185000X-0.135000X0.185000X-0.135000X0.185000X0.135000X0*%
%ADD22RoundRect,0.250000X-1.500000X-0.550000X1.500000X-0.550000X1.500000X0.550000X-1.500000X0.550000X0*%
%ADD23RoundRect,0.250000X0.550000X-1.500000X0.550000X1.500000X-0.550000X1.500000X-0.550000X-1.500000X0*%
%ADD24RoundRect,0.140000X-0.170000X0.140000X-0.170000X-0.140000X0.170000X-0.140000X0.170000X0.140000X0*%
%ADD25RoundRect,0.250000X-0.475000X0.250000X-0.475000X-0.250000X0.475000X-0.250000X0.475000X0.250000X0*%
%ADD26R,0.400000X1.650000*%
%ADD27R,1.825000X0.700000*%
%ADD28R,1.430000X2.500000*%
%ADD29R,1.350000X2.000000*%
%ADD30R,2.000000X1.500000*%
%ADD31R,0.800000X0.600000*%
%ADD32R,0.300000X0.350000*%
%ADD33R,0.235000X0.870000*%
%ADD34R,0.700000X0.450000*%
%ADD35R,0.360000X0.250000*%
%ADD36R,1.200000X1.400000*%
%ADD37RoundRect,0.250000X0.300000X0.300000X-0.300000X0.300000X-0.300000X-0.300000X0.300000X-0.300000X0*%
%ADD38RoundRect,0.062500X0.337500X0.062500X-0.337500X0.062500X-0.337500X-0.062500X0.337500X-0.062500X0*%
%ADD39RoundRect,0.062500X0.062500X0.337500X-0.062500X0.337500X-0.062500X-0.337500X0.062500X-0.337500X0*%
%ADD40R,4.000000X1.500000*%
%ADD41R,0.900000X0.600000*%
%ADD42R,0.450000X0.600000*%
%ADD43R,3.400000X2.150000*%
%ADD44RoundRect,0.140000X0.140000X0.170000X-0.140000X0.170000X-0.140000X-0.170000X0.140000X-0.170000X0*%
%ADD45RoundRect,0.218750X-0.256250X0.218750X-0.256250X-0.218750X0.256250X-0.218750X0.256250X0.218750X0*%
%ADD46R,0.700000X0.200000*%
%ADD47RoundRect,0.150000X0.150000X-0.650000X0.150000X0.650000X-0.150000X0.650000X-0.150000X-0.650000X0*%
%ADD48RoundRect,0.135000X0.135000X0.185000X-0.135000X0.185000X-0.135000X-0.185000X0.135000X-0.185000X0*%
%ADD49R,0.450000X0.700000*%
%ADD50RoundRect,0.218750X-0.218750X-0.256250X0.218750X-0.256250X0.218750X0.256250X-0.218750X0.256250X0*%
%ADD51R,0.600000X0.450000*%
%ADD52RoundRect,0.250000X-0.550000X1.500000X-0.550000X-1.500000X0.550000X-1.500000X0.550000X1.500000X0*%
%ADD53R,0.400000X0.650000*%
%ADD54R,1.400000X0.300000*%
%ADD55R,0.700000X1.750000*%
%ADD56R,1.450000X1.000000*%
%ADD57R,1.000000X1.550000*%
%ADD58R,1.500000X1.500000*%
%ADD59R,0.800000X1.400000*%
%ADD60R,1.300000X1.500000*%
%ADD61R,0.800000X1.500000*%
%ADD62RoundRect,0.218750X0.256250X-0.218750X0.256250X0.218750X-0.256250X0.218750X-0.256250X-0.218750X0*%
%ADD63R,1.400000X0.350000*%
%ADD64R,0.350000X0.600000*%
%ADD65R,0.600000X0.350000*%
%ADD66RoundRect,0.150000X-0.512500X-0.150000X0.512500X-0.150000X0.512500X0.150000X-0.512500X0.150000X0*%
G04 APERTURE END LIST*
D10*
%TO.C,FL1*%
X152800000Y-191750000D02*
X152800000Y-189450000D01*
X152800000Y-189450000D02*
X153500000Y-189450000D01*
X153500000Y-189450000D02*
X153500000Y-190750000D01*
X153500000Y-190750000D02*
X154500000Y-190750000D01*
X154500000Y-190750000D02*
X154500000Y-191750000D01*
X154500000Y-191750000D02*
X152800000Y-191750000D01*
G36*
X153500000Y-190750000D02*
G01*
X154500000Y-190750000D01*
X154500000Y-191750000D01*
X152800000Y-191750000D01*
X152800000Y-189450000D01*
X153500000Y-189450000D01*
X153500000Y-190750000D01*
G37*
X153500000Y-190750000D02*
X154500000Y-190750000D01*
X154500000Y-191750000D01*
X152800000Y-191750000D01*
X152800000Y-189450000D01*
X153500000Y-189450000D01*
X153500000Y-190750000D01*
X157500000Y-191750000D02*
X157500000Y-189450000D01*
X157500000Y-189450000D02*
X156800000Y-189450000D01*
X156800000Y-189450000D02*
X156800000Y-190750000D01*
X156800000Y-190750000D02*
X155800000Y-190750000D01*
X155800000Y-190750000D02*
X155800000Y-191750000D01*
X155800000Y-191750000D02*
X157500000Y-191750000D01*
G36*
X157500000Y-191750000D02*
G01*
X155800000Y-191750000D01*
X155800000Y-190750000D01*
X156800000Y-190750000D01*
X156800000Y-189450000D01*
X157500000Y-189450000D01*
X157500000Y-191750000D01*
G37*
X157500000Y-191750000D02*
X155800000Y-191750000D01*
X155800000Y-190750000D01*
X156800000Y-190750000D01*
X156800000Y-189450000D01*
X157500000Y-189450000D01*
X157500000Y-191750000D01*
X157500000Y-192650000D02*
X157500000Y-194950000D01*
X157500000Y-194950000D02*
X156800000Y-194950000D01*
X156800000Y-194950000D02*
X156800000Y-193650000D01*
X156800000Y-193650000D02*
X155800000Y-193650000D01*
X155800000Y-193650000D02*
X155800000Y-192650000D01*
X155800000Y-192650000D02*
X157500000Y-192650000D01*
G36*
X157500000Y-194950000D02*
G01*
X156800000Y-194950000D01*
X156800000Y-193650000D01*
X155800000Y-193650000D01*
X155800000Y-192650000D01*
X157500000Y-192650000D01*
X157500000Y-194950000D01*
G37*
X157500000Y-194950000D02*
X156800000Y-194950000D01*
X156800000Y-193650000D01*
X155800000Y-193650000D01*
X155800000Y-192650000D01*
X157500000Y-192650000D01*
X157500000Y-194950000D01*
X152800000Y-192650000D02*
X152800000Y-194950000D01*
X152800000Y-194950000D02*
X153500000Y-194950000D01*
X153500000Y-194950000D02*
X153500000Y-193650000D01*
X153500000Y-193650000D02*
X154500000Y-193650000D01*
X154500000Y-193650000D02*
X154500000Y-192650000D01*
X154500000Y-192650000D02*
X152800000Y-192650000D01*
G36*
X154500000Y-193650000D02*
G01*
X153500000Y-193650000D01*
X153500000Y-194950000D01*
X152800000Y-194950000D01*
X152800000Y-192650000D01*
X154500000Y-192650000D01*
X154500000Y-193650000D01*
G37*
X154500000Y-193650000D02*
X153500000Y-193650000D01*
X153500000Y-194950000D01*
X152800000Y-194950000D01*
X152800000Y-192650000D01*
X154500000Y-192650000D01*
X154500000Y-193650000D01*
%TD*%
D11*
%TO.C,D13*%
X79750000Y-132130000D03*
X79750000Y-132970000D03*
%TD*%
D12*
%TO.C,U2*%
X88000000Y-185020000D03*
X88500000Y-185020000D03*
D13*
X89000000Y-185020000D03*
D12*
X89500000Y-185020000D03*
X90000000Y-185020000D03*
X90000000Y-184250000D03*
X89500000Y-184250000D03*
D13*
X89000000Y-184250000D03*
D12*
X88500000Y-184250000D03*
X88000000Y-184250000D03*
%TD*%
D14*
%TO.C,R27*%
X160700000Y-188960000D03*
X160700000Y-187940000D03*
%TD*%
D15*
%TO.C,U15*%
X139337500Y-198500000D03*
X139337500Y-197550000D03*
X139337500Y-196600000D03*
X137062500Y-196600000D03*
X137062500Y-198500000D03*
%TD*%
D16*
%TO.C,R10*%
X77190000Y-152500000D03*
X78210000Y-152500000D03*
%TD*%
D17*
%TO.C,C2*%
X116650000Y-196780000D03*
X116650000Y-195820000D03*
%TD*%
D18*
%TO.C,C49*%
X109725000Y-189750000D03*
X104125000Y-189750000D03*
%TD*%
D14*
%TO.C,R30*%
X145700000Y-186460000D03*
X145700000Y-185440000D03*
%TD*%
D12*
%TO.C,U6*%
X97700000Y-193820000D03*
X98200000Y-193820000D03*
D13*
X98700000Y-193820000D03*
D12*
X99200000Y-193820000D03*
X99700000Y-193820000D03*
X99700000Y-193050000D03*
X99200000Y-193050000D03*
D13*
X98700000Y-193050000D03*
D12*
X98200000Y-193050000D03*
X97700000Y-193050000D03*
%TD*%
D19*
%TO.C,C15*%
X113970000Y-206700000D03*
X114930000Y-206700000D03*
%TD*%
D20*
%TO.C,FL1*%
X156225000Y-191325000D03*
%TD*%
D21*
%TO.C,R3*%
X78700000Y-184140000D03*
X78700000Y-185160000D03*
%TD*%
D22*
%TO.C,C55*%
X160575000Y-166750000D03*
X166175000Y-166750000D03*
%TD*%
D14*
%TO.C,R31*%
X166100000Y-188210000D03*
X166100000Y-187190000D03*
%TD*%
%TO.C,R2*%
X116600000Y-200610000D03*
X116600000Y-199590000D03*
%TD*%
D23*
%TO.C,C50*%
X139100000Y-171650000D03*
X139100000Y-166050000D03*
%TD*%
D19*
%TO.C,C28*%
X152277500Y-154917500D03*
X153237500Y-154917500D03*
%TD*%
D24*
%TO.C,C68*%
X71900000Y-169720000D03*
X71900000Y-170680000D03*
%TD*%
D25*
%TO.C,C58*%
X148750000Y-182350000D03*
X148750000Y-184250000D03*
%TD*%
D11*
%TO.C,D12*%
X78550000Y-174430000D03*
X78550000Y-175270000D03*
%TD*%
D16*
%TO.C,R16*%
X121840000Y-189650000D03*
X122860000Y-189650000D03*
%TD*%
D25*
%TO.C,C6*%
X135150000Y-198500000D03*
X135150000Y-200400000D03*
%TD*%
D14*
%TO.C,R7*%
X81750000Y-124410000D03*
X81750000Y-123390000D03*
%TD*%
D21*
%TO.C,R6*%
X89300000Y-111790000D03*
X89300000Y-112810000D03*
%TD*%
D24*
%TO.C,C27*%
X143950000Y-164920000D03*
X143950000Y-165880000D03*
%TD*%
D26*
%TO.C,J1*%
X118515000Y-205435000D03*
X119165000Y-205435000D03*
X119815000Y-205435000D03*
X120465000Y-205435000D03*
X121115000Y-205435000D03*
D27*
X116865000Y-206635000D03*
X122815000Y-206635000D03*
D28*
X118855000Y-208585000D03*
D29*
X122565000Y-207385000D03*
X117085000Y-207385000D03*
D30*
X122715000Y-205315000D03*
D28*
X120775000Y-208585000D03*
D30*
X116965000Y-205335000D03*
%TD*%
D14*
%TO.C,R13*%
X147350000Y-148210000D03*
X147350000Y-147190000D03*
%TD*%
D11*
%TO.C,D16*%
X77000000Y-148020000D03*
X77000000Y-147180000D03*
%TD*%
D17*
%TO.C,C5*%
X141700000Y-198480000D03*
X141700000Y-197520000D03*
%TD*%
D31*
%TO.C,Q7*%
X164625000Y-189750000D03*
X164625000Y-190450000D03*
D32*
X163650000Y-189175000D03*
X163650000Y-191025000D03*
D33*
X163650000Y-190140000D03*
%TD*%
D34*
%TO.C,Q1*%
X80500000Y-123400000D03*
X80500000Y-122100000D03*
X78500000Y-122750000D03*
%TD*%
D14*
%TO.C,R22*%
X145400000Y-180910000D03*
X145400000Y-179890000D03*
%TD*%
D35*
%TO.C,D4*%
X121180000Y-197750000D03*
X122020000Y-197750000D03*
%TD*%
D36*
%TO.C,Y1*%
X140062500Y-154362500D03*
X140062500Y-152162500D03*
X138362500Y-152162500D03*
X138362500Y-154362500D03*
%TD*%
D11*
%TO.C,D23*%
X159025000Y-172527500D03*
X159025000Y-171687500D03*
%TD*%
D14*
%TO.C,R26*%
X143500000Y-180910000D03*
X143500000Y-179890000D03*
%TD*%
D37*
%TO.C,U7*%
X148907500Y-153767500D03*
X146167500Y-153767500D03*
X148907500Y-156507500D03*
X148907500Y-155137500D03*
X147537500Y-155137500D03*
X147537500Y-153767500D03*
X147537500Y-156507500D03*
X146167500Y-156507500D03*
X146167500Y-155137500D03*
D38*
X150987500Y-157887500D03*
X150987500Y-157387500D03*
X150987500Y-156887500D03*
X150987500Y-156387500D03*
X150987500Y-155887500D03*
X150987500Y-155387500D03*
X150987500Y-154887500D03*
X150987500Y-154387500D03*
X150987500Y-153887500D03*
X150987500Y-153387500D03*
X150987500Y-152887500D03*
X150987500Y-152387500D03*
D39*
X150287500Y-151687500D03*
X149787500Y-151687500D03*
X149287500Y-151687500D03*
X148787500Y-151687500D03*
X148287500Y-151687500D03*
X147787500Y-151687500D03*
X147287500Y-151687500D03*
X146787500Y-151687500D03*
X146287500Y-151687500D03*
X145787500Y-151687500D03*
X145287500Y-151687500D03*
X144787500Y-151687500D03*
D38*
X144087500Y-152387500D03*
X144087500Y-152887500D03*
X144087500Y-153387500D03*
X144087500Y-153887500D03*
X144087500Y-154387500D03*
X144087500Y-154887500D03*
X144087500Y-155387500D03*
X144087500Y-155887500D03*
X144087500Y-156387500D03*
X144087500Y-156887500D03*
X144087500Y-157387500D03*
X144087500Y-157887500D03*
D39*
X144787500Y-158587500D03*
X145287500Y-158587500D03*
X145787500Y-158587500D03*
X146287500Y-158587500D03*
X146787500Y-158587500D03*
X147287500Y-158587500D03*
X147787500Y-158587500D03*
X148287500Y-158587500D03*
X148787500Y-158587500D03*
X149287500Y-158587500D03*
X149787500Y-158587500D03*
X150287500Y-158587500D03*
%TD*%
D11*
%TO.C,D15*%
X77150000Y-122730000D03*
X77150000Y-123570000D03*
%TD*%
D40*
%TO.C,L1*%
X154500000Y-162350000D03*
X154500000Y-158750000D03*
%TD*%
D41*
%TO.C,D8*%
X82850000Y-110800000D03*
X85250000Y-110800000D03*
%TD*%
D21*
%TO.C,R23*%
X146350000Y-179890000D03*
X146350000Y-180910000D03*
%TD*%
D19*
%TO.C,C13*%
X144120000Y-196650000D03*
X145080000Y-196650000D03*
%TD*%
D17*
%TO.C,C17*%
X80750000Y-138880000D03*
X80750000Y-137920000D03*
%TD*%
D11*
%TO.C,D21*%
X137000000Y-175405000D03*
X137000000Y-176245000D03*
%TD*%
D42*
%TO.C,D26*%
X159200000Y-188325000D03*
X159200000Y-186225000D03*
%TD*%
D12*
%TO.C,U1*%
X82950000Y-185035000D03*
X83450000Y-185035000D03*
D13*
X83950000Y-185035000D03*
D12*
X84450000Y-185035000D03*
X84950000Y-185035000D03*
X84950000Y-184265000D03*
X84450000Y-184265000D03*
D13*
X83950000Y-184265000D03*
D12*
X83450000Y-184265000D03*
X82950000Y-184265000D03*
%TD*%
D43*
%TO.C,L2*%
X139000000Y-182575000D03*
X139000000Y-188425000D03*
%TD*%
D16*
%TO.C,R8*%
X75280000Y-152500000D03*
X76300000Y-152500000D03*
%TD*%
D12*
%TO.C,U5*%
X112750000Y-193685000D03*
X113250000Y-193685000D03*
D13*
X113750000Y-193685000D03*
D12*
X114250000Y-193685000D03*
X114750000Y-193685000D03*
X114750000Y-192915000D03*
X114250000Y-192915000D03*
D13*
X113750000Y-192915000D03*
D12*
X113250000Y-192915000D03*
X112750000Y-192915000D03*
%TD*%
D16*
%TO.C,R35*%
X121840000Y-188400000D03*
X122860000Y-188400000D03*
%TD*%
D44*
%TO.C,C36*%
X143780000Y-150450000D03*
X142820000Y-150450000D03*
%TD*%
D16*
%TO.C,R20*%
X76590000Y-174450000D03*
X77610000Y-174450000D03*
%TD*%
D45*
%TO.C,FB6*%
X158250000Y-177362500D03*
X158250000Y-178937500D03*
%TD*%
D16*
%TO.C,R14*%
X146530000Y-208200000D03*
X147550000Y-208200000D03*
%TD*%
D24*
%TO.C,C38*%
X147657500Y-159887500D03*
X147657500Y-160847500D03*
%TD*%
D44*
%TO.C,C33*%
X142937500Y-158767500D03*
X141977500Y-158767500D03*
%TD*%
D35*
%TO.C,D25*%
X161830000Y-188900000D03*
X162670000Y-188900000D03*
%TD*%
D21*
%TO.C,R24*%
X144450000Y-179890000D03*
X144450000Y-180910000D03*
%TD*%
D41*
%TO.C,D9*%
X89300000Y-110800000D03*
X91700000Y-110800000D03*
%TD*%
D23*
%TO.C,C10*%
X90100000Y-163450000D03*
X90100000Y-157850000D03*
%TD*%
D19*
%TO.C,C11*%
X85270000Y-111850000D03*
X86230000Y-111850000D03*
%TD*%
D45*
%TO.C,FB1*%
X82150000Y-131112500D03*
X82150000Y-132687500D03*
%TD*%
D24*
%TO.C,C39*%
X148607500Y-159887500D03*
X148607500Y-160847500D03*
%TD*%
D35*
%TO.C,D3*%
X119900000Y-201700000D03*
X120740000Y-201700000D03*
%TD*%
%TO.C,D22*%
X158380000Y-164125000D03*
X159220000Y-164125000D03*
%TD*%
D21*
%TO.C,R4*%
X80100000Y-184140000D03*
X80100000Y-185160000D03*
%TD*%
D19*
%TO.C,C34*%
X152277500Y-152117500D03*
X153237500Y-152117500D03*
%TD*%
%TO.C,C14*%
X113970000Y-207650000D03*
X114930000Y-207650000D03*
%TD*%
%TO.C,C32*%
X152277500Y-153017500D03*
X153237500Y-153017500D03*
%TD*%
D24*
%TO.C,C23*%
X151200000Y-162820000D03*
X151200000Y-163780000D03*
%TD*%
D19*
%TO.C,C43*%
X158295000Y-165100000D03*
X159255000Y-165100000D03*
%TD*%
D24*
%TO.C,C61*%
X143800000Y-185470000D03*
X143800000Y-186430000D03*
%TD*%
D19*
%TO.C,C31*%
X152277500Y-156767500D03*
X153237500Y-156767500D03*
%TD*%
D17*
%TO.C,C4*%
X140750000Y-198480000D03*
X140750000Y-197520000D03*
%TD*%
D21*
%TO.C,R11*%
X150950000Y-164890000D03*
X150950000Y-165910000D03*
%TD*%
D35*
%TO.C,D10*%
X114030000Y-208600000D03*
X114870000Y-208600000D03*
%TD*%
D46*
%TO.C,Module1*%
X95700000Y-150300000D03*
X98780000Y-150300000D03*
X95700000Y-150700000D03*
X98780000Y-150700000D03*
X95700000Y-151100000D03*
X98780000Y-151100000D03*
X95700000Y-151500000D03*
X98780000Y-151500000D03*
X95700000Y-151900000D03*
X98780000Y-151900000D03*
X95700000Y-152300000D03*
X98780000Y-152300000D03*
X95700000Y-152700000D03*
X98780000Y-152700000D03*
X95700000Y-153100000D03*
X98780000Y-153100000D03*
X95700000Y-153500000D03*
X98780000Y-153500000D03*
X95700000Y-153900000D03*
X98780000Y-153900000D03*
X95700000Y-154300000D03*
X98780000Y-154300000D03*
X95700000Y-154700000D03*
X98780000Y-154700000D03*
X95700000Y-155100000D03*
X98780000Y-155100000D03*
X95700000Y-155500000D03*
X98780000Y-155500000D03*
X95700000Y-155900000D03*
X98780000Y-155900000D03*
X95700000Y-156300000D03*
X98780000Y-156300000D03*
X95700000Y-156700000D03*
X98780000Y-156700000D03*
X95700000Y-157100000D03*
X98780000Y-157100000D03*
X95700000Y-157500000D03*
X98780000Y-157500000D03*
X95700000Y-157900000D03*
X98780000Y-157900000D03*
X95700000Y-158300000D03*
X98780000Y-158300000D03*
X95700000Y-158700000D03*
X98780000Y-158700000D03*
X95700000Y-159100000D03*
X98780000Y-159100000D03*
X95700000Y-159500000D03*
X98780000Y-159500000D03*
X95700000Y-159900000D03*
X98780000Y-159900000D03*
X95700000Y-160300000D03*
X98780000Y-160300000D03*
X95700000Y-160700000D03*
X98780000Y-160700000D03*
X95700000Y-161100000D03*
X98780000Y-161100000D03*
X95700000Y-161500000D03*
X98780000Y-161500000D03*
X95700000Y-161900000D03*
X98780000Y-161900000D03*
X95700000Y-162300000D03*
X98780000Y-162300000D03*
X95700000Y-162700000D03*
X98780000Y-162700000D03*
X95700000Y-163100000D03*
X98780000Y-163100000D03*
X95700000Y-163500000D03*
X98780000Y-163500000D03*
X95700000Y-163900000D03*
X98780000Y-163900000D03*
X95700000Y-164300000D03*
X98780000Y-164300000D03*
X95700000Y-164700000D03*
X98780000Y-164700000D03*
X95700000Y-165100000D03*
X98780000Y-165100000D03*
X95700000Y-165500000D03*
X98780000Y-165500000D03*
X95700000Y-165900000D03*
X98780000Y-165900000D03*
X95700000Y-166300000D03*
X98780000Y-166300000D03*
X95700000Y-166700000D03*
X98780000Y-166700000D03*
X95700000Y-167100000D03*
X98780000Y-167100000D03*
X95700000Y-167500000D03*
X98780000Y-167500000D03*
X95700000Y-167900000D03*
X98780000Y-167900000D03*
X95700000Y-168300000D03*
X98780000Y-168300000D03*
X95700000Y-168700000D03*
X98780000Y-168700000D03*
X95700000Y-169100000D03*
X98780000Y-169100000D03*
X95700000Y-169500000D03*
X98780000Y-169500000D03*
X95700000Y-169900000D03*
X98780000Y-169900000D03*
X129620000Y-150300000D03*
X132700000Y-150300000D03*
X129620000Y-150700000D03*
X132700000Y-150700000D03*
X129620000Y-151100000D03*
X132700000Y-151100000D03*
X129620000Y-151500000D03*
X132700000Y-151500000D03*
X129620000Y-151900000D03*
X132700000Y-151900000D03*
X129620000Y-152300000D03*
X132700000Y-152300000D03*
X129620000Y-152700000D03*
X132700000Y-152700000D03*
X129620000Y-153100000D03*
X132700000Y-153100000D03*
X129620000Y-153500000D03*
X132700000Y-153500000D03*
X129620000Y-153900000D03*
X132700000Y-153900000D03*
X129620000Y-154300000D03*
X132700000Y-154300000D03*
X129620000Y-154700000D03*
X132700000Y-154700000D03*
X129620000Y-155100000D03*
X132700000Y-155100000D03*
X129620000Y-155500000D03*
X132700000Y-155500000D03*
X129620000Y-155900000D03*
X132700000Y-155900000D03*
X129620000Y-156300000D03*
X132700000Y-156300000D03*
X129620000Y-156700000D03*
X132700000Y-156700000D03*
X129620000Y-157100000D03*
X132700000Y-157100000D03*
X129620000Y-157500000D03*
X132700000Y-157500000D03*
X129620000Y-157900000D03*
X132700000Y-157900000D03*
X129620000Y-158300000D03*
X132700000Y-158300000D03*
X129620000Y-158700000D03*
X132700000Y-158700000D03*
X129620000Y-159100000D03*
X132700000Y-159100000D03*
X129620000Y-159500000D03*
X132700000Y-159500000D03*
X129620000Y-159900000D03*
X132700000Y-159900000D03*
X129620000Y-160300000D03*
X132700000Y-160300000D03*
X129620000Y-160700000D03*
X132700000Y-160700000D03*
X129620000Y-161100000D03*
X132700000Y-161100000D03*
X129620000Y-161500000D03*
X132700000Y-161500000D03*
X129620000Y-161900000D03*
X132700000Y-161900000D03*
X129620000Y-162300000D03*
X132700000Y-162300000D03*
X129620000Y-162700000D03*
X132700000Y-162700000D03*
X129620000Y-163100000D03*
X132700000Y-163100000D03*
X129620000Y-163500000D03*
X132700000Y-163500000D03*
X129620000Y-163900000D03*
X132700000Y-163900000D03*
X129620000Y-164300000D03*
X132700000Y-164300000D03*
X129620000Y-164700000D03*
X132700000Y-164700000D03*
X129620000Y-165100000D03*
X132700000Y-165100000D03*
X129620000Y-165500000D03*
X132700000Y-165500000D03*
X129620000Y-165900000D03*
X132700000Y-165900000D03*
X129620000Y-166300000D03*
X132700000Y-166300000D03*
X129620000Y-166700000D03*
X132700000Y-166700000D03*
X129620000Y-167100000D03*
X132700000Y-167100000D03*
X129620000Y-167500000D03*
X132700000Y-167500000D03*
X129620000Y-167900000D03*
X132700000Y-167900000D03*
X129620000Y-168300000D03*
X132700000Y-168300000D03*
X129620000Y-168700000D03*
X132700000Y-168700000D03*
X129620000Y-169100000D03*
X132700000Y-169100000D03*
X129620000Y-169500000D03*
X132700000Y-169500000D03*
X129620000Y-169900000D03*
X132700000Y-169900000D03*
%TD*%
D47*
%TO.C,U10*%
X145545000Y-172650000D03*
X146815000Y-172650000D03*
X148085000Y-172650000D03*
X149355000Y-172650000D03*
X149355000Y-165450000D03*
X148085000Y-165450000D03*
X146815000Y-165450000D03*
X145545000Y-165450000D03*
%TD*%
D17*
%TO.C,C9*%
X81400000Y-185130000D03*
X81400000Y-184170000D03*
%TD*%
D11*
%TO.C,D11*%
X78550000Y-171880000D03*
X78550000Y-172720000D03*
%TD*%
D25*
%TO.C,C64*%
X141800000Y-190600000D03*
X141800000Y-192500000D03*
%TD*%
D48*
%TO.C,R15*%
X143960000Y-200900000D03*
X142940000Y-200900000D03*
%TD*%
D44*
%TO.C,C40*%
X142487500Y-154812500D03*
X141527500Y-154812500D03*
%TD*%
D24*
%TO.C,C42*%
X138000000Y-175345000D03*
X138000000Y-176305000D03*
%TD*%
%TO.C,C60*%
X143400000Y-182420000D03*
X143400000Y-183380000D03*
%TD*%
D49*
%TO.C,Q2*%
X76350000Y-151250000D03*
X77650000Y-151250000D03*
X77000000Y-149250000D03*
%TD*%
D25*
%TO.C,C62*%
X139050000Y-190600000D03*
X139050000Y-192500000D03*
%TD*%
D50*
%TO.C,FB3*%
X113437500Y-189775000D03*
X115012500Y-189775000D03*
%TD*%
D35*
%TO.C,D6*%
X119470000Y-197750000D03*
X118630000Y-197750000D03*
%TD*%
D51*
%TO.C,D24*%
X163700000Y-193150000D03*
X161600000Y-193150000D03*
%TD*%
D14*
%TO.C,R29*%
X146650000Y-186460000D03*
X146650000Y-185440000D03*
%TD*%
%TO.C,R9*%
X81750000Y-122510000D03*
X81750000Y-121490000D03*
%TD*%
D19*
%TO.C,C29*%
X152277500Y-155867500D03*
X153237500Y-155867500D03*
%TD*%
D41*
%TO.C,D17*%
X148837500Y-209200000D03*
X146437500Y-209200000D03*
%TD*%
D52*
%TO.C,C8*%
X90100000Y-167550000D03*
X90100000Y-173150000D03*
%TD*%
D48*
%TO.C,R5*%
X143960000Y-201950000D03*
X142940000Y-201950000D03*
%TD*%
D34*
%TO.C,Q6*%
X162900000Y-186400000D03*
X162900000Y-187700000D03*
X164900000Y-187050000D03*
%TD*%
D16*
%TO.C,R1*%
X82690000Y-111850000D03*
X83710000Y-111850000D03*
%TD*%
D53*
%TO.C,U4*%
X143950000Y-199700000D03*
X144600000Y-199700000D03*
X145250000Y-199700000D03*
X145250000Y-197800000D03*
X143950000Y-197800000D03*
%TD*%
D19*
%TO.C,C20*%
X141977500Y-157617500D03*
X142937500Y-157617500D03*
%TD*%
%TO.C,C35*%
X152277500Y-153967500D03*
X153237500Y-153967500D03*
%TD*%
D45*
%TO.C,FB4*%
X139225000Y-175612500D03*
X139225000Y-177187500D03*
%TD*%
D34*
%TO.C,Q3*%
X121950000Y-190800000D03*
X121950000Y-192100000D03*
X123950000Y-191450000D03*
%TD*%
D24*
%TO.C,C16*%
X80850000Y-131970000D03*
X80850000Y-132930000D03*
%TD*%
D11*
%TO.C,D2*%
X134600000Y-197320000D03*
X134600000Y-196480000D03*
%TD*%
D17*
%TO.C,C37*%
X147357500Y-150030000D03*
X147357500Y-149070000D03*
%TD*%
D14*
%TO.C,R17*%
X146800000Y-175510000D03*
X146800000Y-174490000D03*
%TD*%
D54*
%TO.C,U14*%
X122510000Y-196350000D03*
X122510000Y-195850000D03*
X122510000Y-195350000D03*
X122510000Y-194850000D03*
X122510000Y-194350000D03*
X118110000Y-194350000D03*
X118110000Y-194850000D03*
X118110000Y-195350000D03*
X118110000Y-195850000D03*
X118110000Y-196350000D03*
%TD*%
D55*
%TO.C,J4*%
X109795000Y-207350000D03*
X108695000Y-207350000D03*
X107595000Y-207350000D03*
X106495000Y-207350000D03*
X105395000Y-207350000D03*
X104295000Y-207350000D03*
X103195000Y-207350000D03*
X102095000Y-207350000D03*
D56*
X100970000Y-198125000D03*
D57*
X112195000Y-196550000D03*
D58*
X112245000Y-207225000D03*
D59*
X112595000Y-198975000D03*
D60*
X100895000Y-207225000D03*
D61*
X100645000Y-199625000D03*
%TD*%
D62*
%TO.C,FB2*%
X82100000Y-139737500D03*
X82100000Y-138162500D03*
%TD*%
D35*
%TO.C,D1*%
X118470000Y-202650000D03*
X117630000Y-202650000D03*
%TD*%
D24*
%TO.C,C18*%
X141562500Y-152882500D03*
X141562500Y-153842500D03*
%TD*%
D17*
%TO.C,C44*%
X158050000Y-172505000D03*
X158050000Y-171545000D03*
%TD*%
D24*
%TO.C,C30*%
X150307500Y-159887500D03*
X150307500Y-160847500D03*
%TD*%
%TO.C,C24*%
X150250000Y-162820000D03*
X150250000Y-163780000D03*
%TD*%
D14*
%TO.C,R28*%
X160700000Y-187060000D03*
X160700000Y-186040000D03*
%TD*%
D24*
%TO.C,C67*%
X79450000Y-169570000D03*
X79450000Y-170530000D03*
%TD*%
D14*
%TO.C,R18*%
X148050000Y-175510000D03*
X148050000Y-174490000D03*
%TD*%
D22*
%TO.C,C56*%
X160550000Y-174150000D03*
X166150000Y-174150000D03*
%TD*%
D63*
%TO.C,U13*%
X145750000Y-183700000D03*
X145750000Y-182700000D03*
D64*
X146050000Y-181850000D03*
X145550000Y-181850000D03*
X145050000Y-181850000D03*
X144550000Y-181850000D03*
D65*
X144450000Y-182700000D03*
D63*
X144850000Y-183200000D03*
D64*
X144550000Y-184550000D03*
X145050000Y-184550000D03*
X145550000Y-184550000D03*
X146050000Y-184550000D03*
%TD*%
D19*
%TO.C,C12*%
X144920000Y-200900000D03*
X145880000Y-200900000D03*
%TD*%
%TO.C,C19*%
X141977500Y-156667500D03*
X142937500Y-156667500D03*
%TD*%
D21*
%TO.C,R12*%
X144550000Y-159840000D03*
X144550000Y-160860000D03*
%TD*%
D17*
%TO.C,C65*%
X167100000Y-188180000D03*
X167100000Y-187220000D03*
%TD*%
D35*
%TO.C,D5*%
X119120000Y-201700000D03*
X118280000Y-201700000D03*
%TD*%
D17*
%TO.C,C21*%
X161850000Y-187880000D03*
X161850000Y-186920000D03*
%TD*%
D45*
%TO.C,FB5*%
X158450000Y-168337500D03*
X158450000Y-169912500D03*
%TD*%
D16*
%TO.C,R19*%
X76590000Y-171900000D03*
X77610000Y-171900000D03*
%TD*%
D66*
%TO.C,U3*%
X83012500Y-113200000D03*
X83012500Y-114150000D03*
X83012500Y-115100000D03*
X85287500Y-115100000D03*
X85287500Y-113200000D03*
%TD*%
D16*
%TO.C,R25*%
X162090000Y-194650000D03*
X163110000Y-194650000D03*
%TD*%
D24*
%TO.C,C59*%
X144750000Y-185470000D03*
X144750000Y-186430000D03*
%TD*%
D31*
%TO.C,Q5*%
X161325000Y-191150000D03*
X161325000Y-190450000D03*
D32*
X162300000Y-191725000D03*
X162300000Y-189875000D03*
D33*
X162300000Y-190760000D03*
%TD*%
D21*
%TO.C,R32*%
X117600000Y-199590000D03*
X117600000Y-200610000D03*
%TD*%
D35*
%TO.C,D7*%
X144930000Y-201950000D03*
X145770000Y-201950000D03*
%TD*%
D17*
%TO.C,C7*%
X135600000Y-197330000D03*
X135600000Y-196370000D03*
%TD*%
D18*
%TO.C,C66*%
X157400000Y-184700000D03*
X151800000Y-184700000D03*
%TD*%
D11*
%TO.C,D14*%
X79600000Y-138820000D03*
X79600000Y-137980000D03*
%TD*%
D16*
%TO.C,R21*%
X145740000Y-163850000D03*
X146760000Y-163850000D03*
%TD*%
D25*
%TO.C,C63*%
X136200000Y-190600000D03*
X136200000Y-192500000D03*
%TD*%
D24*
%TO.C,C57*%
X147250000Y-182720000D03*
X147250000Y-183680000D03*
%TD*%
M02*
